%TF.GenerationSoftware,KiCad,Pcbnew,9.0.0*%
%TF.CreationDate,2025-05-24T18:36:09+02:00*%
%TF.ProjectId,DS100M08KV,44533130-304d-4303-984b-562e6b696361,rev?*%
%TF.SameCoordinates,Original*%
%TF.FileFunction,Copper,L2,Inr*%
%TF.FilePolarity,Positive*%
%FSLAX46Y46*%
G04 Gerber Fmt 4.6, Leading zero omitted, Abs format (unit mm)*
G04 Created by KiCad (PCBNEW 9.0.0) date 2025-05-24 18:36:09*
%MOMM*%
%LPD*%
G01*
G04 APERTURE LIST*
G04 Aperture macros list*
%AMRoundRect*
0 Rectangle with rounded corners*
0 $1 Rounding radius*
0 $2 $3 $4 $5 $6 $7 $8 $9 X,Y pos of 4 corners*
0 Add a 4 corners polygon primitive as box body*
4,1,4,$2,$3,$4,$5,$6,$7,$8,$9,$2,$3,0*
0 Add four circle primitives for the rounded corners*
1,1,$1+$1,$2,$3*
1,1,$1+$1,$4,$5*
1,1,$1+$1,$6,$7*
1,1,$1+$1,$8,$9*
0 Add four rect primitives between the rounded corners*
20,1,$1+$1,$2,$3,$4,$5,0*
20,1,$1+$1,$4,$5,$6,$7,0*
20,1,$1+$1,$6,$7,$8,$9,0*
20,1,$1+$1,$8,$9,$2,$3,0*%
G04 Aperture macros list end*
%TA.AperFunction,ComponentPad*%
%ADD10R,1.710000X1.800000*%
%TD*%
%TA.AperFunction,ComponentPad*%
%ADD11O,1.710000X1.800000*%
%TD*%
%TA.AperFunction,ComponentPad*%
%ADD12RoundRect,0.250000X-0.675000X-0.675000X0.675000X-0.675000X0.675000X0.675000X-0.675000X0.675000X0*%
%TD*%
%TA.AperFunction,ComponentPad*%
%ADD13RoundRect,0.250000X0.675000X-0.675000X0.675000X0.675000X-0.675000X0.675000X-0.675000X-0.675000X0*%
%TD*%
%TA.AperFunction,ComponentPad*%
%ADD14O,3.000000X1.500000*%
%TD*%
%TA.AperFunction,ComponentPad*%
%ADD15C,1.440000*%
%TD*%
%TA.AperFunction,ComponentPad*%
%ADD16R,1.800000X1.800000*%
%TD*%
%TA.AperFunction,ComponentPad*%
%ADD17C,1.800000*%
%TD*%
%TA.AperFunction,ComponentPad*%
%ADD18RoundRect,0.250000X-0.350000X-0.625000X0.350000X-0.625000X0.350000X0.625000X-0.350000X0.625000X0*%
%TD*%
%TA.AperFunction,ComponentPad*%
%ADD19O,1.200000X1.750000*%
%TD*%
%TA.AperFunction,ComponentPad*%
%ADD20R,1.600000X1.600000*%
%TD*%
%TA.AperFunction,ComponentPad*%
%ADD21C,1.600000*%
%TD*%
%TA.AperFunction,ComponentPad*%
%ADD22R,1.850000X1.850000*%
%TD*%
%TA.AperFunction,ComponentPad*%
%ADD23C,1.850000*%
%TD*%
%TA.AperFunction,ComponentPad*%
%ADD24C,2.600000*%
%TD*%
%TA.AperFunction,ViaPad*%
%ADD25C,0.800000*%
%TD*%
%TA.AperFunction,Conductor*%
%ADD26C,1.000000*%
%TD*%
G04 APERTURE END LIST*
D10*
%TO.N,Net-(Q1-B)*%
%TO.C,Q1*%
X168700000Y-138000000D03*
D11*
%TO.N,Net-(PS1-+Vout)*%
X170980000Y-138000000D03*
%TO.N,+5V*%
X173260000Y-138000000D03*
%TD*%
D12*
%TO.N,IN+*%
%TO.C,J3*%
X101450000Y-134100000D03*
%TD*%
D13*
%TO.N,0*%
%TO.C,J11*%
X178300000Y-109900000D03*
%TD*%
D14*
%TO.N,unconnected-(SW2A-A-Pad1)*%
%TO.C,SW2*%
X154300000Y-135100000D03*
%TO.N,Net-(SW2A-B)*%
X150300000Y-135100000D03*
%TO.N,+BAT*%
X146300000Y-135100000D03*
%TO.N,unconnected-(SW2B-A-Pad4)*%
X146300000Y-132500000D03*
%TO.N,unconnected-(SW2B-B-Pad5)*%
X150300000Y-132500000D03*
%TO.N,unconnected-(SW2B-C-Pad6)*%
X154300000Y-132500000D03*
%TD*%
D12*
%TO.N,IN-*%
%TO.C,J4*%
X101600000Y-118300000D03*
%TD*%
D10*
%TO.N,Net-(Q4-B)*%
%TO.C,Q4*%
X181500000Y-138000000D03*
D11*
%TO.N,Net-(PS1--Vout)*%
X183780000Y-138000000D03*
%TO.N,-5V*%
X186060000Y-138000000D03*
%TD*%
D13*
%TO.N,Net-(J1-Pin_1)*%
%TO.C,J1*%
X178300000Y-113100000D03*
%TD*%
D15*
%TO.N,Net-(R12-Pad1)*%
%TO.C,RV2*%
X127600000Y-123560000D03*
%TO.N,0*%
X127600000Y-126100000D03*
%TO.N,Net-(R5-Pad1)*%
X127600000Y-128640000D03*
%TD*%
D16*
%TO.N,Net-(D6-K)*%
%TO.C,D6*%
X133830000Y-148600000D03*
D17*
%TO.N,Net-(D6-A)*%
X136370000Y-148600000D03*
%TD*%
D14*
%TO.N,Net-(SW1A-A)*%
%TO.C,SW1*%
X154300000Y-119500000D03*
%TO.N,Net-(SW1A-B)*%
X150300000Y-119500000D03*
%TO.N,Net-(SW1A-C)*%
X146300000Y-119500000D03*
%TO.N,Net-(SW1B-A)*%
X146300000Y-116900000D03*
%TO.N,Net-(SW1B-B)*%
X150300000Y-116900000D03*
%TO.N,Net-(SW1B-C)*%
X154300000Y-116900000D03*
%TD*%
D18*
%TO.N,+VBUS*%
%TO.C,J2*%
X143500000Y-141300000D03*
D19*
%TO.N,unconnected-(J2-Pin_2-Pad2)*%
X145500000Y-141300000D03*
%TO.N,unconnected-(J2-Pin_3-Pad3)*%
X147500000Y-141300000D03*
%TO.N,Earth*%
X149500000Y-141300000D03*
%TD*%
D20*
%TO.N,Net-(Q1-B)*%
%TO.C,C16*%
X167000000Y-142200000D03*
D21*
%TO.N,0*%
X169000000Y-142200000D03*
%TD*%
D22*
%TO.N,Net-(PS1-+Vin)*%
%TO.C,PS1*%
X169330000Y-150095000D03*
D23*
%TO.N,Earth*%
X171870000Y-150095000D03*
%TO.N,Net-(PS1--Vout)*%
X176950000Y-150095000D03*
%TO.N,0*%
X179490000Y-150095000D03*
%TO.N,Net-(PS1-+Vout)*%
X182030000Y-150095000D03*
%TD*%
D20*
%TO.N,Net-(PS1-+Vin)*%
%TO.C,C40*%
X155000000Y-150100000D03*
D21*
%TO.N,Earth*%
X155000000Y-148100000D03*
%TD*%
D15*
%TO.N,0*%
%TO.C,RV6*%
X130500000Y-105000000D03*
%TO.N,Net-(R14-Pad2)*%
X127960000Y-105000000D03*
%TO.N,+5V*%
X125420000Y-105000000D03*
%TD*%
D24*
%TO.N,Net-(SW2A-B)*%
%TO.C,L2*%
X161150000Y-141700000D03*
%TO.N,Net-(U7-SW)*%
X157650000Y-141700000D03*
%TD*%
D15*
%TO.N,0*%
%TO.C,RV5*%
X121800000Y-148850000D03*
%TO.N,Net-(R15-Pad2)*%
X121800000Y-146310000D03*
%TO.N,+5V*%
X121800000Y-143770000D03*
%TD*%
D20*
%TO.N,+5V*%
%TO.C,C44*%
X174900000Y-142200000D03*
D21*
%TO.N,0*%
X172900000Y-142200000D03*
%TD*%
D15*
%TO.N,-5V*%
%TO.C,RV4*%
X162200000Y-105000000D03*
%TO.N,Net-(C4-Pad2)*%
X159660000Y-105000000D03*
%TO.N,+5V*%
X157120000Y-105000000D03*
%TD*%
D20*
%TO.N,0*%
%TO.C,C20*%
X181900000Y-142200000D03*
D21*
%TO.N,Net-(Q4-B)*%
X179900000Y-142200000D03*
%TD*%
D15*
%TO.N,-5V*%
%TO.C,RV1*%
X127700000Y-148850000D03*
%TO.N,Net-(C32-Pad2)*%
X127700000Y-146310000D03*
%TO.N,+5V*%
X127700000Y-143770000D03*
%TD*%
D20*
%TO.N,0*%
%TO.C,C36*%
X185700000Y-142200000D03*
D21*
%TO.N,-5V*%
X187700000Y-142200000D03*
%TD*%
D25*
%TO.N,0*%
X170212500Y-132100000D03*
X141400000Y-124200000D03*
X160500000Y-117500000D03*
X130500000Y-107600000D03*
X176000000Y-131500000D03*
X130100000Y-120200000D03*
X128500000Y-107600000D03*
X176000000Y-133100000D03*
X171900000Y-133700000D03*
X131500000Y-140000000D03*
X169100000Y-118000000D03*
X176400000Y-107100000D03*
X176300000Y-110500000D03*
X165900000Y-118100000D03*
X125600000Y-112800000D03*
X133300000Y-139600000D03*
X176300000Y-108800000D03*
X167500000Y-118100000D03*
X131900000Y-111700000D03*
X129700000Y-135500000D03*
X189700000Y-134600000D03*
X160800000Y-119600000D03*
X131308118Y-135550000D03*
X129500000Y-140000000D03*
%TO.N,+5V*%
X134000000Y-122950000D03*
X132350000Y-107650000D03*
%TO.N,-5V*%
X141300000Y-125800000D03*
X134250000Y-107700000D03*
X134000000Y-121100000D03*
X170600000Y-118000000D03*
%TO.N,Net-(C32-Pad2)*%
X133200000Y-135600000D03*
%TO.N,Earth*%
X136900000Y-145900000D03*
X135300000Y-145900000D03*
X165300000Y-148800000D03*
X140700000Y-139800000D03*
X141400000Y-150000000D03*
X142200000Y-149400000D03*
X156600000Y-146800000D03*
X165350000Y-146600000D03*
X147800000Y-150200000D03*
%TO.N,+BAT*%
X137800000Y-150000000D03*
X139800000Y-137800000D03*
%TO.N,-BAT*%
X148750000Y-145000000D03*
%TO.N,Net-(PS1-+Vin)*%
X162200000Y-150800000D03*
%TO.N,Net-(PS1--Vout)*%
X178100000Y-140400000D03*
%TO.N,Net-(C4-Pad2)*%
X163512500Y-118600000D03*
%TD*%
D26*
%TO.N,-5V*%
X173171751Y-118671751D02*
X185481735Y-130981735D01*
X171550000Y-118000000D02*
X170600000Y-118000000D01*
X186100000Y-132474359D02*
X186100000Y-137960000D01*
X186100000Y-132474359D02*
G75*
G03*
X185481717Y-130981753I-2110900J-41D01*
G01*
X171550000Y-118000000D02*
G75*
G02*
X173171750Y-118671752I0J-2293500D01*
G01*
%TD*%
%TA.AperFunction,Conductor*%
%TO.N,Earth*%
G36*
X149165507Y-134019685D02*
G01*
X149211262Y-134072489D01*
X149221206Y-134141647D01*
X149192181Y-134205203D01*
X149145921Y-134238561D01*
X149099771Y-134257676D01*
X149099762Y-134257681D01*
X148944092Y-134361697D01*
X148944088Y-134361700D01*
X148811700Y-134494088D01*
X148811697Y-134494092D01*
X148707681Y-134649762D01*
X148707676Y-134649771D01*
X148636027Y-134822748D01*
X148636025Y-134822756D01*
X148599500Y-135006379D01*
X148599500Y-135193620D01*
X148636025Y-135377243D01*
X148636027Y-135377251D01*
X148707676Y-135550228D01*
X148707681Y-135550237D01*
X148811697Y-135705907D01*
X148811700Y-135705911D01*
X148944088Y-135838299D01*
X148944092Y-135838302D01*
X149099762Y-135942318D01*
X149099768Y-135942321D01*
X149099769Y-135942322D01*
X149272749Y-136013973D01*
X149456379Y-136050499D01*
X149456383Y-136050500D01*
X149456384Y-136050500D01*
X151143617Y-136050500D01*
X151143618Y-136050499D01*
X151327251Y-136013973D01*
X151500231Y-135942322D01*
X151655908Y-135838302D01*
X151788302Y-135705908D01*
X151892322Y-135550231D01*
X151963973Y-135377251D01*
X152000500Y-135193616D01*
X152000500Y-135006384D01*
X151963973Y-134822749D01*
X151892322Y-134649769D01*
X151892319Y-134649764D01*
X151892318Y-134649762D01*
X151788302Y-134494092D01*
X151788299Y-134494088D01*
X151655911Y-134361700D01*
X151655907Y-134361697D01*
X151500237Y-134257681D01*
X151500228Y-134257676D01*
X151454079Y-134238561D01*
X151399676Y-134194720D01*
X151377611Y-134128426D01*
X151394890Y-134060726D01*
X151446028Y-134013116D01*
X151501532Y-134000000D01*
X153098468Y-134000000D01*
X153165507Y-134019685D01*
X153211262Y-134072489D01*
X153221206Y-134141647D01*
X153192181Y-134205203D01*
X153145921Y-134238561D01*
X153099771Y-134257676D01*
X153099762Y-134257681D01*
X152944092Y-134361697D01*
X152944088Y-134361700D01*
X152811700Y-134494088D01*
X152811697Y-134494092D01*
X152707681Y-134649762D01*
X152707676Y-134649771D01*
X152636027Y-134822748D01*
X152636025Y-134822756D01*
X152599500Y-135006379D01*
X152599500Y-135193620D01*
X152636025Y-135377243D01*
X152636027Y-135377251D01*
X152707676Y-135550228D01*
X152707681Y-135550237D01*
X152811697Y-135705907D01*
X152811700Y-135705911D01*
X152944088Y-135838299D01*
X152944092Y-135838302D01*
X153099762Y-135942318D01*
X153099768Y-135942321D01*
X153099769Y-135942322D01*
X153272749Y-136013973D01*
X153456379Y-136050499D01*
X153456383Y-136050500D01*
X153456384Y-136050500D01*
X155143617Y-136050500D01*
X155143618Y-136050499D01*
X155327251Y-136013973D01*
X155500231Y-135942322D01*
X155655908Y-135838302D01*
X155788302Y-135705908D01*
X155892322Y-135550231D01*
X155963973Y-135377251D01*
X156000500Y-135193616D01*
X156000500Y-135006384D01*
X155963973Y-134822749D01*
X155892322Y-134649769D01*
X155892319Y-134649764D01*
X155892318Y-134649762D01*
X155788302Y-134494092D01*
X155788299Y-134494088D01*
X155655911Y-134361700D01*
X155655907Y-134361697D01*
X155500237Y-134257681D01*
X155500228Y-134257676D01*
X155454079Y-134238561D01*
X155399676Y-134194720D01*
X155377611Y-134128426D01*
X155394890Y-134060726D01*
X155446028Y-134013116D01*
X155501532Y-134000000D01*
X162448638Y-134000000D01*
X162515677Y-134019685D01*
X162536319Y-134036319D01*
X164963681Y-136463681D01*
X164997166Y-136525004D01*
X165000000Y-136551362D01*
X165000000Y-145100000D01*
X173919823Y-148469711D01*
X173975579Y-148511817D01*
X173999720Y-148577383D01*
X174000000Y-148585709D01*
X174000000Y-151675500D01*
X173980315Y-151742539D01*
X173927511Y-151788294D01*
X173876000Y-151799500D01*
X133874000Y-151799500D01*
X133806961Y-151779815D01*
X133761206Y-151727011D01*
X133750000Y-151675500D01*
X133750000Y-149920943D01*
X137199500Y-149920943D01*
X137199500Y-150079056D01*
X137240423Y-150231783D01*
X137240426Y-150231790D01*
X137319475Y-150368709D01*
X137319479Y-150368714D01*
X137319480Y-150368716D01*
X137431284Y-150480520D01*
X137431286Y-150480521D01*
X137431290Y-150480524D01*
X137568209Y-150559573D01*
X137568216Y-150559577D01*
X137720943Y-150600500D01*
X137720945Y-150600500D01*
X137879055Y-150600500D01*
X137879057Y-150600500D01*
X138031784Y-150559577D01*
X138168716Y-150480520D01*
X138280520Y-150368716D01*
X138359577Y-150231784D01*
X138400500Y-150079057D01*
X138400500Y-149920943D01*
X138359577Y-149768216D01*
X138351898Y-149754916D01*
X138280524Y-149631290D01*
X138280518Y-149631282D01*
X138168717Y-149519481D01*
X138168709Y-149519475D01*
X138031790Y-149440426D01*
X138031786Y-149440424D01*
X138031784Y-149440423D01*
X137879057Y-149399500D01*
X137720943Y-149399500D01*
X137568216Y-149440423D01*
X137568209Y-149440426D01*
X137431290Y-149519475D01*
X137431282Y-149519481D01*
X137319481Y-149631282D01*
X137319475Y-149631290D01*
X137240426Y-149768209D01*
X137240423Y-149768216D01*
X137199500Y-149920943D01*
X133750000Y-149920943D01*
X133750000Y-149824500D01*
X133769685Y-149757461D01*
X133822489Y-149711706D01*
X133874000Y-149700500D01*
X134749750Y-149700500D01*
X134749751Y-149700499D01*
X134764568Y-149697552D01*
X134808229Y-149688868D01*
X134808229Y-149688867D01*
X134808231Y-149688867D01*
X134874552Y-149644552D01*
X134918867Y-149578231D01*
X134918867Y-149578229D01*
X134918868Y-149578229D01*
X134930499Y-149519752D01*
X134930500Y-149519750D01*
X134930500Y-148513389D01*
X135269500Y-148513389D01*
X135269500Y-148686610D01*
X135291564Y-148825922D01*
X135296598Y-148857701D01*
X135350127Y-149022445D01*
X135428768Y-149176788D01*
X135530586Y-149316928D01*
X135653072Y-149439414D01*
X135793212Y-149541232D01*
X135947555Y-149619873D01*
X136112299Y-149673402D01*
X136283389Y-149700500D01*
X136283390Y-149700500D01*
X136456610Y-149700500D01*
X136456611Y-149700500D01*
X136627701Y-149673402D01*
X136792445Y-149619873D01*
X136946788Y-149541232D01*
X137086928Y-149439414D01*
X137209414Y-149316928D01*
X137311232Y-149176788D01*
X137389873Y-149022445D01*
X137443402Y-148857701D01*
X137470500Y-148686611D01*
X137470500Y-148513389D01*
X137443402Y-148342299D01*
X137389873Y-148177555D01*
X137311232Y-148023212D01*
X137292683Y-147997682D01*
X153700000Y-147997682D01*
X153700000Y-148202317D01*
X153732009Y-148404417D01*
X153795244Y-148599031D01*
X153888141Y-148781350D01*
X153888147Y-148781359D01*
X153920523Y-148825921D01*
X153920524Y-148825922D01*
X154600000Y-148146446D01*
X154600000Y-148152661D01*
X154627259Y-148254394D01*
X154679920Y-148345606D01*
X154754394Y-148420080D01*
X154845606Y-148472741D01*
X154947339Y-148500000D01*
X154953553Y-148500000D01*
X154390372Y-149063181D01*
X154329049Y-149096666D01*
X154302691Y-149099500D01*
X154180247Y-149099500D01*
X154121770Y-149111131D01*
X154121769Y-149111132D01*
X154055447Y-149155447D01*
X154011132Y-149221769D01*
X154011131Y-149221770D01*
X153999500Y-149280247D01*
X153999500Y-150919752D01*
X154011131Y-150978229D01*
X154011132Y-150978230D01*
X154055447Y-151044552D01*
X154121769Y-151088867D01*
X154121770Y-151088868D01*
X154180247Y-151100499D01*
X154180250Y-151100500D01*
X154180252Y-151100500D01*
X155819750Y-151100500D01*
X155819751Y-151100499D01*
X155834568Y-151097552D01*
X155878229Y-151088868D01*
X155878229Y-151088867D01*
X155878231Y-151088867D01*
X155944552Y-151044552D01*
X155988867Y-150978231D01*
X155988867Y-150978229D01*
X155988868Y-150978229D01*
X156000499Y-150919752D01*
X156000500Y-150919750D01*
X156000500Y-150720943D01*
X161599500Y-150720943D01*
X161599500Y-150879057D01*
X161626074Y-150978230D01*
X161640423Y-151031783D01*
X161640426Y-151031790D01*
X161719475Y-151168709D01*
X161719479Y-151168714D01*
X161719480Y-151168716D01*
X161831284Y-151280520D01*
X161831286Y-151280521D01*
X161831290Y-151280524D01*
X161888873Y-151313769D01*
X161968216Y-151359577D01*
X162120943Y-151400500D01*
X162120945Y-151400500D01*
X162279055Y-151400500D01*
X162279057Y-151400500D01*
X162431784Y-151359577D01*
X162568716Y-151280520D01*
X162680520Y-151168716D01*
X162759577Y-151031784D01*
X162800500Y-150879057D01*
X162800500Y-150720943D01*
X162759577Y-150568216D01*
X162715018Y-150491037D01*
X162680524Y-150431290D01*
X162680518Y-150431282D01*
X162568717Y-150319481D01*
X162568709Y-150319475D01*
X162431790Y-150240426D01*
X162431786Y-150240424D01*
X162431784Y-150240423D01*
X162279057Y-150199500D01*
X162120943Y-150199500D01*
X161968216Y-150240423D01*
X161968209Y-150240426D01*
X161831290Y-150319475D01*
X161831282Y-150319481D01*
X161719481Y-150431282D01*
X161719475Y-150431290D01*
X161640426Y-150568209D01*
X161640423Y-150568216D01*
X161599500Y-150720943D01*
X156000500Y-150720943D01*
X156000500Y-149280249D01*
X156000499Y-149280247D01*
X155988868Y-149221770D01*
X155988867Y-149221769D01*
X155983042Y-149213051D01*
X155944552Y-149155447D01*
X155936770Y-149150247D01*
X168204500Y-149150247D01*
X168204500Y-151039752D01*
X168216131Y-151098229D01*
X168216132Y-151098230D01*
X168260447Y-151164552D01*
X168326769Y-151208867D01*
X168326770Y-151208868D01*
X168385247Y-151220499D01*
X168385250Y-151220500D01*
X168385252Y-151220500D01*
X170274750Y-151220500D01*
X170274751Y-151220499D01*
X170289568Y-151217552D01*
X170333229Y-151208868D01*
X170333229Y-151208867D01*
X170333231Y-151208867D01*
X170399552Y-151164552D01*
X170399553Y-151164551D01*
X170410738Y-151147813D01*
X170431856Y-151116205D01*
X170443867Y-151098231D01*
X170443867Y-151098229D01*
X170443868Y-151098229D01*
X170455499Y-151039752D01*
X170455500Y-151039750D01*
X170455500Y-150954095D01*
X170475185Y-150887056D01*
X170527989Y-150841301D01*
X170597147Y-150831357D01*
X170660703Y-150860382D01*
X170679819Y-150881210D01*
X170701034Y-150910411D01*
X171448274Y-150163171D01*
X171473963Y-150259044D01*
X171529916Y-150355956D01*
X171609044Y-150435084D01*
X171705956Y-150491037D01*
X171801828Y-150516725D01*
X171054587Y-151263964D01*
X171123136Y-151313768D01*
X171322989Y-151415599D01*
X171322992Y-151415600D01*
X171536310Y-151484910D01*
X171757851Y-151520000D01*
X171982149Y-151520000D01*
X172203689Y-151484910D01*
X172417007Y-151415600D01*
X172417010Y-151415599D01*
X172616862Y-151313769D01*
X172685410Y-151263964D01*
X172685411Y-151263964D01*
X171938171Y-150516725D01*
X172034044Y-150491037D01*
X172130956Y-150435084D01*
X172210084Y-150355956D01*
X172266037Y-150259044D01*
X172291725Y-150163172D01*
X173038964Y-150910411D01*
X173038964Y-150910410D01*
X173088769Y-150841862D01*
X173190599Y-150642010D01*
X173190600Y-150642007D01*
X173259910Y-150428689D01*
X173295000Y-150207149D01*
X173295000Y-149982850D01*
X173259910Y-149761310D01*
X173190600Y-149547992D01*
X173190599Y-149547989D01*
X173088768Y-149348136D01*
X173038964Y-149279588D01*
X173038964Y-149279587D01*
X172291725Y-150026827D01*
X172266037Y-149930956D01*
X172210084Y-149834044D01*
X172130956Y-149754916D01*
X172034044Y-149698963D01*
X171938172Y-149673274D01*
X172685411Y-148926034D01*
X172685410Y-148926032D01*
X172616866Y-148876233D01*
X172417010Y-148774400D01*
X172417007Y-148774399D01*
X172203689Y-148705089D01*
X171982149Y-148670000D01*
X171757851Y-148670000D01*
X171536310Y-148705089D01*
X171322992Y-148774399D01*
X171322989Y-148774400D01*
X171123140Y-148876229D01*
X171054588Y-148926034D01*
X171801828Y-149673274D01*
X171705956Y-149698963D01*
X171609044Y-149754916D01*
X171529916Y-149834044D01*
X171473963Y-149930956D01*
X171448274Y-150026828D01*
X170701034Y-149279588D01*
X170701033Y-149279588D01*
X170679818Y-149308789D01*
X170624488Y-149351455D01*
X170554875Y-149357434D01*
X170493080Y-149324828D01*
X170458723Y-149263990D01*
X170455500Y-149235904D01*
X170455500Y-149150249D01*
X170455499Y-149150247D01*
X170443868Y-149091771D01*
X170435879Y-149079815D01*
X170408658Y-149039075D01*
X170399552Y-149025447D01*
X170333230Y-148981132D01*
X170333229Y-148981131D01*
X170274752Y-148969500D01*
X170274748Y-148969500D01*
X168385252Y-148969500D01*
X168385247Y-148969500D01*
X168326770Y-148981131D01*
X168326769Y-148981132D01*
X168260447Y-149025447D01*
X168216132Y-149091769D01*
X168216131Y-149091770D01*
X168204500Y-149150247D01*
X155936770Y-149150247D01*
X155878230Y-149111132D01*
X155878229Y-149111131D01*
X155819752Y-149099500D01*
X155819748Y-149099500D01*
X155697309Y-149099500D01*
X155630270Y-149079815D01*
X155609628Y-149063181D01*
X155046447Y-148500000D01*
X155052661Y-148500000D01*
X155154394Y-148472741D01*
X155245606Y-148420080D01*
X155320080Y-148345606D01*
X155372741Y-148254394D01*
X155400000Y-148152661D01*
X155400000Y-148146448D01*
X156079474Y-148825922D01*
X156079474Y-148825921D01*
X156111859Y-148781349D01*
X156204755Y-148599031D01*
X156267990Y-148404417D01*
X156300000Y-148202317D01*
X156300000Y-147997682D01*
X156267990Y-147795582D01*
X156204755Y-147600968D01*
X156111859Y-147418650D01*
X156079474Y-147374077D01*
X156079474Y-147374076D01*
X155400000Y-148053551D01*
X155400000Y-148047339D01*
X155372741Y-147945606D01*
X155320080Y-147854394D01*
X155245606Y-147779920D01*
X155154394Y-147727259D01*
X155052661Y-147700000D01*
X155046446Y-147700000D01*
X155725922Y-147020524D01*
X155725921Y-147020523D01*
X155681359Y-146988147D01*
X155681350Y-146988141D01*
X155499031Y-146895244D01*
X155304417Y-146832009D01*
X155102317Y-146800000D01*
X154897683Y-146800000D01*
X154695582Y-146832009D01*
X154500968Y-146895244D01*
X154318644Y-146988143D01*
X154274077Y-147020523D01*
X154274077Y-147020524D01*
X154953554Y-147700000D01*
X154947339Y-147700000D01*
X154845606Y-147727259D01*
X154754394Y-147779920D01*
X154679920Y-147854394D01*
X154627259Y-147945606D01*
X154600000Y-148047339D01*
X154600000Y-148053553D01*
X153920524Y-147374077D01*
X153920523Y-147374077D01*
X153888143Y-147418644D01*
X153795244Y-147600968D01*
X153732009Y-147795582D01*
X153700000Y-147997682D01*
X137292683Y-147997682D01*
X137209414Y-147883072D01*
X137086928Y-147760586D01*
X136946788Y-147658768D01*
X136792445Y-147580127D01*
X136627701Y-147526598D01*
X136627699Y-147526597D01*
X136627698Y-147526597D01*
X136496271Y-147505781D01*
X136456611Y-147499500D01*
X136283389Y-147499500D01*
X136243728Y-147505781D01*
X136112302Y-147526597D01*
X135947552Y-147580128D01*
X135793211Y-147658768D01*
X135736461Y-147700000D01*
X135653072Y-147760586D01*
X135653070Y-147760588D01*
X135653069Y-147760588D01*
X135530588Y-147883069D01*
X135530588Y-147883070D01*
X135530586Y-147883072D01*
X135486859Y-147943256D01*
X135428768Y-148023211D01*
X135350128Y-148177552D01*
X135296597Y-148342302D01*
X135269500Y-148513389D01*
X134930500Y-148513389D01*
X134930500Y-147680249D01*
X134930499Y-147680247D01*
X134918868Y-147621770D01*
X134918867Y-147621769D01*
X134874552Y-147555447D01*
X134808230Y-147511132D01*
X134808229Y-147511131D01*
X134749752Y-147499500D01*
X134749748Y-147499500D01*
X133874000Y-147499500D01*
X133806961Y-147479815D01*
X133761206Y-147427011D01*
X133750000Y-147375500D01*
X133750000Y-144920943D01*
X148149500Y-144920943D01*
X148149500Y-145079056D01*
X148190423Y-145231783D01*
X148190426Y-145231790D01*
X148269475Y-145368709D01*
X148269479Y-145368714D01*
X148269480Y-145368716D01*
X148381284Y-145480520D01*
X148381286Y-145480521D01*
X148381290Y-145480524D01*
X148518209Y-145559573D01*
X148518216Y-145559577D01*
X148670943Y-145600500D01*
X148670945Y-145600500D01*
X148829055Y-145600500D01*
X148829057Y-145600500D01*
X148981784Y-145559577D01*
X149118716Y-145480520D01*
X149230520Y-145368716D01*
X149309577Y-145231784D01*
X149350500Y-145079057D01*
X149350500Y-144920943D01*
X149309577Y-144768216D01*
X149277913Y-144713372D01*
X149230524Y-144631290D01*
X149230518Y-144631282D01*
X149118717Y-144519481D01*
X149118709Y-144519475D01*
X148981790Y-144440426D01*
X148981786Y-144440424D01*
X148981784Y-144440423D01*
X148829057Y-144399500D01*
X148670943Y-144399500D01*
X148518216Y-144440423D01*
X148518209Y-144440426D01*
X148381290Y-144519475D01*
X148381282Y-144519481D01*
X148269481Y-144631282D01*
X148269475Y-144631290D01*
X148190426Y-144768209D01*
X148190423Y-144768216D01*
X148149500Y-144920943D01*
X133750000Y-144920943D01*
X133750000Y-144803020D01*
X133769685Y-144735981D01*
X133788331Y-144713372D01*
X138071328Y-140620730D01*
X142699500Y-140620730D01*
X142699500Y-141979269D01*
X142702353Y-142009699D01*
X142702353Y-142009701D01*
X142747206Y-142137880D01*
X142747207Y-142137882D01*
X142827850Y-142247150D01*
X142937118Y-142327793D01*
X142979845Y-142342744D01*
X143065299Y-142372646D01*
X143095730Y-142375500D01*
X143095734Y-142375500D01*
X143904270Y-142375500D01*
X143934699Y-142372646D01*
X143934701Y-142372646D01*
X143998790Y-142350219D01*
X144062882Y-142327793D01*
X144172150Y-142247150D01*
X144252793Y-142137882D01*
X144275219Y-142073790D01*
X144297646Y-142009701D01*
X144297646Y-142009699D01*
X144300500Y-141979269D01*
X144300500Y-140946153D01*
X144699500Y-140946153D01*
X144699500Y-141653846D01*
X144730261Y-141808489D01*
X144730264Y-141808501D01*
X144790602Y-141954172D01*
X144790609Y-141954185D01*
X144878210Y-142085288D01*
X144878213Y-142085292D01*
X144989707Y-142196786D01*
X144989711Y-142196789D01*
X145120814Y-142284390D01*
X145120827Y-142284397D01*
X145225596Y-142327793D01*
X145266503Y-142344737D01*
X145406810Y-142372646D01*
X145421153Y-142375499D01*
X145421156Y-142375500D01*
X145421158Y-142375500D01*
X145578844Y-142375500D01*
X145578845Y-142375499D01*
X145733497Y-142344737D01*
X145879179Y-142284394D01*
X146010289Y-142196789D01*
X146121789Y-142085289D01*
X146209394Y-141954179D01*
X146269737Y-141808497D01*
X146300500Y-141653842D01*
X146300500Y-140946158D01*
X146300500Y-140946155D01*
X146300499Y-140946153D01*
X146699500Y-140946153D01*
X146699500Y-141653846D01*
X146730261Y-141808489D01*
X146730264Y-141808501D01*
X146790602Y-141954172D01*
X146790609Y-141954185D01*
X146878210Y-142085288D01*
X146878213Y-142085292D01*
X146989707Y-142196786D01*
X146989711Y-142196789D01*
X147120814Y-142284390D01*
X147120827Y-142284397D01*
X147225596Y-142327793D01*
X147266503Y-142344737D01*
X147406810Y-142372646D01*
X147421153Y-142375499D01*
X147421156Y-142375500D01*
X147421158Y-142375500D01*
X147578844Y-142375500D01*
X147578845Y-142375499D01*
X147733497Y-142344737D01*
X147879179Y-142284394D01*
X148010289Y-142196789D01*
X148121789Y-142085289D01*
X148209394Y-141954179D01*
X148209395Y-141954176D01*
X148209397Y-141954173D01*
X148224904Y-141916735D01*
X148268744Y-141862331D01*
X148335038Y-141840266D01*
X148402738Y-141857545D01*
X148450348Y-141908682D01*
X148457396Y-141925869D01*
X148480591Y-141997255D01*
X148559195Y-142151524D01*
X148660967Y-142291602D01*
X148783397Y-142414032D01*
X148923475Y-142515804D01*
X149077744Y-142594408D01*
X149242415Y-142647914D01*
X149242414Y-142647914D01*
X149249999Y-142649115D01*
X149250000Y-142649114D01*
X149250000Y-141580330D01*
X149269745Y-141600075D01*
X149355255Y-141649444D01*
X149450630Y-141675000D01*
X149549370Y-141675000D01*
X149644745Y-141649444D01*
X149730255Y-141600075D01*
X149750000Y-141580330D01*
X149750000Y-142649115D01*
X149757584Y-142647914D01*
X149922255Y-142594408D01*
X150076524Y-142515804D01*
X150216602Y-142414032D01*
X150339032Y-142291602D01*
X150440804Y-142151524D01*
X150519408Y-141997257D01*
X150572914Y-141832584D01*
X150600000Y-141661571D01*
X150600000Y-141581902D01*
X156149500Y-141581902D01*
X156149500Y-141818097D01*
X156186446Y-142051368D01*
X156259433Y-142275996D01*
X156329767Y-142414032D01*
X156366657Y-142486433D01*
X156505483Y-142677510D01*
X156672490Y-142844517D01*
X156863567Y-142983343D01*
X156935016Y-143019748D01*
X157074003Y-143090566D01*
X157074005Y-143090566D01*
X157074008Y-143090568D01*
X157194412Y-143129689D01*
X157298631Y-143163553D01*
X157531903Y-143200500D01*
X157531908Y-143200500D01*
X157768097Y-143200500D01*
X158001368Y-143163553D01*
X158005991Y-143162051D01*
X158225992Y-143090568D01*
X158436433Y-142983343D01*
X158627510Y-142844517D01*
X158794517Y-142677510D01*
X158933343Y-142486433D01*
X159040568Y-142275992D01*
X159113553Y-142051368D01*
X159122124Y-141997255D01*
X159150500Y-141818097D01*
X159150500Y-141581902D01*
X159649500Y-141581902D01*
X159649500Y-141818097D01*
X159686446Y-142051368D01*
X159759433Y-142275996D01*
X159829767Y-142414032D01*
X159866657Y-142486433D01*
X160005483Y-142677510D01*
X160172490Y-142844517D01*
X160363567Y-142983343D01*
X160435016Y-143019748D01*
X160574003Y-143090566D01*
X160574005Y-143090566D01*
X160574008Y-143090568D01*
X160694412Y-143129689D01*
X160798631Y-143163553D01*
X161031903Y-143200500D01*
X161031908Y-143200500D01*
X161268097Y-143200500D01*
X161501368Y-143163553D01*
X161505991Y-143162051D01*
X161725992Y-143090568D01*
X161936433Y-142983343D01*
X162127510Y-142844517D01*
X162294517Y-142677510D01*
X162433343Y-142486433D01*
X162540568Y-142275992D01*
X162613553Y-142051368D01*
X162622124Y-141997255D01*
X162650500Y-141818097D01*
X162650500Y-141581902D01*
X162613553Y-141348631D01*
X162540566Y-141124003D01*
X162433342Y-140913566D01*
X162294517Y-140722490D01*
X162127510Y-140555483D01*
X161936433Y-140416657D01*
X161910042Y-140403210D01*
X161725996Y-140309433D01*
X161501368Y-140236446D01*
X161268097Y-140199500D01*
X161268092Y-140199500D01*
X161031908Y-140199500D01*
X161031903Y-140199500D01*
X160798631Y-140236446D01*
X160574003Y-140309433D01*
X160363566Y-140416657D01*
X160300995Y-140462118D01*
X160172490Y-140555483D01*
X160172488Y-140555485D01*
X160172487Y-140555485D01*
X160005485Y-140722487D01*
X160005485Y-140722488D01*
X160005483Y-140722490D01*
X159998715Y-140731806D01*
X159866657Y-140913566D01*
X159759433Y-141124003D01*
X159686446Y-141348631D01*
X159649500Y-141581902D01*
X159150500Y-141581902D01*
X159113553Y-141348631D01*
X159040566Y-141124003D01*
X158933342Y-140913566D01*
X158794517Y-140722490D01*
X158627510Y-140555483D01*
X158436433Y-140416657D01*
X158410042Y-140403210D01*
X158225996Y-140309433D01*
X158001368Y-140236446D01*
X157768097Y-140199500D01*
X157768092Y-140199500D01*
X157531908Y-140199500D01*
X157531903Y-140199500D01*
X157298631Y-140236446D01*
X157074003Y-140309433D01*
X156863566Y-140416657D01*
X156800995Y-140462118D01*
X156672490Y-140555483D01*
X156672488Y-140555485D01*
X156672487Y-140555485D01*
X156505485Y-140722487D01*
X156505485Y-140722488D01*
X156505483Y-140722490D01*
X156498715Y-140731806D01*
X156366657Y-140913566D01*
X156259433Y-141124003D01*
X156186446Y-141348631D01*
X156149500Y-141581902D01*
X150600000Y-141581902D01*
X150600000Y-141550000D01*
X149780330Y-141550000D01*
X149800075Y-141530255D01*
X149849444Y-141444745D01*
X149875000Y-141349370D01*
X149875000Y-141250630D01*
X149849444Y-141155255D01*
X149800075Y-141069745D01*
X149780330Y-141050000D01*
X150600000Y-141050000D01*
X150600000Y-140938428D01*
X150572914Y-140767415D01*
X150519408Y-140602742D01*
X150440804Y-140448475D01*
X150339032Y-140308397D01*
X150216602Y-140185967D01*
X150076524Y-140084195D01*
X149922257Y-140005591D01*
X149757589Y-139952087D01*
X149757581Y-139952085D01*
X149750000Y-139950884D01*
X149750000Y-141019670D01*
X149730255Y-140999925D01*
X149644745Y-140950556D01*
X149549370Y-140925000D01*
X149450630Y-140925000D01*
X149355255Y-140950556D01*
X149269745Y-140999925D01*
X149250000Y-141019670D01*
X149250000Y-139950884D01*
X149249999Y-139950884D01*
X149242418Y-139952085D01*
X149242410Y-139952087D01*
X149077742Y-140005591D01*
X148923475Y-140084195D01*
X148783397Y-140185967D01*
X148660967Y-140308397D01*
X148559195Y-140448475D01*
X148480591Y-140602742D01*
X148457396Y-140674131D01*
X148417958Y-140731806D01*
X148353599Y-140759004D01*
X148284753Y-140747089D01*
X148233277Y-140699845D01*
X148224904Y-140683265D01*
X148209395Y-140645823D01*
X148209390Y-140645814D01*
X148121789Y-140514711D01*
X148121786Y-140514707D01*
X148010292Y-140403213D01*
X148010288Y-140403210D01*
X147879185Y-140315609D01*
X147879172Y-140315602D01*
X147733501Y-140255264D01*
X147733489Y-140255261D01*
X147578845Y-140224500D01*
X147578842Y-140224500D01*
X147421158Y-140224500D01*
X147421155Y-140224500D01*
X147266510Y-140255261D01*
X147266498Y-140255264D01*
X147120827Y-140315602D01*
X147120814Y-140315609D01*
X146989711Y-140403210D01*
X146989707Y-140403213D01*
X146878213Y-140514707D01*
X146878210Y-140514711D01*
X146790609Y-140645814D01*
X146790602Y-140645827D01*
X146730264Y-140791498D01*
X146730261Y-140791510D01*
X146699500Y-140946153D01*
X146300499Y-140946153D01*
X146269738Y-140791510D01*
X146269737Y-140791503D01*
X146269735Y-140791498D01*
X146209397Y-140645827D01*
X146209390Y-140645814D01*
X146121789Y-140514711D01*
X146121786Y-140514707D01*
X146010292Y-140403213D01*
X146010288Y-140403210D01*
X145879185Y-140315609D01*
X145879172Y-140315602D01*
X145733501Y-140255264D01*
X145733489Y-140255261D01*
X145578845Y-140224500D01*
X145578842Y-140224500D01*
X145421158Y-140224500D01*
X145421155Y-140224500D01*
X145266510Y-140255261D01*
X145266498Y-140255264D01*
X145120827Y-140315602D01*
X145120814Y-140315609D01*
X144989711Y-140403210D01*
X144989707Y-140403213D01*
X144878213Y-140514707D01*
X144878210Y-140514711D01*
X144790609Y-140645814D01*
X144790602Y-140645827D01*
X144730264Y-140791498D01*
X144730261Y-140791510D01*
X144699500Y-140946153D01*
X144300500Y-140946153D01*
X144300500Y-140620730D01*
X144297646Y-140590300D01*
X144297646Y-140590298D01*
X144252793Y-140462119D01*
X144252792Y-140462117D01*
X144209319Y-140403213D01*
X144172150Y-140352850D01*
X144062882Y-140272207D01*
X144062880Y-140272206D01*
X143934700Y-140227353D01*
X143904270Y-140224500D01*
X143904266Y-140224500D01*
X143095734Y-140224500D01*
X143095730Y-140224500D01*
X143065300Y-140227353D01*
X143065298Y-140227353D01*
X142937119Y-140272206D01*
X142937117Y-140272207D01*
X142827850Y-140352850D01*
X142747207Y-140462117D01*
X142747206Y-140462119D01*
X142702353Y-140590298D01*
X142702353Y-140590300D01*
X142699500Y-140620730D01*
X138071328Y-140620730D01*
X144577165Y-134404041D01*
X144639231Y-134371960D01*
X144708791Y-134378527D01*
X144763759Y-134421658D01*
X144786682Y-134487660D01*
X144770283Y-134555578D01*
X144765932Y-134562584D01*
X144707680Y-134649764D01*
X144707676Y-134649771D01*
X144636027Y-134822748D01*
X144636025Y-134822756D01*
X144599500Y-135006379D01*
X144599500Y-135193620D01*
X144636025Y-135377243D01*
X144636027Y-135377251D01*
X144707676Y-135550228D01*
X144707681Y-135550237D01*
X144811697Y-135705907D01*
X144811700Y-135705911D01*
X144944088Y-135838299D01*
X144944092Y-135838302D01*
X145099762Y-135942318D01*
X145099768Y-135942321D01*
X145099769Y-135942322D01*
X145272749Y-136013973D01*
X145456379Y-136050499D01*
X145456383Y-136050500D01*
X145456384Y-136050500D01*
X147143617Y-136050500D01*
X147143618Y-136050499D01*
X147327251Y-136013973D01*
X147500231Y-135942322D01*
X147655908Y-135838302D01*
X147788302Y-135705908D01*
X147892322Y-135550231D01*
X147963973Y-135377251D01*
X148000500Y-135193616D01*
X148000500Y-135006384D01*
X147963973Y-134822749D01*
X147892322Y-134649769D01*
X147892319Y-134649764D01*
X147892318Y-134649762D01*
X147788302Y-134494092D01*
X147788299Y-134494088D01*
X147655911Y-134361700D01*
X147655907Y-134361697D01*
X147500237Y-134257681D01*
X147500228Y-134257676D01*
X147454079Y-134238561D01*
X147399676Y-134194720D01*
X147377611Y-134128426D01*
X147394890Y-134060726D01*
X147446028Y-134013116D01*
X147501532Y-134000000D01*
X149098468Y-134000000D01*
X149165507Y-134019685D01*
G37*
%TD.AperFunction*%
%TD*%
%TA.AperFunction,Conductor*%
%TO.N,0*%
G36*
X196003032Y-100200649D02*
G01*
X196067797Y-100203830D01*
X196366338Y-100218497D01*
X196378440Y-100219689D01*
X196735230Y-100272613D01*
X196747140Y-100274982D01*
X197097046Y-100362629D01*
X197108663Y-100366154D01*
X197448275Y-100487669D01*
X197459497Y-100492317D01*
X197785582Y-100646543D01*
X197796290Y-100652267D01*
X197984308Y-100764961D01*
X198105659Y-100837696D01*
X198115777Y-100844456D01*
X198405488Y-101059321D01*
X198414894Y-101067041D01*
X198682146Y-101309264D01*
X198690735Y-101317853D01*
X198894324Y-101542479D01*
X198932958Y-101585105D01*
X198940678Y-101594511D01*
X199155543Y-101884222D01*
X199162303Y-101894340D01*
X199347725Y-102203697D01*
X199353462Y-102214429D01*
X199507679Y-102540495D01*
X199512335Y-102551737D01*
X199633840Y-102891319D01*
X199637373Y-102902964D01*
X199725014Y-103252846D01*
X199727388Y-103264782D01*
X199780309Y-103621555D01*
X199781502Y-103633664D01*
X199799351Y-103996967D01*
X199799500Y-104003052D01*
X199799500Y-147996947D01*
X199799351Y-148003032D01*
X199781502Y-148366335D01*
X199780309Y-148378444D01*
X199727388Y-148735217D01*
X199725014Y-148747153D01*
X199637373Y-149097035D01*
X199633840Y-149108680D01*
X199512335Y-149448262D01*
X199507679Y-149459504D01*
X199353462Y-149785570D01*
X199347725Y-149796302D01*
X199162303Y-150105659D01*
X199155543Y-150115777D01*
X198940678Y-150405488D01*
X198932958Y-150414894D01*
X198690743Y-150682138D01*
X198682138Y-150690743D01*
X198414894Y-150932958D01*
X198405488Y-150940678D01*
X198115777Y-151155543D01*
X198105659Y-151162303D01*
X197796302Y-151347725D01*
X197785570Y-151353462D01*
X197459504Y-151507679D01*
X197448262Y-151512335D01*
X197108680Y-151633840D01*
X197097035Y-151637373D01*
X196747153Y-151725014D01*
X196735217Y-151727388D01*
X196378444Y-151780309D01*
X196366335Y-151781502D01*
X196003033Y-151799351D01*
X195996948Y-151799500D01*
X176449842Y-151799500D01*
X176382803Y-151779815D01*
X176371177Y-151771353D01*
X176302333Y-151714854D01*
X176285145Y-151697666D01*
X176232764Y-151633840D01*
X176176276Y-151565008D01*
X176162772Y-151544798D01*
X176145420Y-151512335D01*
X176081877Y-151393453D01*
X176072575Y-151370998D01*
X176067256Y-151353462D01*
X176022757Y-151206769D01*
X176018018Y-151182941D01*
X176005202Y-151052817D01*
X176018221Y-150984172D01*
X176066286Y-150933462D01*
X176134137Y-150916787D01*
X176200231Y-150939443D01*
X176216286Y-150952983D01*
X176216786Y-150953483D01*
X176360110Y-151057614D01*
X176421447Y-151088867D01*
X176517957Y-151138042D01*
X176517960Y-151138043D01*
X176602201Y-151165414D01*
X176686445Y-151192786D01*
X176861421Y-151220500D01*
X176861422Y-151220500D01*
X177038578Y-151220500D01*
X177038579Y-151220500D01*
X177213555Y-151192786D01*
X177382042Y-151138042D01*
X177539890Y-151057614D01*
X177683214Y-150953483D01*
X177808483Y-150828214D01*
X177912614Y-150684890D01*
X177942011Y-150627194D01*
X177989984Y-150576398D01*
X178057805Y-150559602D01*
X178123940Y-150582138D01*
X178167392Y-150636853D01*
X178168337Y-150639442D01*
X178169400Y-150642010D01*
X178271233Y-150841866D01*
X178321032Y-150910410D01*
X178321034Y-150910411D01*
X179068274Y-150163171D01*
X179093963Y-150259044D01*
X179149916Y-150355956D01*
X179229044Y-150435084D01*
X179325956Y-150491037D01*
X179421828Y-150516725D01*
X178674587Y-151263964D01*
X178743136Y-151313768D01*
X178942989Y-151415599D01*
X178942992Y-151415600D01*
X179156310Y-151484910D01*
X179377851Y-151520000D01*
X179602149Y-151520000D01*
X179823689Y-151484910D01*
X180037007Y-151415600D01*
X180037010Y-151415599D01*
X180236862Y-151313769D01*
X180305410Y-151263964D01*
X180305411Y-151263964D01*
X179558171Y-150516725D01*
X179654044Y-150491037D01*
X179750956Y-150435084D01*
X179830084Y-150355956D01*
X179886037Y-150259044D01*
X179911725Y-150163171D01*
X180658964Y-150910411D01*
X180658964Y-150910410D01*
X180708769Y-150841862D01*
X180810599Y-150642010D01*
X180812463Y-150637510D01*
X180814301Y-150638271D01*
X180848974Y-150587524D01*
X180913322Y-150560302D01*
X180982173Y-150572190D01*
X181033666Y-150619415D01*
X181037985Y-150627187D01*
X181067386Y-150684890D01*
X181171517Y-150828214D01*
X181296786Y-150953483D01*
X181440110Y-151057614D01*
X181501447Y-151088867D01*
X181597957Y-151138042D01*
X181597960Y-151138043D01*
X181682201Y-151165414D01*
X181766445Y-151192786D01*
X181941421Y-151220500D01*
X181941422Y-151220500D01*
X182118578Y-151220500D01*
X182118579Y-151220500D01*
X182293555Y-151192786D01*
X182462042Y-151138042D01*
X182619890Y-151057614D01*
X182763214Y-150953483D01*
X182888483Y-150828214D01*
X182992614Y-150684890D01*
X183073042Y-150527042D01*
X183127786Y-150358555D01*
X183155500Y-150183579D01*
X183155500Y-150006421D01*
X183127786Y-149831445D01*
X183096491Y-149735127D01*
X183073043Y-149662960D01*
X183073042Y-149662957D01*
X183029871Y-149578231D01*
X182992614Y-149505110D01*
X182888483Y-149361786D01*
X182763214Y-149236517D01*
X182619890Y-149132386D01*
X182462042Y-149051957D01*
X182462039Y-149051956D01*
X182293556Y-148997214D01*
X182192025Y-148981133D01*
X182118579Y-148969500D01*
X181941421Y-148969500D01*
X181883095Y-148978738D01*
X181766443Y-148997214D01*
X181597960Y-149051956D01*
X181597957Y-149051957D01*
X181440109Y-149132386D01*
X181378996Y-149176788D01*
X181296786Y-149236517D01*
X181296784Y-149236519D01*
X181296783Y-149236519D01*
X181171519Y-149361783D01*
X181171519Y-149361784D01*
X181171517Y-149361786D01*
X181144116Y-149399500D01*
X181067384Y-149505111D01*
X181037987Y-149562807D01*
X180990013Y-149613602D01*
X180922192Y-149630397D01*
X180856057Y-149607859D01*
X180812606Y-149553144D01*
X180811660Y-149550552D01*
X180810599Y-149547989D01*
X180708768Y-149348136D01*
X180658964Y-149279588D01*
X180658964Y-149279587D01*
X179911725Y-150026827D01*
X179886037Y-149930956D01*
X179830084Y-149834044D01*
X179750956Y-149754916D01*
X179654044Y-149698963D01*
X179558172Y-149673274D01*
X180305411Y-148926034D01*
X180305410Y-148926032D01*
X180236866Y-148876233D01*
X180037010Y-148774400D01*
X180037007Y-148774399D01*
X179823689Y-148705089D01*
X179602149Y-148670000D01*
X179377851Y-148670000D01*
X179156310Y-148705089D01*
X178942992Y-148774399D01*
X178942989Y-148774400D01*
X178743140Y-148876229D01*
X178674588Y-148926034D01*
X179421828Y-149673274D01*
X179325956Y-149698963D01*
X179229044Y-149754916D01*
X179149916Y-149834044D01*
X179093963Y-149930956D01*
X179068274Y-150026828D01*
X178321034Y-149279588D01*
X178271229Y-149348140D01*
X178169400Y-149547989D01*
X178167537Y-149552490D01*
X178165717Y-149551736D01*
X178130947Y-149602539D01*
X178066577Y-149629709D01*
X177997735Y-149617764D01*
X177946280Y-149570497D01*
X177942011Y-149562805D01*
X177912615Y-149505111D01*
X177879479Y-149459504D01*
X177808483Y-149361786D01*
X177683214Y-149236517D01*
X177539890Y-149132386D01*
X177444492Y-149083778D01*
X177382042Y-149051957D01*
X177382039Y-149051956D01*
X177213556Y-148997214D01*
X177112025Y-148981133D01*
X177038579Y-148969500D01*
X176861421Y-148969500D01*
X176803095Y-148978738D01*
X176686443Y-148997214D01*
X176517960Y-149051956D01*
X176517957Y-149051957D01*
X176360109Y-149132386D01*
X176298996Y-149176788D01*
X176216786Y-149236517D01*
X176216784Y-149236519D01*
X176216783Y-149236519D01*
X176211681Y-149241622D01*
X176150358Y-149275107D01*
X176080666Y-149270123D01*
X176024733Y-149228251D01*
X176000316Y-149162787D01*
X176000000Y-149153941D01*
X176000000Y-146285714D01*
X175999999Y-146285712D01*
X175332620Y-146053322D01*
X175332613Y-146053320D01*
X170625435Y-144414214D01*
X168677189Y-143735806D01*
X168665367Y-143730994D01*
X168574358Y-143688364D01*
X168521999Y-143642101D01*
X168502963Y-143574875D01*
X168523294Y-143508029D01*
X168576538Y-143462786D01*
X168645789Y-143453511D01*
X168665278Y-143458143D01*
X168695580Y-143467989D01*
X168897683Y-143500000D01*
X169102317Y-143500000D01*
X169304417Y-143467990D01*
X169499031Y-143404755D01*
X169681349Y-143311859D01*
X169725921Y-143279474D01*
X169046447Y-142600000D01*
X169052661Y-142600000D01*
X169154394Y-142572741D01*
X169245606Y-142520080D01*
X169320080Y-142445606D01*
X169372741Y-142354394D01*
X169400000Y-142252661D01*
X169400000Y-142246447D01*
X170079474Y-142925921D01*
X170111859Y-142881349D01*
X170204755Y-142699031D01*
X170267990Y-142504417D01*
X170300000Y-142302317D01*
X170300000Y-142097682D01*
X171600000Y-142097682D01*
X171600000Y-142302317D01*
X171632009Y-142504417D01*
X171695244Y-142699031D01*
X171788141Y-142881350D01*
X171788147Y-142881359D01*
X171820523Y-142925921D01*
X171820524Y-142925922D01*
X172500000Y-142246446D01*
X172500000Y-142252661D01*
X172527259Y-142354394D01*
X172579920Y-142445606D01*
X172654394Y-142520080D01*
X172745606Y-142572741D01*
X172847339Y-142600000D01*
X172853553Y-142600000D01*
X172174076Y-143279474D01*
X172218650Y-143311859D01*
X172400968Y-143404755D01*
X172595582Y-143467990D01*
X172797683Y-143500000D01*
X173002317Y-143500000D01*
X173204417Y-143467990D01*
X173399031Y-143404755D01*
X173581349Y-143311859D01*
X173625921Y-143279474D01*
X172946447Y-142600000D01*
X172952661Y-142600000D01*
X173054394Y-142572741D01*
X173145606Y-142520080D01*
X173220080Y-142445606D01*
X173272741Y-142354394D01*
X173300000Y-142252661D01*
X173300000Y-142246446D01*
X173863181Y-142809627D01*
X173896666Y-142870950D01*
X173899500Y-142897308D01*
X173899500Y-143019752D01*
X173911131Y-143078229D01*
X173911132Y-143078230D01*
X173955447Y-143144552D01*
X174021769Y-143188867D01*
X174021770Y-143188868D01*
X174080247Y-143200499D01*
X174080250Y-143200500D01*
X174080252Y-143200500D01*
X175719750Y-143200500D01*
X175719751Y-143200499D01*
X175734568Y-143197552D01*
X175778229Y-143188868D01*
X175778229Y-143188867D01*
X175778231Y-143188867D01*
X175844552Y-143144552D01*
X175888867Y-143078231D01*
X175888867Y-143078229D01*
X175888868Y-143078229D01*
X175900499Y-143019752D01*
X175900500Y-143019750D01*
X175900500Y-142298543D01*
X178899499Y-142298543D01*
X178937947Y-142491829D01*
X178937950Y-142491839D01*
X179013364Y-142673907D01*
X179013371Y-142673920D01*
X179122860Y-142837781D01*
X179122863Y-142837785D01*
X179262214Y-142977136D01*
X179262218Y-142977139D01*
X179426079Y-143086628D01*
X179426092Y-143086635D01*
X179565918Y-143144552D01*
X179608165Y-143162051D01*
X179608169Y-143162051D01*
X179608170Y-143162052D01*
X179801456Y-143200500D01*
X179801459Y-143200500D01*
X179998543Y-143200500D01*
X180128582Y-143174632D01*
X180191835Y-143162051D01*
X180373914Y-143086632D01*
X180423521Y-143053485D01*
X180490197Y-143032607D01*
X180557577Y-143051090D01*
X180604268Y-143103069D01*
X180608594Y-143113254D01*
X180656645Y-143242086D01*
X180656649Y-143242093D01*
X180742809Y-143357187D01*
X180742812Y-143357190D01*
X180857906Y-143443350D01*
X180857913Y-143443354D01*
X180992620Y-143493596D01*
X180992627Y-143493598D01*
X181052155Y-143499999D01*
X181052172Y-143500000D01*
X181650000Y-143500000D01*
X181650000Y-142515686D01*
X181654394Y-142520080D01*
X181745606Y-142572741D01*
X181847339Y-142600000D01*
X181952661Y-142600000D01*
X182054394Y-142572741D01*
X182145606Y-142520080D01*
X182150000Y-142515686D01*
X182150000Y-143500000D01*
X182747828Y-143500000D01*
X182747844Y-143499999D01*
X182807372Y-143493598D01*
X182807379Y-143493596D01*
X182942086Y-143443354D01*
X182942093Y-143443350D01*
X183057187Y-143357190D01*
X183057190Y-143357187D01*
X183143350Y-143242093D01*
X183143354Y-143242086D01*
X183193596Y-143107379D01*
X183193598Y-143107372D01*
X183199999Y-143047844D01*
X183200000Y-143047827D01*
X183200000Y-142450000D01*
X182215686Y-142450000D01*
X182220080Y-142445606D01*
X182272741Y-142354394D01*
X182300000Y-142252661D01*
X182300000Y-142147339D01*
X182272741Y-142045606D01*
X182220080Y-141954394D01*
X182215686Y-141950000D01*
X183200000Y-141950000D01*
X183200000Y-141352172D01*
X183199999Y-141352155D01*
X184400000Y-141352155D01*
X184400000Y-141950000D01*
X185384314Y-141950000D01*
X185379920Y-141954394D01*
X185327259Y-142045606D01*
X185300000Y-142147339D01*
X185300000Y-142252661D01*
X185327259Y-142354394D01*
X185379920Y-142445606D01*
X185384314Y-142450000D01*
X184400000Y-142450000D01*
X184400000Y-143047844D01*
X184406401Y-143107372D01*
X184406403Y-143107379D01*
X184456645Y-143242086D01*
X184456649Y-143242093D01*
X184542809Y-143357187D01*
X184542812Y-143357190D01*
X184657906Y-143443350D01*
X184657913Y-143443354D01*
X184792620Y-143493596D01*
X184792627Y-143493598D01*
X184852155Y-143499999D01*
X184852172Y-143500000D01*
X185450000Y-143500000D01*
X185450000Y-142515686D01*
X185454394Y-142520080D01*
X185545606Y-142572741D01*
X185647339Y-142600000D01*
X185752661Y-142600000D01*
X185854394Y-142572741D01*
X185945606Y-142520080D01*
X185950000Y-142515686D01*
X185950000Y-143500000D01*
X186547828Y-143500000D01*
X186547844Y-143499999D01*
X186607372Y-143493598D01*
X186607379Y-143493596D01*
X186742086Y-143443354D01*
X186742093Y-143443350D01*
X186828438Y-143378711D01*
X193049500Y-143378711D01*
X193049500Y-143621288D01*
X193081161Y-143861785D01*
X193143947Y-144096104D01*
X193236773Y-144320205D01*
X193236776Y-144320212D01*
X193358064Y-144530289D01*
X193358066Y-144530292D01*
X193358067Y-144530293D01*
X193505733Y-144722736D01*
X193505739Y-144722743D01*
X193677256Y-144894260D01*
X193677263Y-144894266D01*
X193790321Y-144981018D01*
X193869711Y-145041936D01*
X194079788Y-145163224D01*
X194303900Y-145256054D01*
X194538211Y-145318838D01*
X194718586Y-145342584D01*
X194778711Y-145350500D01*
X194778712Y-145350500D01*
X195021289Y-145350500D01*
X195069388Y-145344167D01*
X195261789Y-145318838D01*
X195496100Y-145256054D01*
X195720212Y-145163224D01*
X195930289Y-145041936D01*
X196122738Y-144894265D01*
X196294265Y-144722738D01*
X196441936Y-144530289D01*
X196563224Y-144320212D01*
X196656054Y-144096100D01*
X196718838Y-143861789D01*
X196750500Y-143621288D01*
X196750500Y-143378712D01*
X196718838Y-143138211D01*
X196656054Y-142903900D01*
X196563224Y-142679788D01*
X196441936Y-142469711D01*
X196333039Y-142327793D01*
X196294266Y-142277263D01*
X196294260Y-142277256D01*
X196122743Y-142105739D01*
X196122736Y-142105733D01*
X195930293Y-141958067D01*
X195930292Y-141958066D01*
X195930289Y-141958064D01*
X195720212Y-141836776D01*
X195675105Y-141818092D01*
X195496104Y-141743947D01*
X195261785Y-141681161D01*
X195021289Y-141649500D01*
X195021288Y-141649500D01*
X194778712Y-141649500D01*
X194778711Y-141649500D01*
X194538214Y-141681161D01*
X194303895Y-141743947D01*
X194079794Y-141836773D01*
X194079785Y-141836777D01*
X193869706Y-141958067D01*
X193677263Y-142105733D01*
X193677256Y-142105739D01*
X193505739Y-142277256D01*
X193505733Y-142277263D01*
X193358067Y-142469706D01*
X193236777Y-142679785D01*
X193236773Y-142679794D01*
X193143947Y-142903895D01*
X193081161Y-143138214D01*
X193049500Y-143378711D01*
X186828438Y-143378711D01*
X186857186Y-143357190D01*
X186893015Y-143309330D01*
X186996585Y-143101319D01*
X187016088Y-143080281D01*
X187033276Y-143057321D01*
X187039540Y-143054984D01*
X187044087Y-143050080D01*
X187071866Y-143042926D01*
X187098740Y-143032903D01*
X187105274Y-143034324D01*
X187111749Y-143032657D01*
X187138983Y-143041656D01*
X187167013Y-143047754D01*
X187176467Y-143053478D01*
X187226086Y-143086632D01*
X187226088Y-143086633D01*
X187226092Y-143086635D01*
X187365918Y-143144552D01*
X187408165Y-143162051D01*
X187408169Y-143162051D01*
X187408170Y-143162052D01*
X187601456Y-143200500D01*
X187601459Y-143200500D01*
X187798543Y-143200500D01*
X187928582Y-143174632D01*
X187991835Y-143162051D01*
X188173914Y-143086632D01*
X188337782Y-142977139D01*
X188477139Y-142837782D01*
X188586632Y-142673914D01*
X188662051Y-142491835D01*
X188685192Y-142375500D01*
X188700500Y-142298543D01*
X188700500Y-142101456D01*
X188662052Y-141908170D01*
X188662051Y-141908169D01*
X188662051Y-141908165D01*
X188650352Y-141879920D01*
X188586635Y-141726092D01*
X188586628Y-141726079D01*
X188477139Y-141562218D01*
X188477136Y-141562214D01*
X188337785Y-141422863D01*
X188337781Y-141422860D01*
X188173920Y-141313371D01*
X188173907Y-141313364D01*
X187991839Y-141237950D01*
X187991829Y-141237947D01*
X187798543Y-141199500D01*
X187798541Y-141199500D01*
X187601459Y-141199500D01*
X187601457Y-141199500D01*
X187408170Y-141237947D01*
X187408160Y-141237950D01*
X187226092Y-141313364D01*
X187226081Y-141313370D01*
X187176477Y-141346515D01*
X187109800Y-141367392D01*
X187042420Y-141348907D01*
X186995730Y-141296928D01*
X186991405Y-141286745D01*
X186943354Y-141157913D01*
X186943350Y-141157906D01*
X186857190Y-141042812D01*
X186857187Y-141042809D01*
X186742093Y-140956649D01*
X186742086Y-140956645D01*
X186607379Y-140906403D01*
X186607372Y-140906401D01*
X186547844Y-140900000D01*
X185950000Y-140900000D01*
X185950000Y-141884314D01*
X185945606Y-141879920D01*
X185854394Y-141827259D01*
X185752661Y-141800000D01*
X185647339Y-141800000D01*
X185545606Y-141827259D01*
X185454394Y-141879920D01*
X185450000Y-141884314D01*
X185450000Y-140900000D01*
X184852155Y-140900000D01*
X184792627Y-140906401D01*
X184792620Y-140906403D01*
X184657913Y-140956645D01*
X184657906Y-140956649D01*
X184542812Y-141042809D01*
X184542809Y-141042812D01*
X184456649Y-141157906D01*
X184456645Y-141157913D01*
X184406403Y-141292620D01*
X184406401Y-141292627D01*
X184400000Y-141352155D01*
X183199999Y-141352155D01*
X183193598Y-141292627D01*
X183193596Y-141292620D01*
X183143354Y-141157913D01*
X183143350Y-141157906D01*
X183057190Y-141042812D01*
X183057187Y-141042809D01*
X182942093Y-140956649D01*
X182942086Y-140956645D01*
X182807379Y-140906403D01*
X182807372Y-140906401D01*
X182747844Y-140900000D01*
X182150000Y-140900000D01*
X182150000Y-141884314D01*
X182145606Y-141879920D01*
X182054394Y-141827259D01*
X181952661Y-141800000D01*
X181847339Y-141800000D01*
X181745606Y-141827259D01*
X181654394Y-141879920D01*
X181650000Y-141884314D01*
X181650000Y-140900000D01*
X181052155Y-140900000D01*
X180992627Y-140906401D01*
X180992620Y-140906403D01*
X180857913Y-140956645D01*
X180857906Y-140956649D01*
X180742812Y-141042809D01*
X180742809Y-141042812D01*
X180656649Y-141157906D01*
X180656646Y-141157911D01*
X180608594Y-141286746D01*
X180566722Y-141342679D01*
X180501258Y-141367096D01*
X180432985Y-141352244D01*
X180423521Y-141346514D01*
X180373920Y-141313371D01*
X180373907Y-141313364D01*
X180191839Y-141237950D01*
X180191829Y-141237947D01*
X179998543Y-141199500D01*
X179998541Y-141199500D01*
X179801459Y-141199500D01*
X179801457Y-141199500D01*
X179608170Y-141237947D01*
X179608160Y-141237950D01*
X179426092Y-141313364D01*
X179426079Y-141313371D01*
X179262218Y-141422860D01*
X179262214Y-141422863D01*
X179122863Y-141562214D01*
X179122860Y-141562218D01*
X179013371Y-141726079D01*
X179013364Y-141726092D01*
X178937950Y-141908160D01*
X178937947Y-141908170D01*
X178899500Y-142101456D01*
X178899500Y-142101459D01*
X178899500Y-142298541D01*
X178899500Y-142298543D01*
X178899499Y-142298543D01*
X175900500Y-142298543D01*
X175900500Y-141380249D01*
X175900499Y-141380247D01*
X175888868Y-141321770D01*
X175888867Y-141321769D01*
X175844552Y-141255447D01*
X175778230Y-141211132D01*
X175778229Y-141211131D01*
X175719752Y-141199500D01*
X175719748Y-141199500D01*
X174080252Y-141199500D01*
X174080247Y-141199500D01*
X174021770Y-141211131D01*
X174021769Y-141211132D01*
X173955447Y-141255447D01*
X173911132Y-141321769D01*
X173911131Y-141321770D01*
X173899500Y-141380247D01*
X173899500Y-141502691D01*
X173879815Y-141569730D01*
X173863181Y-141590372D01*
X173300000Y-142153553D01*
X173300000Y-142147339D01*
X173272741Y-142045606D01*
X173220080Y-141954394D01*
X173145606Y-141879920D01*
X173054394Y-141827259D01*
X172952661Y-141800000D01*
X172946446Y-141800000D01*
X173625922Y-141120524D01*
X173625921Y-141120523D01*
X173581359Y-141088147D01*
X173581350Y-141088141D01*
X173399031Y-140995244D01*
X173204417Y-140932009D01*
X173002317Y-140900000D01*
X172797683Y-140900000D01*
X172595582Y-140932009D01*
X172400968Y-140995244D01*
X172218644Y-141088143D01*
X172174077Y-141120523D01*
X172174077Y-141120524D01*
X172853554Y-141800000D01*
X172847339Y-141800000D01*
X172745606Y-141827259D01*
X172654394Y-141879920D01*
X172579920Y-141954394D01*
X172527259Y-142045606D01*
X172500000Y-142147339D01*
X172500000Y-142153553D01*
X171820524Y-141474077D01*
X171820523Y-141474077D01*
X171788143Y-141518644D01*
X171695244Y-141700968D01*
X171632009Y-141895582D01*
X171600000Y-142097682D01*
X170300000Y-142097682D01*
X170267990Y-141895582D01*
X170204755Y-141700968D01*
X170111859Y-141518650D01*
X170079474Y-141474077D01*
X170079474Y-141474076D01*
X169400000Y-142153551D01*
X169400000Y-142147339D01*
X169372741Y-142045606D01*
X169320080Y-141954394D01*
X169245606Y-141879920D01*
X169154394Y-141827259D01*
X169052661Y-141800000D01*
X169046446Y-141800000D01*
X169725922Y-141120524D01*
X169725921Y-141120523D01*
X169681359Y-141088147D01*
X169681350Y-141088141D01*
X169499031Y-140995244D01*
X169304417Y-140932009D01*
X169102317Y-140900000D01*
X168897683Y-140900000D01*
X168695582Y-140932009D01*
X168500968Y-140995244D01*
X168318650Y-141088140D01*
X168196886Y-141176608D01*
X168131079Y-141200088D01*
X168063025Y-141184263D01*
X168014330Y-141134157D01*
X168000000Y-141076290D01*
X168000000Y-140320943D01*
X177499500Y-140320943D01*
X177499500Y-140479057D01*
X177519979Y-140555483D01*
X177540423Y-140631783D01*
X177540426Y-140631790D01*
X177619475Y-140768709D01*
X177619479Y-140768714D01*
X177619480Y-140768716D01*
X177731284Y-140880520D01*
X177731286Y-140880521D01*
X177731290Y-140880524D01*
X177868209Y-140959573D01*
X177868216Y-140959577D01*
X178020943Y-141000500D01*
X178020945Y-141000500D01*
X178179055Y-141000500D01*
X178179057Y-141000500D01*
X178331784Y-140959577D01*
X178468716Y-140880520D01*
X178580520Y-140768716D01*
X178659577Y-140631784D01*
X178700500Y-140479057D01*
X178700500Y-140320943D01*
X178659577Y-140168216D01*
X178580809Y-140031784D01*
X178580524Y-140031290D01*
X178580518Y-140031282D01*
X178468717Y-139919481D01*
X178468709Y-139919475D01*
X178331790Y-139840426D01*
X178331786Y-139840424D01*
X178331784Y-139840423D01*
X178179057Y-139799500D01*
X178020943Y-139799500D01*
X177868216Y-139840423D01*
X177868209Y-139840426D01*
X177731290Y-139919475D01*
X177731282Y-139919481D01*
X177619481Y-140031282D01*
X177619475Y-140031290D01*
X177540426Y-140168209D01*
X177540423Y-140168216D01*
X177499500Y-140320943D01*
X168000000Y-140320943D01*
X168000000Y-139224500D01*
X168019685Y-139157461D01*
X168072489Y-139111706D01*
X168124000Y-139100500D01*
X169574750Y-139100500D01*
X169574751Y-139100499D01*
X169589568Y-139097552D01*
X169633229Y-139088868D01*
X169633229Y-139088867D01*
X169633231Y-139088867D01*
X169699552Y-139044552D01*
X169743867Y-138978231D01*
X169743867Y-138978229D01*
X169743868Y-138978229D01*
X169755499Y-138919752D01*
X169755500Y-138919750D01*
X169755500Y-138470340D01*
X169775185Y-138403301D01*
X169827989Y-138357546D01*
X169897147Y-138347602D01*
X169960703Y-138376627D01*
X169994061Y-138422888D01*
X170044625Y-138544962D01*
X170044626Y-138544964D01*
X170160139Y-138717841D01*
X170160142Y-138717845D01*
X170307154Y-138864857D01*
X170307158Y-138864860D01*
X170480033Y-138980372D01*
X170672122Y-139059938D01*
X170817559Y-139088867D01*
X170876037Y-139100499D01*
X170876041Y-139100500D01*
X170876042Y-139100500D01*
X171083959Y-139100500D01*
X171083960Y-139100499D01*
X171287878Y-139059938D01*
X171479967Y-138980372D01*
X171652842Y-138864860D01*
X171799860Y-138717842D01*
X171915372Y-138544967D01*
X171994938Y-138352878D01*
X171998383Y-138335561D01*
X172030767Y-138273650D01*
X172091483Y-138239076D01*
X172161253Y-138242815D01*
X172217925Y-138283681D01*
X172241617Y-138335561D01*
X172245060Y-138352870D01*
X172245062Y-138352878D01*
X172324626Y-138544964D01*
X172440139Y-138717841D01*
X172440142Y-138717845D01*
X172587154Y-138864857D01*
X172587158Y-138864860D01*
X172760033Y-138980372D01*
X172952122Y-139059938D01*
X173097559Y-139088867D01*
X173156037Y-139100499D01*
X173156041Y-139100500D01*
X173156042Y-139100500D01*
X173363959Y-139100500D01*
X173363960Y-139100499D01*
X173567878Y-139059938D01*
X173759967Y-138980372D01*
X173932842Y-138864860D01*
X174079860Y-138717842D01*
X174195372Y-138544967D01*
X174274938Y-138352878D01*
X174315500Y-138148958D01*
X174315500Y-137851042D01*
X174274938Y-137647122D01*
X174195372Y-137455033D01*
X174079860Y-137282158D01*
X174079857Y-137282154D01*
X173932845Y-137135142D01*
X173932841Y-137135139D01*
X173759964Y-137019626D01*
X173567878Y-136940062D01*
X173567870Y-136940060D01*
X173363962Y-136899500D01*
X173363958Y-136899500D01*
X173156042Y-136899500D01*
X173156037Y-136899500D01*
X172952129Y-136940060D01*
X172952121Y-136940062D01*
X172760035Y-137019626D01*
X172587158Y-137135139D01*
X172587154Y-137135142D01*
X172440142Y-137282154D01*
X172440139Y-137282158D01*
X172324626Y-137455035D01*
X172245062Y-137647121D01*
X172245060Y-137647127D01*
X172241617Y-137664439D01*
X172209232Y-137726350D01*
X172148516Y-137760924D01*
X172078746Y-137757183D01*
X172022075Y-137716317D01*
X171998383Y-137664439D01*
X171994939Y-137647127D01*
X171994938Y-137647126D01*
X171994938Y-137647122D01*
X171915372Y-137455033D01*
X171799860Y-137282158D01*
X171799857Y-137282154D01*
X171652845Y-137135142D01*
X171652841Y-137135139D01*
X171479964Y-137019626D01*
X171287878Y-136940062D01*
X171287870Y-136940060D01*
X171083962Y-136899500D01*
X171083958Y-136899500D01*
X170876042Y-136899500D01*
X170876037Y-136899500D01*
X170672129Y-136940060D01*
X170672121Y-136940062D01*
X170480035Y-137019626D01*
X170307158Y-137135139D01*
X170307154Y-137135142D01*
X170160142Y-137282154D01*
X170160139Y-137282158D01*
X170044626Y-137455035D01*
X169994061Y-137577112D01*
X169950220Y-137631515D01*
X169883926Y-137653580D01*
X169816226Y-137636301D01*
X169768616Y-137585164D01*
X169755500Y-137529659D01*
X169755500Y-137080249D01*
X169755499Y-137080247D01*
X169743868Y-137021770D01*
X169743867Y-137021769D01*
X169699552Y-136955447D01*
X169633230Y-136911132D01*
X169633229Y-136911131D01*
X169574752Y-136899500D01*
X169574748Y-136899500D01*
X168124000Y-136899500D01*
X168056961Y-136879815D01*
X168011206Y-136827011D01*
X168000000Y-136775500D01*
X168000000Y-132000000D01*
X164000000Y-128000000D01*
X163585786Y-128000000D01*
X147414214Y-128000000D01*
X147000000Y-128000000D01*
X146999999Y-128000000D01*
X131000000Y-143999999D01*
X131000000Y-150993907D01*
X130999403Y-151006061D01*
X130981982Y-151182934D01*
X130977240Y-151206775D01*
X130927424Y-151370998D01*
X130918121Y-151393456D01*
X130837227Y-151544798D01*
X130823722Y-151565010D01*
X130714854Y-151697666D01*
X130697667Y-151714854D01*
X130628821Y-151771353D01*
X130564514Y-151798666D01*
X130550158Y-151799500D01*
X120449842Y-151799500D01*
X120382803Y-151779815D01*
X120371177Y-151771353D01*
X120302333Y-151714854D01*
X120285145Y-151697666D01*
X120232764Y-151633840D01*
X120176276Y-151565008D01*
X120162772Y-151544798D01*
X120145420Y-151512335D01*
X120081877Y-151393453D01*
X120072575Y-151370998D01*
X120067256Y-151353462D01*
X120022757Y-151206769D01*
X120018018Y-151182941D01*
X120000597Y-151006061D01*
X120000000Y-150993907D01*
X120000000Y-148753984D01*
X120580000Y-148753984D01*
X120580000Y-148946015D01*
X120610040Y-149135684D01*
X120669383Y-149318321D01*
X120756561Y-149489415D01*
X120777798Y-149518646D01*
X121400000Y-148896445D01*
X121400000Y-148902661D01*
X121427259Y-149004394D01*
X121479920Y-149095606D01*
X121554394Y-149170080D01*
X121645606Y-149222741D01*
X121747339Y-149250000D01*
X121753554Y-149250000D01*
X121131351Y-149872200D01*
X121131352Y-149872201D01*
X121160577Y-149893434D01*
X121331678Y-149980616D01*
X121514315Y-150039959D01*
X121703985Y-150070000D01*
X121896015Y-150070000D01*
X122085684Y-150039959D01*
X122268321Y-149980616D01*
X122439419Y-149893436D01*
X122468646Y-149872201D01*
X122468646Y-149872200D01*
X121846447Y-149250000D01*
X121852661Y-149250000D01*
X121954394Y-149222741D01*
X122045606Y-149170080D01*
X122120080Y-149095606D01*
X122172741Y-149004394D01*
X122200000Y-148902661D01*
X122200000Y-148896446D01*
X122822200Y-149518646D01*
X122822201Y-149518646D01*
X122843436Y-149489419D01*
X122930616Y-149318321D01*
X122989959Y-149135684D01*
X123020000Y-148946015D01*
X123020000Y-148759334D01*
X126779500Y-148759334D01*
X126779500Y-148940665D01*
X126814872Y-149118492D01*
X126814874Y-149118500D01*
X126884261Y-149286017D01*
X126884266Y-149286026D01*
X126985000Y-149436784D01*
X126985003Y-149436788D01*
X127113211Y-149564996D01*
X127113215Y-149564999D01*
X127263973Y-149665733D01*
X127263982Y-149665738D01*
X127282485Y-149673402D01*
X127431500Y-149735126D01*
X127600370Y-149768716D01*
X127609334Y-149770499D01*
X127609338Y-149770500D01*
X127609339Y-149770500D01*
X127790662Y-149770500D01*
X127790663Y-149770499D01*
X127968500Y-149735126D01*
X128136020Y-149665737D01*
X128286785Y-149564999D01*
X128414999Y-149436785D01*
X128515737Y-149286020D01*
X128585126Y-149118500D01*
X128620500Y-148940661D01*
X128620500Y-148759339D01*
X128585126Y-148581500D01*
X128515737Y-148413980D01*
X128515736Y-148413979D01*
X128515733Y-148413973D01*
X128414999Y-148263215D01*
X128414996Y-148263211D01*
X128286788Y-148135003D01*
X128286784Y-148135000D01*
X128136026Y-148034266D01*
X128136017Y-148034261D01*
X127968500Y-147964874D01*
X127968492Y-147964872D01*
X127790665Y-147929500D01*
X127790661Y-147929500D01*
X127609339Y-147929500D01*
X127609334Y-147929500D01*
X127431507Y-147964872D01*
X127431499Y-147964874D01*
X127263982Y-148034261D01*
X127263973Y-148034266D01*
X127113215Y-148135000D01*
X127113211Y-148135003D01*
X126985003Y-148263211D01*
X126985000Y-148263215D01*
X126884266Y-148413973D01*
X126884261Y-148413982D01*
X126814874Y-148581499D01*
X126814872Y-148581507D01*
X126779500Y-148759334D01*
X123020000Y-148759334D01*
X123020000Y-148753984D01*
X122989959Y-148564315D01*
X122930616Y-148381678D01*
X122843434Y-148210577D01*
X122822201Y-148181352D01*
X122822200Y-148181351D01*
X122200000Y-148803552D01*
X122200000Y-148797339D01*
X122172741Y-148695606D01*
X122120080Y-148604394D01*
X122045606Y-148529920D01*
X121954394Y-148477259D01*
X121852661Y-148450000D01*
X121846447Y-148450000D01*
X122468646Y-147827798D01*
X122439415Y-147806561D01*
X122268321Y-147719383D01*
X122085684Y-147660040D01*
X121896015Y-147630000D01*
X121703985Y-147630000D01*
X121514315Y-147660040D01*
X121331678Y-147719383D01*
X121160578Y-147806564D01*
X121131352Y-147827798D01*
X121131351Y-147827798D01*
X121753554Y-148450000D01*
X121747339Y-148450000D01*
X121645606Y-148477259D01*
X121554394Y-148529920D01*
X121479920Y-148604394D01*
X121427259Y-148695606D01*
X121400000Y-148797339D01*
X121400000Y-148803553D01*
X120777798Y-148181351D01*
X120777798Y-148181352D01*
X120756564Y-148210578D01*
X120669383Y-148381678D01*
X120610040Y-148564315D01*
X120580000Y-148753984D01*
X120000000Y-148753984D01*
X120000000Y-146219334D01*
X120879500Y-146219334D01*
X120879500Y-146400665D01*
X120914872Y-146578492D01*
X120914874Y-146578500D01*
X120984261Y-146746017D01*
X120984266Y-146746026D01*
X121085000Y-146896784D01*
X121085003Y-146896788D01*
X121213211Y-147024996D01*
X121213215Y-147024999D01*
X121363973Y-147125733D01*
X121363979Y-147125736D01*
X121363980Y-147125737D01*
X121531500Y-147195126D01*
X121709334Y-147230499D01*
X121709338Y-147230500D01*
X121709339Y-147230500D01*
X121890662Y-147230500D01*
X121890663Y-147230499D01*
X122068500Y-147195126D01*
X122236020Y-147125737D01*
X122386785Y-147024999D01*
X122514999Y-146896785D01*
X122615737Y-146746020D01*
X122685126Y-146578500D01*
X122720500Y-146400661D01*
X122720500Y-146219339D01*
X122720499Y-146219334D01*
X126779500Y-146219334D01*
X126779500Y-146400665D01*
X126814872Y-146578492D01*
X126814874Y-146578500D01*
X126884261Y-146746017D01*
X126884266Y-146746026D01*
X126985000Y-146896784D01*
X126985003Y-146896788D01*
X127113211Y-147024996D01*
X127113215Y-147024999D01*
X127263973Y-147125733D01*
X127263979Y-147125736D01*
X127263980Y-147125737D01*
X127431500Y-147195126D01*
X127609334Y-147230499D01*
X127609338Y-147230500D01*
X127609339Y-147230500D01*
X127790662Y-147230500D01*
X127790663Y-147230499D01*
X127968500Y-147195126D01*
X128136020Y-147125737D01*
X128286785Y-147024999D01*
X128414999Y-146896785D01*
X128515737Y-146746020D01*
X128585126Y-146578500D01*
X128620500Y-146400661D01*
X128620500Y-146219339D01*
X128585126Y-146041500D01*
X128515737Y-145873980D01*
X128515736Y-145873979D01*
X128515733Y-145873973D01*
X128414999Y-145723215D01*
X128414996Y-145723211D01*
X128286788Y-145595003D01*
X128286784Y-145595000D01*
X128136026Y-145494266D01*
X128136017Y-145494261D01*
X127968500Y-145424874D01*
X127968492Y-145424872D01*
X127790665Y-145389500D01*
X127790661Y-145389500D01*
X127609339Y-145389500D01*
X127609334Y-145389500D01*
X127431507Y-145424872D01*
X127431499Y-145424874D01*
X127263982Y-145494261D01*
X127263973Y-145494266D01*
X127113215Y-145595000D01*
X127113211Y-145595003D01*
X126985003Y-145723211D01*
X126985000Y-145723215D01*
X126884266Y-145873973D01*
X126884261Y-145873982D01*
X126814874Y-146041499D01*
X126814872Y-146041507D01*
X126779500Y-146219334D01*
X122720499Y-146219334D01*
X122685126Y-146041500D01*
X122615737Y-145873980D01*
X122615736Y-145873979D01*
X122615733Y-145873973D01*
X122514999Y-145723215D01*
X122514996Y-145723211D01*
X122386788Y-145595003D01*
X122386784Y-145595000D01*
X122236026Y-145494266D01*
X122236017Y-145494261D01*
X122068500Y-145424874D01*
X122068492Y-145424872D01*
X121890665Y-145389500D01*
X121890661Y-145389500D01*
X121709339Y-145389500D01*
X121709334Y-145389500D01*
X121531507Y-145424872D01*
X121531499Y-145424874D01*
X121363982Y-145494261D01*
X121363973Y-145494266D01*
X121213215Y-145595000D01*
X121213211Y-145595003D01*
X121085003Y-145723211D01*
X121085000Y-145723215D01*
X120984266Y-145873973D01*
X120984261Y-145873982D01*
X120914874Y-146041499D01*
X120914872Y-146041507D01*
X120879500Y-146219334D01*
X120000000Y-146219334D01*
X120000000Y-143679334D01*
X120879500Y-143679334D01*
X120879500Y-143860665D01*
X120914872Y-144038492D01*
X120914874Y-144038500D01*
X120984261Y-144206017D01*
X120984266Y-144206026D01*
X121085000Y-144356784D01*
X121085003Y-144356788D01*
X121213211Y-144484996D01*
X121213215Y-144484999D01*
X121363973Y-144585733D01*
X121363979Y-144585736D01*
X121363980Y-144585737D01*
X121531500Y-144655126D01*
X121709334Y-144690499D01*
X121709338Y-144690500D01*
X121709339Y-144690500D01*
X121890662Y-144690500D01*
X121890663Y-144690499D01*
X122068500Y-144655126D01*
X122236020Y-144585737D01*
X122386785Y-144484999D01*
X122514999Y-144356785D01*
X122615737Y-144206020D01*
X122685126Y-144038500D01*
X122720500Y-143860661D01*
X122720500Y-143679339D01*
X122720499Y-143679334D01*
X126779500Y-143679334D01*
X126779500Y-143860665D01*
X126814872Y-144038492D01*
X126814874Y-144038500D01*
X126884261Y-144206017D01*
X126884266Y-144206026D01*
X126985000Y-144356784D01*
X126985003Y-144356788D01*
X127113211Y-144484996D01*
X127113215Y-144484999D01*
X127263973Y-144585733D01*
X127263979Y-144585736D01*
X127263980Y-144585737D01*
X127431500Y-144655126D01*
X127609334Y-144690499D01*
X127609338Y-144690500D01*
X127609339Y-144690500D01*
X127790662Y-144690500D01*
X127790663Y-144690499D01*
X127968500Y-144655126D01*
X128136020Y-144585737D01*
X128286785Y-144484999D01*
X128414999Y-144356785D01*
X128515737Y-144206020D01*
X128585126Y-144038500D01*
X128620500Y-143860661D01*
X128620500Y-143679339D01*
X128585126Y-143501500D01*
X128515737Y-143333980D01*
X128515736Y-143333979D01*
X128515733Y-143333973D01*
X128414999Y-143183215D01*
X128414996Y-143183211D01*
X128286788Y-143055003D01*
X128286784Y-143055000D01*
X128136026Y-142954266D01*
X128136017Y-142954261D01*
X127968500Y-142884874D01*
X127968492Y-142884872D01*
X127790665Y-142849500D01*
X127790661Y-142849500D01*
X127609339Y-142849500D01*
X127609334Y-142849500D01*
X127431507Y-142884872D01*
X127431499Y-142884874D01*
X127263982Y-142954261D01*
X127263973Y-142954266D01*
X127113215Y-143055000D01*
X127113211Y-143055003D01*
X126985003Y-143183211D01*
X126985000Y-143183215D01*
X126884266Y-143333973D01*
X126884261Y-143333982D01*
X126814874Y-143501499D01*
X126814872Y-143501507D01*
X126779500Y-143679334D01*
X122720499Y-143679334D01*
X122685126Y-143501500D01*
X122615737Y-143333980D01*
X122615736Y-143333979D01*
X122615733Y-143333973D01*
X122514999Y-143183215D01*
X122514996Y-143183211D01*
X122386788Y-143055003D01*
X122386784Y-143055000D01*
X122236026Y-142954266D01*
X122236017Y-142954261D01*
X122068500Y-142884874D01*
X122068492Y-142884872D01*
X121890665Y-142849500D01*
X121890661Y-142849500D01*
X121709339Y-142849500D01*
X121709334Y-142849500D01*
X121531507Y-142884872D01*
X121531499Y-142884874D01*
X121363982Y-142954261D01*
X121363973Y-142954266D01*
X121213215Y-143055000D01*
X121213211Y-143055003D01*
X121085003Y-143183211D01*
X121085000Y-143183215D01*
X120984266Y-143333973D01*
X120984261Y-143333982D01*
X120914874Y-143501499D01*
X120914872Y-143501507D01*
X120879500Y-143679334D01*
X120000000Y-143679334D01*
X120000000Y-143464156D01*
X120019685Y-143397117D01*
X120052366Y-143362940D01*
X126500000Y-138800000D01*
X126500000Y-135520943D01*
X132599500Y-135520943D01*
X132599500Y-135679057D01*
X132605246Y-135700499D01*
X132640423Y-135831783D01*
X132640426Y-135831790D01*
X132719475Y-135968709D01*
X132719479Y-135968714D01*
X132719480Y-135968716D01*
X132831284Y-136080520D01*
X132831286Y-136080521D01*
X132831290Y-136080524D01*
X132968209Y-136159573D01*
X132968216Y-136159577D01*
X133120943Y-136200500D01*
X133120945Y-136200500D01*
X133279055Y-136200500D01*
X133279057Y-136200500D01*
X133431784Y-136159577D01*
X133568716Y-136080520D01*
X133680520Y-135968716D01*
X133759577Y-135831784D01*
X133800500Y-135679057D01*
X133800500Y-135520943D01*
X133759577Y-135368216D01*
X133758831Y-135366924D01*
X133680524Y-135231290D01*
X133680518Y-135231282D01*
X133568717Y-135119481D01*
X133568709Y-135119475D01*
X133431790Y-135040426D01*
X133431786Y-135040424D01*
X133431784Y-135040423D01*
X133279057Y-134999500D01*
X133120943Y-134999500D01*
X132968216Y-135040423D01*
X132968209Y-135040426D01*
X132831290Y-135119475D01*
X132831282Y-135119481D01*
X132719481Y-135231282D01*
X132719475Y-135231290D01*
X132640426Y-135368209D01*
X132640423Y-135368216D01*
X132599500Y-135520943D01*
X126500000Y-135520943D01*
X126500000Y-129013138D01*
X126519685Y-128946099D01*
X126572489Y-128900344D01*
X126641647Y-128890400D01*
X126705203Y-128919425D01*
X126738561Y-128965686D01*
X126784259Y-129076013D01*
X126784266Y-129076026D01*
X126885000Y-129226784D01*
X126885003Y-129226788D01*
X127013211Y-129354996D01*
X127013215Y-129354999D01*
X127163973Y-129455733D01*
X127163979Y-129455736D01*
X127163980Y-129455737D01*
X127331500Y-129525126D01*
X127509334Y-129560499D01*
X127509338Y-129560500D01*
X127509339Y-129560500D01*
X127690662Y-129560500D01*
X127690663Y-129560499D01*
X127868500Y-129525126D01*
X128036020Y-129455737D01*
X128186785Y-129354999D01*
X128314999Y-129226785D01*
X128415737Y-129076020D01*
X128485126Y-128908500D01*
X128520500Y-128730661D01*
X128520500Y-128549339D01*
X128485126Y-128371500D01*
X128415737Y-128203980D01*
X128415736Y-128203979D01*
X128415733Y-128203973D01*
X128314999Y-128053215D01*
X128314996Y-128053211D01*
X128186788Y-127925003D01*
X128186784Y-127925000D01*
X128036026Y-127824266D01*
X128036017Y-127824261D01*
X127868500Y-127754874D01*
X127868492Y-127754872D01*
X127690665Y-127719500D01*
X127690661Y-127719500D01*
X127509339Y-127719500D01*
X127509334Y-127719500D01*
X127331507Y-127754872D01*
X127331499Y-127754874D01*
X127163982Y-127824261D01*
X127163973Y-127824266D01*
X127013215Y-127925000D01*
X127013211Y-127925003D01*
X126885003Y-128053211D01*
X126885000Y-128053215D01*
X126784266Y-128203973D01*
X126784261Y-128203982D01*
X126738561Y-128314314D01*
X126694720Y-128368717D01*
X126628426Y-128390782D01*
X126560727Y-128373503D01*
X126513116Y-128322366D01*
X126500000Y-128266861D01*
X126500000Y-126896666D01*
X126519685Y-126829627D01*
X126540177Y-126811870D01*
X126537376Y-126809069D01*
X127200000Y-126146445D01*
X127200000Y-126152661D01*
X127227259Y-126254394D01*
X127279920Y-126345606D01*
X127354394Y-126420080D01*
X127445606Y-126472741D01*
X127547339Y-126500000D01*
X127553554Y-126500000D01*
X126931351Y-127122200D01*
X126931352Y-127122201D01*
X126960577Y-127143434D01*
X127131678Y-127230616D01*
X127314315Y-127289959D01*
X127503985Y-127320000D01*
X127696015Y-127320000D01*
X127885684Y-127289959D01*
X128068321Y-127230616D01*
X128239419Y-127143436D01*
X128268646Y-127122201D01*
X128268646Y-127122200D01*
X127646447Y-126500000D01*
X127652661Y-126500000D01*
X127754394Y-126472741D01*
X127845606Y-126420080D01*
X127920080Y-126345606D01*
X127972741Y-126254394D01*
X128000000Y-126152661D01*
X128000000Y-126146446D01*
X128622200Y-126768646D01*
X128622201Y-126768646D01*
X128643436Y-126739419D01*
X128730616Y-126568321D01*
X128789959Y-126385684D01*
X128820000Y-126196015D01*
X128820000Y-126003984D01*
X128789959Y-125814315D01*
X128769430Y-125751135D01*
X128769429Y-125751133D01*
X128759620Y-125720943D01*
X140699500Y-125720943D01*
X140699500Y-125879056D01*
X140740423Y-126031783D01*
X140740426Y-126031790D01*
X140819475Y-126168709D01*
X140819479Y-126168714D01*
X140819480Y-126168716D01*
X140931284Y-126280520D01*
X140931286Y-126280521D01*
X140931290Y-126280524D01*
X141044017Y-126345606D01*
X141068216Y-126359577D01*
X141220943Y-126400500D01*
X141220945Y-126400500D01*
X141379055Y-126400500D01*
X141379057Y-126400500D01*
X141531784Y-126359577D01*
X141668716Y-126280520D01*
X141780520Y-126168716D01*
X141859577Y-126031784D01*
X141900500Y-125879057D01*
X141900500Y-125720943D01*
X141859577Y-125568216D01*
X141859573Y-125568209D01*
X141780524Y-125431290D01*
X141780518Y-125431282D01*
X141668717Y-125319481D01*
X141668709Y-125319475D01*
X141531790Y-125240426D01*
X141531786Y-125240424D01*
X141531784Y-125240423D01*
X141379057Y-125199500D01*
X141220943Y-125199500D01*
X141068216Y-125240423D01*
X141068209Y-125240426D01*
X140931290Y-125319475D01*
X140931282Y-125319481D01*
X140819481Y-125431282D01*
X140819475Y-125431290D01*
X140740426Y-125568209D01*
X140740423Y-125568216D01*
X140699500Y-125720943D01*
X128759620Y-125720943D01*
X128730616Y-125631680D01*
X128643434Y-125460577D01*
X128622201Y-125431352D01*
X128622200Y-125431351D01*
X128000000Y-126053552D01*
X128000000Y-126047339D01*
X127972741Y-125945606D01*
X127920080Y-125854394D01*
X127845606Y-125779920D01*
X127754394Y-125727259D01*
X127652661Y-125700000D01*
X127646447Y-125700000D01*
X128268646Y-125077798D01*
X128239415Y-125056561D01*
X128068321Y-124969383D01*
X127885684Y-124910040D01*
X127696015Y-124880000D01*
X127503985Y-124880000D01*
X127314315Y-124910040D01*
X127131678Y-124969383D01*
X126960578Y-125056564D01*
X126931352Y-125077798D01*
X126931351Y-125077798D01*
X127553554Y-125700000D01*
X127547339Y-125700000D01*
X127445606Y-125727259D01*
X127354394Y-125779920D01*
X127279920Y-125854394D01*
X127227259Y-125945606D01*
X127200000Y-126047339D01*
X127200000Y-126053553D01*
X126544074Y-125397627D01*
X126542797Y-125397044D01*
X126541548Y-125395101D01*
X126537376Y-125390929D01*
X126538283Y-125390021D01*
X126531051Y-125378767D01*
X126515584Y-125363514D01*
X126511761Y-125348750D01*
X126505023Y-125338266D01*
X126500000Y-125303331D01*
X126500000Y-123933138D01*
X126519685Y-123866099D01*
X126572489Y-123820344D01*
X126641647Y-123810400D01*
X126705203Y-123839425D01*
X126738561Y-123885686D01*
X126784259Y-123996013D01*
X126784266Y-123996026D01*
X126885000Y-124146784D01*
X126885003Y-124146788D01*
X127013211Y-124274996D01*
X127013215Y-124274999D01*
X127163973Y-124375733D01*
X127163979Y-124375736D01*
X127163980Y-124375737D01*
X127331500Y-124445126D01*
X127509334Y-124480499D01*
X127509338Y-124480500D01*
X127509339Y-124480500D01*
X127690662Y-124480500D01*
X127690663Y-124480499D01*
X127868500Y-124445126D01*
X128036020Y-124375737D01*
X128186785Y-124274999D01*
X128314999Y-124146785D01*
X128415737Y-123996020D01*
X128485126Y-123828500D01*
X128520500Y-123650661D01*
X128520500Y-123469339D01*
X128485126Y-123291500D01*
X128415737Y-123123980D01*
X128415736Y-123123979D01*
X128415733Y-123123973D01*
X128314999Y-122973215D01*
X128314996Y-122973211D01*
X128212728Y-122870943D01*
X133399500Y-122870943D01*
X133399500Y-123029057D01*
X133424935Y-123123980D01*
X133440423Y-123181783D01*
X133440426Y-123181790D01*
X133519475Y-123318709D01*
X133519479Y-123318714D01*
X133519480Y-123318716D01*
X133631284Y-123430520D01*
X133631286Y-123430521D01*
X133631290Y-123430524D01*
X133698512Y-123469334D01*
X133768216Y-123509577D01*
X133920943Y-123550500D01*
X133920945Y-123550500D01*
X134079055Y-123550500D01*
X134079057Y-123550500D01*
X134231784Y-123509577D01*
X134368716Y-123430520D01*
X134480520Y-123318716D01*
X134559577Y-123181784D01*
X134600500Y-123029057D01*
X134600500Y-122870943D01*
X134559577Y-122718216D01*
X134514131Y-122639500D01*
X134480524Y-122581290D01*
X134480518Y-122581282D01*
X134368717Y-122469481D01*
X134368709Y-122469475D01*
X134231790Y-122390426D01*
X134231786Y-122390424D01*
X134231784Y-122390423D01*
X134079057Y-122349500D01*
X133920943Y-122349500D01*
X133768216Y-122390423D01*
X133768209Y-122390426D01*
X133631290Y-122469475D01*
X133631282Y-122469481D01*
X133519481Y-122581282D01*
X133519475Y-122581290D01*
X133440426Y-122718209D01*
X133440423Y-122718216D01*
X133399500Y-122870943D01*
X128212728Y-122870943D01*
X128186788Y-122845003D01*
X128186784Y-122845000D01*
X128036026Y-122744266D01*
X128036017Y-122744261D01*
X127868500Y-122674874D01*
X127868492Y-122674872D01*
X127690665Y-122639500D01*
X127690661Y-122639500D01*
X127509339Y-122639500D01*
X127509334Y-122639500D01*
X127331507Y-122674872D01*
X127331499Y-122674874D01*
X127163982Y-122744261D01*
X127163973Y-122744266D01*
X127013215Y-122845000D01*
X127013211Y-122845003D01*
X126885003Y-122973211D01*
X126885000Y-122973215D01*
X126784266Y-123123973D01*
X126784261Y-123123982D01*
X126738561Y-123234314D01*
X126694720Y-123288717D01*
X126628426Y-123310782D01*
X126560727Y-123293503D01*
X126513116Y-123242366D01*
X126500000Y-123186861D01*
X126500000Y-118872878D01*
X126519685Y-118805839D01*
X126572489Y-118760084D01*
X126641647Y-118750140D01*
X126705203Y-118779165D01*
X126731388Y-118810880D01*
X126733075Y-118813802D01*
X126892718Y-119021851D01*
X126892726Y-119021860D01*
X127078140Y-119207274D01*
X127078148Y-119207281D01*
X127286196Y-119366924D01*
X127513299Y-119498041D01*
X127513309Y-119498046D01*
X127744046Y-119593620D01*
X127755581Y-119598398D01*
X128008884Y-119666270D01*
X128268880Y-119700500D01*
X128268887Y-119700500D01*
X128531113Y-119700500D01*
X128531120Y-119700500D01*
X128791116Y-119666270D01*
X129044419Y-119598398D01*
X129286697Y-119498043D01*
X129513803Y-119366924D01*
X129721851Y-119207282D01*
X129721855Y-119207277D01*
X129721860Y-119207274D01*
X129907274Y-119021860D01*
X129907277Y-119021855D01*
X129907282Y-119021851D01*
X130066924Y-118813803D01*
X130198043Y-118586697D01*
X130215682Y-118544114D01*
X130256097Y-118446542D01*
X130298398Y-118344419D01*
X130366270Y-118091116D01*
X130400500Y-117831120D01*
X130400500Y-117568880D01*
X130366270Y-117308884D01*
X130298398Y-117055581D01*
X130272731Y-116993616D01*
X130198046Y-116813309D01*
X130198041Y-116813299D01*
X130066924Y-116586196D01*
X129907281Y-116378148D01*
X129907274Y-116378140D01*
X129721860Y-116192726D01*
X129721851Y-116192718D01*
X129513803Y-116033075D01*
X129286700Y-115901958D01*
X129286690Y-115901953D01*
X129044428Y-115801605D01*
X129044421Y-115801603D01*
X129044419Y-115801602D01*
X128791116Y-115733730D01*
X128733339Y-115726123D01*
X128531127Y-115699500D01*
X128531120Y-115699500D01*
X128268880Y-115699500D01*
X128268872Y-115699500D01*
X128037772Y-115729926D01*
X128008884Y-115733730D01*
X127755581Y-115801602D01*
X127755571Y-115801605D01*
X127513309Y-115901953D01*
X127513299Y-115901958D01*
X127286196Y-116033075D01*
X127078148Y-116192718D01*
X126892718Y-116378148D01*
X126733076Y-116586195D01*
X126731384Y-116589127D01*
X126680814Y-116637340D01*
X126612207Y-116650559D01*
X126547343Y-116624588D01*
X126506818Y-116567671D01*
X126500000Y-116527121D01*
X126500000Y-115000000D01*
X124046538Y-113037230D01*
X124006486Y-112979979D01*
X124000000Y-112940402D01*
X124000000Y-112499999D01*
X133000000Y-112499999D01*
X133000000Y-120500000D01*
X133374540Y-120874540D01*
X133408025Y-120935863D01*
X133406635Y-120994312D01*
X133399500Y-121020942D01*
X133399500Y-121179056D01*
X133440423Y-121331783D01*
X133440426Y-121331790D01*
X133519475Y-121468709D01*
X133519479Y-121468714D01*
X133519480Y-121468716D01*
X133631284Y-121580520D01*
X133631286Y-121580521D01*
X133631290Y-121580524D01*
X133768209Y-121659573D01*
X133768216Y-121659577D01*
X133920943Y-121700500D01*
X133920945Y-121700500D01*
X134079054Y-121700500D01*
X134079057Y-121700500D01*
X134105684Y-121693365D01*
X134175530Y-121695026D01*
X134225458Y-121725458D01*
X134500000Y-122000000D01*
X139000000Y-122000000D01*
X140500000Y-120500000D01*
X140500000Y-119406379D01*
X144599500Y-119406379D01*
X144599500Y-119593620D01*
X144636025Y-119777243D01*
X144636027Y-119777251D01*
X144707676Y-119950228D01*
X144707681Y-119950237D01*
X144811697Y-120105907D01*
X144811700Y-120105911D01*
X144944088Y-120238299D01*
X144944092Y-120238302D01*
X145099762Y-120342318D01*
X145099768Y-120342321D01*
X145099769Y-120342322D01*
X145272749Y-120413973D01*
X145456379Y-120450499D01*
X145456383Y-120450500D01*
X145456384Y-120450500D01*
X147143617Y-120450500D01*
X147143618Y-120450499D01*
X147327251Y-120413973D01*
X147500231Y-120342322D01*
X147655908Y-120238302D01*
X147788302Y-120105908D01*
X147892322Y-119950231D01*
X147963973Y-119777251D01*
X148000500Y-119593616D01*
X148000500Y-119406384D01*
X148000499Y-119406379D01*
X148599500Y-119406379D01*
X148599500Y-119593620D01*
X148636025Y-119777243D01*
X148636027Y-119777251D01*
X148707676Y-119950228D01*
X148707681Y-119950237D01*
X148811697Y-120105907D01*
X148811700Y-120105911D01*
X148944088Y-120238299D01*
X148944092Y-120238302D01*
X149099762Y-120342318D01*
X149099768Y-120342321D01*
X149099769Y-120342322D01*
X149272749Y-120413973D01*
X149456379Y-120450499D01*
X149456383Y-120450500D01*
X149456384Y-120450500D01*
X151143617Y-120450500D01*
X151143618Y-120450499D01*
X151327251Y-120413973D01*
X151500231Y-120342322D01*
X151655908Y-120238302D01*
X151788302Y-120105908D01*
X151892322Y-119950231D01*
X151963973Y-119777251D01*
X152000500Y-119593616D01*
X152000500Y-119406384D01*
X152000499Y-119406379D01*
X152599500Y-119406379D01*
X152599500Y-119593620D01*
X152636025Y-119777243D01*
X152636027Y-119777251D01*
X152707676Y-119950228D01*
X152707681Y-119950237D01*
X152811697Y-120105907D01*
X152811700Y-120105911D01*
X152944088Y-120238299D01*
X152944092Y-120238302D01*
X153099762Y-120342318D01*
X153099768Y-120342321D01*
X153099769Y-120342322D01*
X153272749Y-120413973D01*
X153456379Y-120450499D01*
X153456383Y-120450500D01*
X153456384Y-120450500D01*
X155143617Y-120450500D01*
X155143618Y-120450499D01*
X155327251Y-120413973D01*
X155500231Y-120342322D01*
X155655908Y-120238302D01*
X155788302Y-120105908D01*
X155892322Y-119950231D01*
X155963973Y-119777251D01*
X156000500Y-119593616D01*
X156000500Y-119406384D01*
X155963973Y-119222749D01*
X155892322Y-119049769D01*
X155892321Y-119049768D01*
X155892318Y-119049762D01*
X155788302Y-118894092D01*
X155788299Y-118894088D01*
X155655911Y-118761700D01*
X155655907Y-118761697D01*
X155500237Y-118657681D01*
X155500228Y-118657676D01*
X155427078Y-118627377D01*
X155411139Y-118620775D01*
X155327251Y-118586027D01*
X155327243Y-118586025D01*
X155143620Y-118549500D01*
X155143616Y-118549500D01*
X153456384Y-118549500D01*
X153456379Y-118549500D01*
X153272756Y-118586025D01*
X153272748Y-118586027D01*
X153099771Y-118657676D01*
X153099762Y-118657681D01*
X152944092Y-118761697D01*
X152944088Y-118761700D01*
X152811700Y-118894088D01*
X152811697Y-118894092D01*
X152707681Y-119049762D01*
X152707676Y-119049771D01*
X152636027Y-119222748D01*
X152636025Y-119222756D01*
X152599500Y-119406379D01*
X152000499Y-119406379D01*
X151963973Y-119222749D01*
X151892322Y-119049769D01*
X151892321Y-119049768D01*
X151892318Y-119049762D01*
X151788302Y-118894092D01*
X151788299Y-118894088D01*
X151655911Y-118761700D01*
X151655907Y-118761697D01*
X151500237Y-118657681D01*
X151500228Y-118657676D01*
X151327251Y-118586027D01*
X151327243Y-118586025D01*
X151143620Y-118549500D01*
X151143616Y-118549500D01*
X149456384Y-118549500D01*
X149456379Y-118549500D01*
X149272756Y-118586025D01*
X149272748Y-118586027D01*
X149099771Y-118657676D01*
X149099762Y-118657681D01*
X148944092Y-118761697D01*
X148944088Y-118761700D01*
X148811700Y-118894088D01*
X148811697Y-118894092D01*
X148707681Y-119049762D01*
X148707676Y-119049771D01*
X148636027Y-119222748D01*
X148636025Y-119222756D01*
X148599500Y-119406379D01*
X148000499Y-119406379D01*
X147963973Y-119222749D01*
X147892322Y-119049769D01*
X147892321Y-119049768D01*
X147892318Y-119049762D01*
X147788302Y-118894092D01*
X147788299Y-118894088D01*
X147655911Y-118761700D01*
X147655907Y-118761697D01*
X147500237Y-118657681D01*
X147500228Y-118657676D01*
X147327251Y-118586027D01*
X147327243Y-118586025D01*
X147143620Y-118549500D01*
X147143616Y-118549500D01*
X145456384Y-118549500D01*
X145456379Y-118549500D01*
X145272756Y-118586025D01*
X145272748Y-118586027D01*
X145099771Y-118657676D01*
X145099762Y-118657681D01*
X144944092Y-118761697D01*
X144944088Y-118761700D01*
X144811700Y-118894088D01*
X144811697Y-118894092D01*
X144707681Y-119049762D01*
X144707676Y-119049771D01*
X144636027Y-119222748D01*
X144636025Y-119222756D01*
X144599500Y-119406379D01*
X140500000Y-119406379D01*
X140500000Y-118520943D01*
X162912000Y-118520943D01*
X162912000Y-118679057D01*
X162934144Y-118761697D01*
X162952923Y-118831783D01*
X162952926Y-118831790D01*
X163031975Y-118968709D01*
X163031979Y-118968714D01*
X163031980Y-118968716D01*
X163143784Y-119080520D01*
X163143786Y-119080521D01*
X163143790Y-119080524D01*
X163264994Y-119150500D01*
X163280716Y-119159577D01*
X163433443Y-119200500D01*
X163433445Y-119200500D01*
X163591555Y-119200500D01*
X163591557Y-119200500D01*
X163744284Y-119159577D01*
X163881216Y-119080520D01*
X163993020Y-118968716D01*
X164072077Y-118831784D01*
X164113000Y-118679057D01*
X164113000Y-118520943D01*
X164072077Y-118368216D01*
X164051055Y-118331804D01*
X163993024Y-118231290D01*
X163993018Y-118231282D01*
X163881217Y-118119481D01*
X163881209Y-118119475D01*
X163793774Y-118068995D01*
X169899499Y-118068995D01*
X169926418Y-118204322D01*
X169926421Y-118204332D01*
X169979221Y-118331804D01*
X169979228Y-118331817D01*
X170055885Y-118446541D01*
X170055888Y-118446545D01*
X170153454Y-118544111D01*
X170153458Y-118544114D01*
X170268182Y-118620771D01*
X170268195Y-118620778D01*
X170357276Y-118657676D01*
X170395672Y-118673580D01*
X170395676Y-118673580D01*
X170395677Y-118673581D01*
X170531004Y-118700500D01*
X170531007Y-118700500D01*
X171471073Y-118700500D01*
X171545933Y-118700500D01*
X171554042Y-118700765D01*
X171572106Y-118701948D01*
X171749834Y-118713597D01*
X171765892Y-118715712D01*
X171954326Y-118753194D01*
X171969992Y-118757392D01*
X172102685Y-118802435D01*
X172151920Y-118819148D01*
X172166897Y-118825351D01*
X172263272Y-118872878D01*
X172339211Y-118910327D01*
X172353259Y-118918437D01*
X172513004Y-119025176D01*
X172525864Y-119035044D01*
X172673380Y-119164412D01*
X172679302Y-119169959D01*
X184926266Y-131416922D01*
X184926276Y-131416933D01*
X184983518Y-131474174D01*
X184989065Y-131480096D01*
X185102694Y-131609662D01*
X185112568Y-131622530D01*
X185206038Y-131762413D01*
X185214148Y-131776460D01*
X185288560Y-131927347D01*
X185294768Y-131942332D01*
X185348847Y-132101638D01*
X185353045Y-132117305D01*
X185385869Y-132282309D01*
X185387986Y-132298390D01*
X185393185Y-132377688D01*
X185377929Y-132445871D01*
X185328231Y-132494983D01*
X185259872Y-132509429D01*
X185194553Y-132484625D01*
X185171081Y-132461293D01*
X185107282Y-132378149D01*
X185107276Y-132378143D01*
X185107273Y-132378139D01*
X184921860Y-132192726D01*
X184921851Y-132192718D01*
X184713803Y-132033075D01*
X184486700Y-131901958D01*
X184486690Y-131901953D01*
X184244428Y-131801605D01*
X184244421Y-131801603D01*
X184244419Y-131801602D01*
X183991116Y-131733730D01*
X183933339Y-131726123D01*
X183731127Y-131699500D01*
X183731120Y-131699500D01*
X183468880Y-131699500D01*
X183468872Y-131699500D01*
X183237772Y-131729926D01*
X183208884Y-131733730D01*
X183076616Y-131769171D01*
X182955581Y-131801602D01*
X182955571Y-131801605D01*
X182713309Y-131901953D01*
X182713299Y-131901958D01*
X182486196Y-132033075D01*
X182278148Y-132192718D01*
X182092718Y-132378148D01*
X181933075Y-132586196D01*
X181801958Y-132813299D01*
X181801953Y-132813309D01*
X181701605Y-133055571D01*
X181701602Y-133055581D01*
X181633730Y-133308885D01*
X181599500Y-133568872D01*
X181599500Y-133831127D01*
X181626123Y-134033339D01*
X181633730Y-134091116D01*
X181678360Y-134257678D01*
X181701602Y-134344418D01*
X181701605Y-134344428D01*
X181801953Y-134586690D01*
X181801958Y-134586700D01*
X181933075Y-134813803D01*
X182092718Y-135021851D01*
X182092726Y-135021860D01*
X182278140Y-135207274D01*
X182278148Y-135207281D01*
X182486196Y-135366924D01*
X182713299Y-135498041D01*
X182713309Y-135498046D01*
X182955571Y-135598394D01*
X182955581Y-135598398D01*
X183208884Y-135666270D01*
X183468880Y-135700500D01*
X183468887Y-135700500D01*
X183731113Y-135700500D01*
X183731120Y-135700500D01*
X183991116Y-135666270D01*
X184244419Y-135598398D01*
X184486697Y-135498043D01*
X184713803Y-135366924D01*
X184921851Y-135207282D01*
X184921855Y-135207277D01*
X184921860Y-135207274D01*
X185107273Y-135021860D01*
X185107282Y-135021851D01*
X185177127Y-134930827D01*
X185233552Y-134889628D01*
X185303298Y-134885473D01*
X185364219Y-134919686D01*
X185396971Y-134981403D01*
X185399500Y-135006317D01*
X185399500Y-137071435D01*
X185379815Y-137138474D01*
X185363181Y-137159116D01*
X185240142Y-137282154D01*
X185240139Y-137282158D01*
X185124626Y-137455035D01*
X185045062Y-137647121D01*
X185045060Y-137647127D01*
X185041617Y-137664439D01*
X185009232Y-137726350D01*
X184948516Y-137760924D01*
X184878746Y-137757183D01*
X184822075Y-137716317D01*
X184798383Y-137664439D01*
X184794939Y-137647127D01*
X184794938Y-137647126D01*
X184794938Y-137647122D01*
X184715372Y-137455033D01*
X184599860Y-137282158D01*
X184599857Y-137282154D01*
X184452845Y-137135142D01*
X184452841Y-137135139D01*
X184279964Y-137019626D01*
X184087878Y-136940062D01*
X184087870Y-136940060D01*
X183883962Y-136899500D01*
X183883958Y-136899500D01*
X183676042Y-136899500D01*
X183676037Y-136899500D01*
X183472129Y-136940060D01*
X183472121Y-136940062D01*
X183280035Y-137019626D01*
X183107158Y-137135139D01*
X183107154Y-137135142D01*
X182960142Y-137282154D01*
X182960139Y-137282158D01*
X182844626Y-137455035D01*
X182794061Y-137577112D01*
X182750220Y-137631515D01*
X182683926Y-137653580D01*
X182616226Y-137636301D01*
X182568616Y-137585164D01*
X182555500Y-137529659D01*
X182555500Y-137080249D01*
X182555499Y-137080247D01*
X182543868Y-137021770D01*
X182543867Y-137021769D01*
X182499552Y-136955447D01*
X182433230Y-136911132D01*
X182433229Y-136911131D01*
X182374752Y-136899500D01*
X182374748Y-136899500D01*
X180625252Y-136899500D01*
X180625247Y-136899500D01*
X180566770Y-136911131D01*
X180566769Y-136911132D01*
X180500447Y-136955447D01*
X180456132Y-137021769D01*
X180456131Y-137021770D01*
X180444500Y-137080247D01*
X180444500Y-138919752D01*
X180456131Y-138978229D01*
X180456132Y-138978230D01*
X180500447Y-139044552D01*
X180566769Y-139088867D01*
X180566770Y-139088868D01*
X180625247Y-139100499D01*
X180625250Y-139100500D01*
X180625252Y-139100500D01*
X182374750Y-139100500D01*
X182374751Y-139100499D01*
X182389568Y-139097552D01*
X182433229Y-139088868D01*
X182433229Y-139088867D01*
X182433231Y-139088867D01*
X182499552Y-139044552D01*
X182543867Y-138978231D01*
X182543867Y-138978229D01*
X182543868Y-138978229D01*
X182555499Y-138919752D01*
X182555500Y-138919750D01*
X182555500Y-138470340D01*
X182575185Y-138403301D01*
X182627989Y-138357546D01*
X182697147Y-138347602D01*
X182760703Y-138376627D01*
X182794061Y-138422888D01*
X182844625Y-138544962D01*
X182844626Y-138544964D01*
X182960139Y-138717841D01*
X182960142Y-138717845D01*
X183107154Y-138864857D01*
X183107158Y-138864860D01*
X183280033Y-138980372D01*
X183472122Y-139059938D01*
X183617559Y-139088867D01*
X183676037Y-139100499D01*
X183676041Y-139100500D01*
X183676042Y-139100500D01*
X183883959Y-139100500D01*
X183883960Y-139100499D01*
X184087878Y-139059938D01*
X184279967Y-138980372D01*
X184452842Y-138864860D01*
X184599860Y-138717842D01*
X184715372Y-138544967D01*
X184794938Y-138352878D01*
X184798383Y-138335561D01*
X184830767Y-138273650D01*
X184891483Y-138239076D01*
X184961253Y-138242815D01*
X185017925Y-138283681D01*
X185041617Y-138335561D01*
X185045060Y-138352870D01*
X185045062Y-138352878D01*
X185124626Y-138544964D01*
X185240139Y-138717841D01*
X185240142Y-138717845D01*
X185387154Y-138864857D01*
X185387158Y-138864860D01*
X185560033Y-138980372D01*
X185752122Y-139059938D01*
X185897559Y-139088867D01*
X185956037Y-139100499D01*
X185956041Y-139100500D01*
X185956042Y-139100500D01*
X186163959Y-139100500D01*
X186163960Y-139100499D01*
X186367878Y-139059938D01*
X186559967Y-138980372D01*
X186732842Y-138864860D01*
X186879860Y-138717842D01*
X186995372Y-138544967D01*
X187074938Y-138352878D01*
X187115500Y-138148958D01*
X187115500Y-137851042D01*
X187074938Y-137647122D01*
X186995372Y-137455033D01*
X186879860Y-137282158D01*
X186879857Y-137282154D01*
X186836819Y-137239116D01*
X186803334Y-137177793D01*
X186800500Y-137151435D01*
X186800500Y-132553277D01*
X186800501Y-132553273D01*
X186800500Y-132525728D01*
X186800525Y-132525642D01*
X186800524Y-132474345D01*
X186800525Y-132474345D01*
X186800523Y-132336231D01*
X186773443Y-132061332D01*
X186719548Y-131790410D01*
X186639359Y-131526076D01*
X186533646Y-131270875D01*
X186403429Y-131027264D01*
X186403426Y-131027259D01*
X186403422Y-131027252D01*
X186249970Y-130797601D01*
X186249962Y-130797589D01*
X186074721Y-130584063D01*
X185977058Y-130486402D01*
X173618294Y-118127637D01*
X173618293Y-118127636D01*
X173615868Y-118125211D01*
X173615857Y-118125201D01*
X173563079Y-118072422D01*
X173335681Y-117885801D01*
X173335680Y-117885800D01*
X173335676Y-117885797D01*
X173091081Y-117722364D01*
X173091076Y-117722361D01*
X173091069Y-117722357D01*
X173031148Y-117690329D01*
X172835658Y-117585837D01*
X190549500Y-117585837D01*
X190549500Y-117814162D01*
X190585215Y-118039660D01*
X190655770Y-118256803D01*
X190752447Y-118446541D01*
X190759421Y-118460228D01*
X190893621Y-118644937D01*
X191055063Y-118806379D01*
X191239772Y-118940579D01*
X191294996Y-118968717D01*
X191443196Y-119044229D01*
X191443198Y-119044229D01*
X191443201Y-119044231D01*
X191554887Y-119080520D01*
X191660339Y-119114784D01*
X191885838Y-119150500D01*
X191885843Y-119150500D01*
X192114162Y-119150500D01*
X192339660Y-119114784D01*
X192556799Y-119044231D01*
X192760228Y-118940579D01*
X192944937Y-118806379D01*
X193106379Y-118644937D01*
X193240579Y-118460228D01*
X193344231Y-118256799D01*
X193414784Y-118039660D01*
X193431993Y-117931007D01*
X193450500Y-117814162D01*
X193450500Y-117585837D01*
X193414784Y-117360339D01*
X193382049Y-117259592D01*
X193344231Y-117143201D01*
X193344229Y-117143198D01*
X193344229Y-117143196D01*
X193240578Y-116939771D01*
X193106379Y-116755063D01*
X192944937Y-116593621D01*
X192760228Y-116459421D01*
X192741271Y-116449762D01*
X192556803Y-116355770D01*
X192339660Y-116285215D01*
X192114162Y-116249500D01*
X192114157Y-116249500D01*
X191885843Y-116249500D01*
X191885838Y-116249500D01*
X191660339Y-116285215D01*
X191443196Y-116355770D01*
X191239771Y-116459421D01*
X191055061Y-116593622D01*
X190893622Y-116755061D01*
X190759421Y-116939771D01*
X190655770Y-117143196D01*
X190585215Y-117360339D01*
X190549500Y-117585837D01*
X172835658Y-117585837D01*
X172831645Y-117583692D01*
X172758644Y-117553454D01*
X172559866Y-117471117D01*
X172278351Y-117385721D01*
X172278340Y-117385718D01*
X171989847Y-117328335D01*
X171989830Y-117328332D01*
X171768448Y-117306528D01*
X171697086Y-117299500D01*
X171618993Y-117299500D01*
X170531007Y-117299500D01*
X170531005Y-117299500D01*
X170395677Y-117326418D01*
X170395667Y-117326421D01*
X170268195Y-117379221D01*
X170268182Y-117379228D01*
X170153458Y-117455885D01*
X170153454Y-117455888D01*
X170055888Y-117553454D01*
X170055885Y-117553458D01*
X169979228Y-117668182D01*
X169979221Y-117668195D01*
X169926421Y-117795667D01*
X169926418Y-117795677D01*
X169899500Y-117931004D01*
X169899500Y-117931007D01*
X169899500Y-118068993D01*
X169899500Y-118068995D01*
X169899499Y-118068995D01*
X163793774Y-118068995D01*
X163744290Y-118040426D01*
X163744286Y-118040424D01*
X163744284Y-118040423D01*
X163591557Y-117999500D01*
X163433443Y-117999500D01*
X163280716Y-118040423D01*
X163280709Y-118040426D01*
X163143790Y-118119475D01*
X163143782Y-118119481D01*
X163031981Y-118231282D01*
X163031975Y-118231290D01*
X162952926Y-118368209D01*
X162952923Y-118368216D01*
X162912000Y-118520943D01*
X140500000Y-118520943D01*
X140500000Y-116806379D01*
X144599500Y-116806379D01*
X144599500Y-116993620D01*
X144636025Y-117177243D01*
X144636027Y-117177251D01*
X144707676Y-117350228D01*
X144707681Y-117350237D01*
X144811697Y-117505907D01*
X144811700Y-117505911D01*
X144944088Y-117638299D01*
X144944092Y-117638302D01*
X145099762Y-117742318D01*
X145099768Y-117742321D01*
X145099769Y-117742322D01*
X145272749Y-117813973D01*
X145456379Y-117850499D01*
X145456383Y-117850500D01*
X145456384Y-117850500D01*
X147143617Y-117850500D01*
X147143618Y-117850499D01*
X147327251Y-117813973D01*
X147500231Y-117742322D01*
X147655908Y-117638302D01*
X147788302Y-117505908D01*
X147892322Y-117350231D01*
X147963973Y-117177251D01*
X148000500Y-116993616D01*
X148000500Y-116806384D01*
X148000499Y-116806379D01*
X148599500Y-116806379D01*
X148599500Y-116993620D01*
X148636025Y-117177243D01*
X148636027Y-117177251D01*
X148707676Y-117350228D01*
X148707681Y-117350237D01*
X148811697Y-117505907D01*
X148811700Y-117505911D01*
X148944088Y-117638299D01*
X148944092Y-117638302D01*
X149099762Y-117742318D01*
X149099768Y-117742321D01*
X149099769Y-117742322D01*
X149272749Y-117813973D01*
X149456379Y-117850499D01*
X149456383Y-117850500D01*
X149456384Y-117850500D01*
X151143617Y-117850500D01*
X151143618Y-117850499D01*
X151327251Y-117813973D01*
X151500231Y-117742322D01*
X151655908Y-117638302D01*
X151788302Y-117505908D01*
X151892322Y-117350231D01*
X151963973Y-117177251D01*
X152000500Y-116993616D01*
X152000500Y-116806384D01*
X152000499Y-116806379D01*
X152599500Y-116806379D01*
X152599500Y-116993620D01*
X152636025Y-117177243D01*
X152636027Y-117177251D01*
X152707676Y-117350228D01*
X152707681Y-117350237D01*
X152811697Y-117505907D01*
X152811700Y-117505911D01*
X152944088Y-117638299D01*
X152944092Y-117638302D01*
X153099762Y-117742318D01*
X153099768Y-117742321D01*
X153099769Y-117742322D01*
X153272749Y-117813973D01*
X153456379Y-117850499D01*
X153456383Y-117850500D01*
X153456384Y-117850500D01*
X155143617Y-117850500D01*
X155143618Y-117850499D01*
X155327251Y-117813973D01*
X155500231Y-117742322D01*
X155655908Y-117638302D01*
X155788302Y-117505908D01*
X155892322Y-117350231D01*
X155963973Y-117177251D01*
X156000500Y-116993616D01*
X156000500Y-116806384D01*
X155963973Y-116622749D01*
X155892322Y-116449769D01*
X155892321Y-116449768D01*
X155892318Y-116449762D01*
X155788302Y-116294092D01*
X155788299Y-116294088D01*
X155655911Y-116161700D01*
X155655907Y-116161697D01*
X155500237Y-116057681D01*
X155500228Y-116057676D01*
X155327251Y-115986027D01*
X155327243Y-115986025D01*
X155143620Y-115949500D01*
X155143616Y-115949500D01*
X153456384Y-115949500D01*
X153456379Y-115949500D01*
X153272756Y-115986025D01*
X153272748Y-115986027D01*
X153099771Y-116057676D01*
X153099762Y-116057681D01*
X152944092Y-116161697D01*
X152944088Y-116161700D01*
X152811700Y-116294088D01*
X152811697Y-116294092D01*
X152707681Y-116449762D01*
X152707676Y-116449771D01*
X152636027Y-116622748D01*
X152636025Y-116622756D01*
X152599500Y-116806379D01*
X152000499Y-116806379D01*
X151963973Y-116622749D01*
X151892322Y-116449769D01*
X151892321Y-116449768D01*
X151892318Y-116449762D01*
X151788302Y-116294092D01*
X151788299Y-116294088D01*
X151655911Y-116161700D01*
X151655907Y-116161697D01*
X151500237Y-116057681D01*
X151500228Y-116057676D01*
X151327251Y-115986027D01*
X151327243Y-115986025D01*
X151143620Y-115949500D01*
X151143616Y-115949500D01*
X149456384Y-115949500D01*
X149456379Y-115949500D01*
X149272756Y-115986025D01*
X149272748Y-115986027D01*
X149099771Y-116057676D01*
X149099762Y-116057681D01*
X148944092Y-116161697D01*
X148944088Y-116161700D01*
X148811700Y-116294088D01*
X148811697Y-116294092D01*
X148707681Y-116449762D01*
X148707676Y-116449771D01*
X148636027Y-116622748D01*
X148636025Y-116622756D01*
X148599500Y-116806379D01*
X148000499Y-116806379D01*
X147963973Y-116622749D01*
X147892322Y-116449769D01*
X147892321Y-116449768D01*
X147892318Y-116449762D01*
X147788302Y-116294092D01*
X147788299Y-116294088D01*
X147655911Y-116161700D01*
X147655907Y-116161697D01*
X147500237Y-116057681D01*
X147500228Y-116057676D01*
X147327251Y-115986027D01*
X147327243Y-115986025D01*
X147143620Y-115949500D01*
X147143616Y-115949500D01*
X145456384Y-115949500D01*
X145456379Y-115949500D01*
X145272756Y-115986025D01*
X145272748Y-115986027D01*
X145099771Y-116057676D01*
X145099762Y-116057681D01*
X144944092Y-116161697D01*
X144944088Y-116161700D01*
X144811700Y-116294088D01*
X144811697Y-116294092D01*
X144707681Y-116449762D01*
X144707676Y-116449771D01*
X144636027Y-116622748D01*
X144636025Y-116622756D01*
X144599500Y-116806379D01*
X140500000Y-116806379D01*
X140500000Y-112500000D01*
X139000000Y-111000000D01*
X134500000Y-111000000D01*
X134499999Y-111000000D01*
X133000000Y-112499999D01*
X124000000Y-112499999D01*
X124000000Y-108499999D01*
X162000000Y-108499999D01*
X162000000Y-108500000D01*
X162000000Y-113000000D01*
X163500000Y-114500000D01*
X171500000Y-114500000D01*
X173000000Y-113000000D01*
X173000000Y-112370730D01*
X177174500Y-112370730D01*
X177174500Y-113829269D01*
X177177353Y-113859699D01*
X177177353Y-113859701D01*
X177222206Y-113987880D01*
X177222207Y-113987882D01*
X177302850Y-114097150D01*
X177412118Y-114177793D01*
X177454845Y-114192744D01*
X177540299Y-114222646D01*
X177570730Y-114225500D01*
X177570734Y-114225500D01*
X179029270Y-114225500D01*
X179059699Y-114222646D01*
X179059701Y-114222646D01*
X179123790Y-114200219D01*
X179187882Y-114177793D01*
X179297150Y-114097150D01*
X179377793Y-113987882D01*
X179400219Y-113923790D01*
X179422646Y-113859701D01*
X179422646Y-113859699D01*
X179425500Y-113829269D01*
X179425500Y-112370730D01*
X179422646Y-112340300D01*
X179422646Y-112340298D01*
X179377793Y-112212119D01*
X179377792Y-112212117D01*
X179297150Y-112102850D01*
X179187882Y-112022207D01*
X179187880Y-112022206D01*
X179059700Y-111977353D01*
X179029270Y-111974500D01*
X179029266Y-111974500D01*
X177570734Y-111974500D01*
X177570730Y-111974500D01*
X177540300Y-111977353D01*
X177540298Y-111977353D01*
X177412119Y-112022206D01*
X177412117Y-112022207D01*
X177302850Y-112102850D01*
X177222207Y-112212117D01*
X177222206Y-112212119D01*
X177177353Y-112340298D01*
X177177353Y-112340300D01*
X177174500Y-112370730D01*
X173000000Y-112370730D01*
X173000000Y-109175013D01*
X176875000Y-109175013D01*
X176875000Y-109650000D01*
X177953590Y-109650000D01*
X177903963Y-109735956D01*
X177875000Y-109844048D01*
X177875000Y-109955952D01*
X177903963Y-110064044D01*
X177953590Y-110150000D01*
X176875001Y-110150000D01*
X176875001Y-110624986D01*
X176885494Y-110727697D01*
X176940641Y-110894119D01*
X176940643Y-110894124D01*
X177032684Y-111043345D01*
X177156654Y-111167315D01*
X177305875Y-111259356D01*
X177305880Y-111259358D01*
X177472302Y-111314505D01*
X177472309Y-111314506D01*
X177575019Y-111324999D01*
X178049999Y-111324999D01*
X178050000Y-111324998D01*
X178050000Y-110246409D01*
X178135956Y-110296037D01*
X178244048Y-110325000D01*
X178355952Y-110325000D01*
X178464044Y-110296037D01*
X178550000Y-110246409D01*
X178550000Y-111324999D01*
X179024972Y-111324999D01*
X179024986Y-111324998D01*
X179127697Y-111314505D01*
X179294119Y-111259358D01*
X179294124Y-111259356D01*
X179443345Y-111167315D01*
X179567315Y-111043345D01*
X179659356Y-110894124D01*
X179659358Y-110894119D01*
X179714505Y-110727697D01*
X179714506Y-110727690D01*
X179724999Y-110624986D01*
X179725000Y-110624973D01*
X179725000Y-110150000D01*
X178646410Y-110150000D01*
X178696037Y-110064044D01*
X178725000Y-109955952D01*
X178725000Y-109844048D01*
X178696037Y-109735956D01*
X178646410Y-109650000D01*
X179724999Y-109650000D01*
X179724999Y-109175028D01*
X179724998Y-109175013D01*
X179714505Y-109072302D01*
X179659358Y-108905880D01*
X179659356Y-108905875D01*
X179567315Y-108756654D01*
X179443345Y-108632684D01*
X179294124Y-108540643D01*
X179294119Y-108540641D01*
X179148412Y-108492359D01*
X179127697Y-108485494D01*
X179127690Y-108485493D01*
X179024986Y-108475000D01*
X178550000Y-108475000D01*
X178550000Y-109553590D01*
X178464044Y-109503963D01*
X178355952Y-109475000D01*
X178244048Y-109475000D01*
X178135956Y-109503963D01*
X178050000Y-109553590D01*
X178050000Y-108475000D01*
X177575028Y-108475000D01*
X177575012Y-108475001D01*
X177472302Y-108485494D01*
X177305880Y-108540641D01*
X177305875Y-108540643D01*
X177156654Y-108632684D01*
X177032684Y-108756654D01*
X176940643Y-108905875D01*
X176940641Y-108905880D01*
X176885494Y-109072302D01*
X176885493Y-109072309D01*
X176875000Y-109175013D01*
X173000000Y-109175013D01*
X173000000Y-108500000D01*
X172878711Y-108378711D01*
X193049500Y-108378711D01*
X193049500Y-108621288D01*
X193081161Y-108861785D01*
X193143947Y-109096104D01*
X193176639Y-109175028D01*
X193236776Y-109320212D01*
X193358064Y-109530289D01*
X193358066Y-109530292D01*
X193358067Y-109530293D01*
X193505733Y-109722736D01*
X193505739Y-109722743D01*
X193677256Y-109894260D01*
X193677262Y-109894265D01*
X193869711Y-110041936D01*
X194079788Y-110163224D01*
X194303900Y-110256054D01*
X194538211Y-110318838D01*
X194718586Y-110342584D01*
X194778711Y-110350500D01*
X194778712Y-110350500D01*
X195021289Y-110350500D01*
X195069388Y-110344167D01*
X195261789Y-110318838D01*
X195496100Y-110256054D01*
X195720212Y-110163224D01*
X195930289Y-110041936D01*
X196122738Y-109894265D01*
X196294265Y-109722738D01*
X196441936Y-109530289D01*
X196563224Y-109320212D01*
X196656054Y-109096100D01*
X196718838Y-108861789D01*
X196750500Y-108621288D01*
X196750500Y-108378712D01*
X196718838Y-108138211D01*
X196656054Y-107903900D01*
X196563224Y-107679788D01*
X196441936Y-107469711D01*
X196335722Y-107331290D01*
X196294266Y-107277263D01*
X196294260Y-107277256D01*
X196122743Y-107105739D01*
X196122736Y-107105733D01*
X195930293Y-106958067D01*
X195930292Y-106958066D01*
X195930289Y-106958064D01*
X195720212Y-106836776D01*
X195720205Y-106836773D01*
X195496104Y-106743947D01*
X195261785Y-106681161D01*
X195021289Y-106649500D01*
X195021288Y-106649500D01*
X194778712Y-106649500D01*
X194778711Y-106649500D01*
X194538214Y-106681161D01*
X194303895Y-106743947D01*
X194079794Y-106836773D01*
X194079785Y-106836777D01*
X193869706Y-106958067D01*
X193677263Y-107105733D01*
X193677256Y-107105739D01*
X193505739Y-107277256D01*
X193505733Y-107277263D01*
X193358067Y-107469706D01*
X193236777Y-107679785D01*
X193236773Y-107679794D01*
X193143947Y-107903895D01*
X193081161Y-108138214D01*
X193049500Y-108378711D01*
X172878711Y-108378711D01*
X171500000Y-107000000D01*
X163500000Y-107000000D01*
X163499999Y-107000000D01*
X162000000Y-108499999D01*
X124000000Y-108499999D01*
X124000000Y-107570943D01*
X131749500Y-107570943D01*
X131749500Y-107729057D01*
X131762898Y-107779057D01*
X131790423Y-107881783D01*
X131790426Y-107881790D01*
X131869475Y-108018709D01*
X131869479Y-108018714D01*
X131869480Y-108018716D01*
X131981284Y-108130520D01*
X131981286Y-108130521D01*
X131981290Y-108130524D01*
X132067887Y-108180520D01*
X132118216Y-108209577D01*
X132270943Y-108250500D01*
X132270945Y-108250500D01*
X132429055Y-108250500D01*
X132429057Y-108250500D01*
X132581784Y-108209577D01*
X132718716Y-108130520D01*
X132830520Y-108018716D01*
X132909577Y-107881784D01*
X132950500Y-107729057D01*
X132950500Y-107620943D01*
X133649500Y-107620943D01*
X133649500Y-107779057D01*
X133677026Y-107881783D01*
X133690423Y-107931783D01*
X133690426Y-107931790D01*
X133769475Y-108068709D01*
X133769479Y-108068714D01*
X133769480Y-108068716D01*
X133881284Y-108180520D01*
X133881286Y-108180521D01*
X133881290Y-108180524D01*
X134002492Y-108250499D01*
X134018216Y-108259577D01*
X134170943Y-108300500D01*
X134170945Y-108300500D01*
X134329055Y-108300500D01*
X134329057Y-108300500D01*
X134481784Y-108259577D01*
X134618716Y-108180520D01*
X134730520Y-108068716D01*
X134809577Y-107931784D01*
X134850500Y-107779057D01*
X134850500Y-107620943D01*
X134809577Y-107468216D01*
X134780706Y-107418209D01*
X134730524Y-107331290D01*
X134730518Y-107331282D01*
X134618717Y-107219481D01*
X134618709Y-107219475D01*
X134481790Y-107140426D01*
X134481786Y-107140424D01*
X134481784Y-107140423D01*
X134329057Y-107099500D01*
X134170943Y-107099500D01*
X134018216Y-107140423D01*
X134018209Y-107140426D01*
X133881290Y-107219475D01*
X133881282Y-107219481D01*
X133769481Y-107331282D01*
X133769475Y-107331290D01*
X133690426Y-107468209D01*
X133690423Y-107468216D01*
X133649500Y-107620943D01*
X132950500Y-107620943D01*
X132950500Y-107570943D01*
X132909577Y-107418216D01*
X132859391Y-107331290D01*
X132830524Y-107281290D01*
X132830518Y-107281282D01*
X132718717Y-107169481D01*
X132718709Y-107169475D01*
X132581790Y-107090426D01*
X132581786Y-107090424D01*
X132581784Y-107090423D01*
X132429057Y-107049500D01*
X132270943Y-107049500D01*
X132118216Y-107090423D01*
X132118209Y-107090426D01*
X131981290Y-107169475D01*
X131981282Y-107169481D01*
X131869481Y-107281282D01*
X131869475Y-107281290D01*
X131790426Y-107418209D01*
X131790423Y-107418216D01*
X131749500Y-107570943D01*
X124000000Y-107570943D01*
X124000000Y-104909334D01*
X124499500Y-104909334D01*
X124499500Y-105090665D01*
X124534872Y-105268492D01*
X124534874Y-105268500D01*
X124604261Y-105436017D01*
X124604266Y-105436026D01*
X124705000Y-105586784D01*
X124705003Y-105586788D01*
X124833211Y-105714996D01*
X124833215Y-105714999D01*
X124983973Y-105815733D01*
X124983979Y-105815736D01*
X124983980Y-105815737D01*
X125151500Y-105885126D01*
X125329334Y-105920499D01*
X125329338Y-105920500D01*
X125329339Y-105920500D01*
X125510662Y-105920500D01*
X125510663Y-105920499D01*
X125688500Y-105885126D01*
X125856020Y-105815737D01*
X126006785Y-105714999D01*
X126134999Y-105586785D01*
X126235737Y-105436020D01*
X126305126Y-105268500D01*
X126340500Y-105090661D01*
X126340500Y-104909339D01*
X126340499Y-104909334D01*
X127039500Y-104909334D01*
X127039500Y-105090665D01*
X127074872Y-105268492D01*
X127074874Y-105268500D01*
X127144261Y-105436017D01*
X127144266Y-105436026D01*
X127245000Y-105586784D01*
X127245003Y-105586788D01*
X127373211Y-105714996D01*
X127373215Y-105714999D01*
X127523973Y-105815733D01*
X127523979Y-105815736D01*
X127523980Y-105815737D01*
X127691500Y-105885126D01*
X127869334Y-105920499D01*
X127869338Y-105920500D01*
X127869339Y-105920500D01*
X128050662Y-105920500D01*
X128050663Y-105920499D01*
X128228500Y-105885126D01*
X128396020Y-105815737D01*
X128546785Y-105714999D01*
X128674999Y-105586785D01*
X128775737Y-105436020D01*
X128845126Y-105268500D01*
X128880500Y-105090661D01*
X128880500Y-104909339D01*
X128879435Y-104903984D01*
X129280000Y-104903984D01*
X129280000Y-105096015D01*
X129310040Y-105285684D01*
X129369383Y-105468321D01*
X129456561Y-105639415D01*
X129477798Y-105668646D01*
X130100000Y-105046445D01*
X130100000Y-105052661D01*
X130127259Y-105154394D01*
X130179920Y-105245606D01*
X130254394Y-105320080D01*
X130345606Y-105372741D01*
X130447339Y-105400000D01*
X130453554Y-105400000D01*
X129831351Y-106022200D01*
X129831352Y-106022201D01*
X129860577Y-106043434D01*
X130031678Y-106130616D01*
X130214315Y-106189959D01*
X130403985Y-106220000D01*
X130596015Y-106220000D01*
X130785684Y-106189959D01*
X130968321Y-106130616D01*
X131139419Y-106043436D01*
X131168646Y-106022201D01*
X131168646Y-106022200D01*
X130546447Y-105400000D01*
X130552661Y-105400000D01*
X130654394Y-105372741D01*
X130745606Y-105320080D01*
X130820080Y-105245606D01*
X130872741Y-105154394D01*
X130900000Y-105052661D01*
X130900000Y-105046446D01*
X131522200Y-105668646D01*
X131522201Y-105668646D01*
X131543436Y-105639419D01*
X131630616Y-105468321D01*
X131689959Y-105285684D01*
X131720000Y-105096015D01*
X131720000Y-104909334D01*
X156199500Y-104909334D01*
X156199500Y-105090665D01*
X156234872Y-105268492D01*
X156234874Y-105268500D01*
X156304261Y-105436017D01*
X156304266Y-105436026D01*
X156405000Y-105586784D01*
X156405003Y-105586788D01*
X156533211Y-105714996D01*
X156533215Y-105714999D01*
X156683973Y-105815733D01*
X156683979Y-105815736D01*
X156683980Y-105815737D01*
X156851500Y-105885126D01*
X157029334Y-105920499D01*
X157029338Y-105920500D01*
X157029339Y-105920500D01*
X157210662Y-105920500D01*
X157210663Y-105920499D01*
X157388500Y-105885126D01*
X157556020Y-105815737D01*
X157706785Y-105714999D01*
X157834999Y-105586785D01*
X157935737Y-105436020D01*
X158005126Y-105268500D01*
X158040500Y-105090661D01*
X158040500Y-104909339D01*
X158040499Y-104909334D01*
X158739500Y-104909334D01*
X158739500Y-105090665D01*
X158774872Y-105268492D01*
X158774874Y-105268500D01*
X158844261Y-105436017D01*
X158844266Y-105436026D01*
X158945000Y-105586784D01*
X158945003Y-105586788D01*
X159073211Y-105714996D01*
X159073215Y-105714999D01*
X159223973Y-105815733D01*
X159223979Y-105815736D01*
X159223980Y-105815737D01*
X159391500Y-105885126D01*
X159569334Y-105920499D01*
X159569338Y-105920500D01*
X159569339Y-105920500D01*
X159750662Y-105920500D01*
X159750663Y-105920499D01*
X159928500Y-105885126D01*
X160096020Y-105815737D01*
X160246785Y-105714999D01*
X160374999Y-105586785D01*
X160475737Y-105436020D01*
X160545126Y-105268500D01*
X160580500Y-105090661D01*
X160580500Y-104909339D01*
X160580499Y-104909334D01*
X161279500Y-104909334D01*
X161279500Y-105090665D01*
X161314872Y-105268492D01*
X161314874Y-105268500D01*
X161384261Y-105436017D01*
X161384266Y-105436026D01*
X161485000Y-105586784D01*
X161485003Y-105586788D01*
X161613211Y-105714996D01*
X161613215Y-105714999D01*
X161763973Y-105815733D01*
X161763979Y-105815736D01*
X161763980Y-105815737D01*
X161931500Y-105885126D01*
X162109334Y-105920499D01*
X162109338Y-105920500D01*
X162109339Y-105920500D01*
X162290662Y-105920500D01*
X162290663Y-105920499D01*
X162468500Y-105885126D01*
X162636020Y-105815737D01*
X162786785Y-105714999D01*
X162914999Y-105586785D01*
X163015737Y-105436020D01*
X163085126Y-105268500D01*
X163120500Y-105090661D01*
X163120500Y-104909339D01*
X163085126Y-104731500D01*
X163015737Y-104563980D01*
X163015736Y-104563979D01*
X163015733Y-104563973D01*
X162914999Y-104413215D01*
X162914996Y-104413211D01*
X162786788Y-104285003D01*
X162786784Y-104285000D01*
X162636026Y-104184266D01*
X162636017Y-104184261D01*
X162468500Y-104114874D01*
X162468492Y-104114872D01*
X162290665Y-104079500D01*
X162290661Y-104079500D01*
X162109339Y-104079500D01*
X162109334Y-104079500D01*
X161931507Y-104114872D01*
X161931499Y-104114874D01*
X161763982Y-104184261D01*
X161763973Y-104184266D01*
X161613215Y-104285000D01*
X161613211Y-104285003D01*
X161485003Y-104413211D01*
X161485000Y-104413215D01*
X161384266Y-104563973D01*
X161384261Y-104563982D01*
X161314874Y-104731499D01*
X161314872Y-104731507D01*
X161279500Y-104909334D01*
X160580499Y-104909334D01*
X160545126Y-104731500D01*
X160475737Y-104563980D01*
X160475736Y-104563979D01*
X160475733Y-104563973D01*
X160374999Y-104413215D01*
X160374996Y-104413211D01*
X160246788Y-104285003D01*
X160246784Y-104285000D01*
X160096026Y-104184266D01*
X160096017Y-104184261D01*
X159928500Y-104114874D01*
X159928492Y-104114872D01*
X159750665Y-104079500D01*
X159750661Y-104079500D01*
X159569339Y-104079500D01*
X159569334Y-104079500D01*
X159391507Y-104114872D01*
X159391499Y-104114874D01*
X159223982Y-104184261D01*
X159223973Y-104184266D01*
X159073215Y-104285000D01*
X159073211Y-104285003D01*
X158945003Y-104413211D01*
X158945000Y-104413215D01*
X158844266Y-104563973D01*
X158844261Y-104563982D01*
X158774874Y-104731499D01*
X158774872Y-104731507D01*
X158739500Y-104909334D01*
X158040499Y-104909334D01*
X158005126Y-104731500D01*
X157935737Y-104563980D01*
X157935736Y-104563979D01*
X157935733Y-104563973D01*
X157834999Y-104413215D01*
X157834996Y-104413211D01*
X157706788Y-104285003D01*
X157706784Y-104285000D01*
X157556026Y-104184266D01*
X157556017Y-104184261D01*
X157388500Y-104114874D01*
X157388492Y-104114872D01*
X157210665Y-104079500D01*
X157210661Y-104079500D01*
X157029339Y-104079500D01*
X157029334Y-104079500D01*
X156851507Y-104114872D01*
X156851499Y-104114874D01*
X156683982Y-104184261D01*
X156683973Y-104184266D01*
X156533215Y-104285000D01*
X156533211Y-104285003D01*
X156405003Y-104413211D01*
X156405000Y-104413215D01*
X156304266Y-104563973D01*
X156304261Y-104563982D01*
X156234874Y-104731499D01*
X156234872Y-104731507D01*
X156199500Y-104909334D01*
X131720000Y-104909334D01*
X131720000Y-104903984D01*
X131689959Y-104714315D01*
X131630616Y-104531678D01*
X131543434Y-104360577D01*
X131522201Y-104331352D01*
X131522200Y-104331351D01*
X130900000Y-104953552D01*
X130900000Y-104947339D01*
X130872741Y-104845606D01*
X130820080Y-104754394D01*
X130745606Y-104679920D01*
X130654394Y-104627259D01*
X130552661Y-104600000D01*
X130546447Y-104600000D01*
X131168646Y-103977798D01*
X131139415Y-103956561D01*
X130968321Y-103869383D01*
X130785684Y-103810040D01*
X130596015Y-103780000D01*
X130403985Y-103780000D01*
X130214315Y-103810040D01*
X130031678Y-103869383D01*
X129860578Y-103956564D01*
X129831352Y-103977798D01*
X129831351Y-103977798D01*
X130453554Y-104600000D01*
X130447339Y-104600000D01*
X130345606Y-104627259D01*
X130254394Y-104679920D01*
X130179920Y-104754394D01*
X130127259Y-104845606D01*
X130100000Y-104947339D01*
X130100000Y-104953553D01*
X129477798Y-104331351D01*
X129477798Y-104331352D01*
X129456564Y-104360578D01*
X129369383Y-104531678D01*
X129310040Y-104714315D01*
X129280000Y-104903984D01*
X128879435Y-104903984D01*
X128845126Y-104731500D01*
X128775737Y-104563980D01*
X128775736Y-104563979D01*
X128775733Y-104563973D01*
X128674999Y-104413215D01*
X128674996Y-104413211D01*
X128546788Y-104285003D01*
X128546784Y-104285000D01*
X128396026Y-104184266D01*
X128396013Y-104184259D01*
X128288238Y-104139618D01*
X128288237Y-104139618D01*
X128228500Y-104114874D01*
X128228492Y-104114872D01*
X128050665Y-104079500D01*
X128050661Y-104079500D01*
X127869339Y-104079500D01*
X127869334Y-104079500D01*
X127691507Y-104114872D01*
X127691499Y-104114874D01*
X127523982Y-104184261D01*
X127523973Y-104184266D01*
X127373215Y-104285000D01*
X127373211Y-104285003D01*
X127245003Y-104413211D01*
X127245000Y-104413215D01*
X127144266Y-104563973D01*
X127144261Y-104563982D01*
X127074874Y-104731499D01*
X127074872Y-104731507D01*
X127039500Y-104909334D01*
X126340499Y-104909334D01*
X126305126Y-104731500D01*
X126235737Y-104563980D01*
X126235736Y-104563979D01*
X126235733Y-104563973D01*
X126134999Y-104413215D01*
X126134996Y-104413211D01*
X126006788Y-104285003D01*
X126006784Y-104285000D01*
X125856026Y-104184266D01*
X125856017Y-104184261D01*
X125688500Y-104114874D01*
X125688492Y-104114872D01*
X125510665Y-104079500D01*
X125510661Y-104079500D01*
X125329339Y-104079500D01*
X125329334Y-104079500D01*
X125151507Y-104114872D01*
X125151499Y-104114874D01*
X124983982Y-104184261D01*
X124983973Y-104184266D01*
X124833215Y-104285000D01*
X124833211Y-104285003D01*
X124705003Y-104413211D01*
X124705000Y-104413215D01*
X124604266Y-104563973D01*
X124604261Y-104563982D01*
X124534874Y-104731499D01*
X124534872Y-104731507D01*
X124499500Y-104909334D01*
X124000000Y-104909334D01*
X124000000Y-100324500D01*
X124019685Y-100257461D01*
X124072489Y-100211706D01*
X124124000Y-100200500D01*
X195960118Y-100200500D01*
X195996948Y-100200500D01*
X196003032Y-100200649D01*
G37*
%TD.AperFunction*%
%TD*%
M02*
