%TF.GenerationSoftware,KiCad,Pcbnew,9.0.0*%
%TF.CreationDate,2025-05-24T18:36:10+02:00*%
%TF.ProjectId,DS100M08KV,44533130-304d-4303-984b-562e6b696361,rev?*%
%TF.SameCoordinates,Original*%
%TF.FileFunction,Paste,Top*%
%TF.FilePolarity,Positive*%
%FSLAX46Y46*%
G04 Gerber Fmt 4.6, Leading zero omitted, Abs format (unit mm)*
G04 Created by KiCad (PCBNEW 9.0.0) date 2025-05-24 18:36:10*
%MOMM*%
%LPD*%
G01*
G04 APERTURE LIST*
G04 Aperture macros list*
%AMRoundRect*
0 Rectangle with rounded corners*
0 $1 Rounding radius*
0 $2 $3 $4 $5 $6 $7 $8 $9 X,Y pos of 4 corners*
0 Add a 4 corners polygon primitive as box body*
4,1,4,$2,$3,$4,$5,$6,$7,$8,$9,$2,$3,0*
0 Add four circle primitives for the rounded corners*
1,1,$1+$1,$2,$3*
1,1,$1+$1,$4,$5*
1,1,$1+$1,$6,$7*
1,1,$1+$1,$8,$9*
0 Add four rect primitives between the rounded corners*
20,1,$1+$1,$2,$3,$4,$5,0*
20,1,$1+$1,$4,$5,$6,$7,0*
20,1,$1+$1,$6,$7,$8,$9,0*
20,1,$1+$1,$8,$9,$2,$3,0*%
G04 Aperture macros list end*
%ADD10RoundRect,0.237500X-0.237500X0.250000X-0.237500X-0.250000X0.237500X-0.250000X0.237500X0.250000X0*%
%ADD11R,2.350000X5.100000*%
%ADD12RoundRect,0.237500X0.237500X-0.250000X0.237500X0.250000X-0.237500X0.250000X-0.237500X-0.250000X0*%
%ADD13RoundRect,0.237500X-0.250000X-0.237500X0.250000X-0.237500X0.250000X0.237500X-0.250000X0.237500X0*%
%ADD14RoundRect,0.237500X0.250000X0.237500X-0.250000X0.237500X-0.250000X-0.237500X0.250000X-0.237500X0*%
%ADD15RoundRect,0.250000X0.250000X-0.250000X0.250000X0.250000X-0.250000X0.250000X-0.250000X-0.250000X0*%
%ADD16RoundRect,0.250000X0.400000X0.625000X-0.400000X0.625000X-0.400000X-0.625000X0.400000X-0.625000X0*%
%ADD17RoundRect,0.150000X-0.825000X-0.150000X0.825000X-0.150000X0.825000X0.150000X-0.825000X0.150000X0*%
%ADD18RoundRect,0.237500X-0.287500X-0.237500X0.287500X-0.237500X0.287500X0.237500X-0.287500X0.237500X0*%
%ADD19RoundRect,0.150000X-0.150000X0.587500X-0.150000X-0.587500X0.150000X-0.587500X0.150000X0.587500X0*%
%ADD20RoundRect,0.150000X-0.512500X-0.150000X0.512500X-0.150000X0.512500X0.150000X-0.512500X0.150000X0*%
%ADD21RoundRect,0.250000X-0.400000X-0.625000X0.400000X-0.625000X0.400000X0.625000X-0.400000X0.625000X0*%
%ADD22RoundRect,0.250000X-0.250000X0.250000X-0.250000X-0.250000X0.250000X-0.250000X0.250000X0.250000X0*%
%ADD23RoundRect,0.150000X-0.150000X0.512500X-0.150000X-0.512500X0.150000X-0.512500X0.150000X0.512500X0*%
%ADD24RoundRect,0.150000X0.150000X-0.587500X0.150000X0.587500X-0.150000X0.587500X-0.150000X-0.587500X0*%
%ADD25RoundRect,0.150000X0.512500X0.150000X-0.512500X0.150000X-0.512500X-0.150000X0.512500X-0.150000X0*%
%ADD26RoundRect,0.150000X-0.587500X-0.150000X0.587500X-0.150000X0.587500X0.150000X-0.587500X0.150000X0*%
%ADD27RoundRect,0.150000X0.150000X-0.825000X0.150000X0.825000X-0.150000X0.825000X-0.150000X-0.825000X0*%
%ADD28RoundRect,0.237500X-0.237500X0.287500X-0.237500X-0.287500X0.237500X-0.287500X0.237500X0.287500X0*%
%ADD29RoundRect,0.250000X0.625000X-0.400000X0.625000X0.400000X-0.625000X0.400000X-0.625000X-0.400000X0*%
G04 APERTURE END LIST*
D10*
%TO.C,R25*%
X140000000Y-139087500D03*
X140000000Y-140912500D03*
%TD*%
D11*
%TO.C,L3*%
X161475000Y-141700000D03*
X157325000Y-141700000D03*
%TD*%
D12*
%TO.C,R30*%
X138800000Y-150012500D03*
X138800000Y-148187500D03*
%TD*%
D13*
%TO.C,C33*%
X131087500Y-117700000D03*
X132912500Y-117700000D03*
%TD*%
D10*
%TO.C,R51*%
X136300000Y-124687500D03*
X136300000Y-126512500D03*
%TD*%
D14*
%TO.C,R13*%
X163512500Y-110400000D03*
X161687500Y-110400000D03*
%TD*%
D15*
%TO.C,D4*%
X128500000Y-111150000D03*
X128500000Y-108650000D03*
%TD*%
D16*
%TO.C,C39*%
X107200000Y-134000000D03*
X104100000Y-134000000D03*
%TD*%
D17*
%TO.C,U4*%
X166425000Y-109595000D03*
X166425000Y-110865000D03*
X166425000Y-112135000D03*
X166425000Y-113405000D03*
X171375000Y-113405000D03*
X171375000Y-112135000D03*
X171375000Y-110865000D03*
X171375000Y-109595000D03*
%TD*%
D16*
%TO.C,C41*%
X165350000Y-150000000D03*
X162250000Y-150000000D03*
%TD*%
D18*
%TO.C,FB2*%
X132925000Y-124500000D03*
X134675000Y-124500000D03*
%TD*%
D14*
%TO.C,C17*%
X164612500Y-145800000D03*
X162787500Y-145800000D03*
%TD*%
D16*
%TO.C,C10*%
X117750000Y-134000000D03*
X114650000Y-134000000D03*
%TD*%
D12*
%TO.C,R23*%
X126600000Y-114612500D03*
X126600000Y-112787500D03*
%TD*%
D13*
%TO.C,R35*%
X173587500Y-113900000D03*
X175412500Y-113900000D03*
%TD*%
D16*
%TO.C,C13*%
X112550000Y-118000000D03*
X109450000Y-118000000D03*
%TD*%
D14*
%TO.C,R32*%
X170212500Y-133100000D03*
X168387500Y-133100000D03*
%TD*%
D12*
%TO.C,C24*%
X129300000Y-134912500D03*
X129300000Y-133087500D03*
%TD*%
D13*
%TO.C,C1*%
X145587500Y-139200000D03*
X147412500Y-139200000D03*
%TD*%
D19*
%TO.C,D2*%
X134250000Y-108962500D03*
X132350000Y-108962500D03*
X133300000Y-110837500D03*
%TD*%
D20*
%TO.C,U7*%
X157912500Y-145825000D03*
X157912500Y-146775000D03*
X157912500Y-147725000D03*
X160187500Y-147725000D03*
X160187500Y-146775000D03*
X160187500Y-145825000D03*
%TD*%
D14*
%TO.C,C18*%
X140312500Y-122700000D03*
X138487500Y-122700000D03*
%TD*%
%TO.C,C37*%
X175412500Y-110500000D03*
X173587500Y-110500000D03*
%TD*%
D21*
%TO.C,R11*%
X119850000Y-115300000D03*
X122950000Y-115300000D03*
%TD*%
D22*
%TO.C,D1*%
X131500000Y-136650000D03*
X131500000Y-139150000D03*
%TD*%
D12*
%TO.C,R24*%
X163473750Y-117486250D03*
X163473750Y-115661250D03*
%TD*%
D21*
%TO.C,R8*%
X104250000Y-115300000D03*
X107350000Y-115300000D03*
%TD*%
D23*
%TO.C,U6*%
X138150000Y-140962500D03*
X137200000Y-140962500D03*
X136250000Y-140962500D03*
X136250000Y-143237500D03*
X137200000Y-143237500D03*
X138150000Y-143237500D03*
%TD*%
D14*
%TO.C,C26*%
X175412500Y-107100000D03*
X173587500Y-107100000D03*
%TD*%
D13*
%TO.C,C19*%
X131087500Y-119200000D03*
X132912500Y-119200000D03*
%TD*%
%TO.C,R27*%
X156987500Y-149300000D03*
X158812500Y-149300000D03*
%TD*%
D12*
%TO.C,C6*%
X130900000Y-134912500D03*
X130900000Y-133087500D03*
%TD*%
D18*
%TO.C,FB1*%
X138525000Y-125700000D03*
X140275000Y-125700000D03*
%TD*%
D16*
%TO.C,C11*%
X122950000Y-134000000D03*
X119850000Y-134000000D03*
%TD*%
D10*
%TO.C,C2*%
X140400000Y-148187500D03*
X140400000Y-150012500D03*
%TD*%
D12*
%TO.C,C7*%
X127700000Y-134912500D03*
X127700000Y-133087500D03*
%TD*%
D14*
%TO.C,C3*%
X181712500Y-147400000D03*
X179887500Y-147400000D03*
%TD*%
D12*
%TO.C,R26*%
X140400000Y-145012500D03*
X140400000Y-143187500D03*
%TD*%
D16*
%TO.C,C12*%
X107350000Y-118000000D03*
X104250000Y-118000000D03*
%TD*%
D22*
%TO.C,D3*%
X129500000Y-136650000D03*
X129500000Y-139150000D03*
%TD*%
D24*
%TO.C,Q3*%
X146850000Y-150237500D03*
X148750000Y-150237500D03*
X147800000Y-148362500D03*
%TD*%
D13*
%TO.C,R18*%
X167887500Y-108000000D03*
X169712500Y-108000000D03*
%TD*%
D24*
%TO.C,Q5*%
X146850000Y-146337500D03*
X148750000Y-146337500D03*
X147800000Y-144462500D03*
%TD*%
D16*
%TO.C,C42*%
X165350000Y-147700000D03*
X162250000Y-147700000D03*
%TD*%
D13*
%TO.C,R31*%
X168387500Y-134700000D03*
X170212500Y-134700000D03*
%TD*%
%TO.C,C4*%
X161687500Y-119600000D03*
X163512500Y-119600000D03*
%TD*%
D16*
%TO.C,C15*%
X122950000Y-118000000D03*
X119850000Y-118000000D03*
%TD*%
D21*
%TO.C,R9*%
X109450000Y-115300000D03*
X112550000Y-115300000D03*
%TD*%
D10*
%TO.C,C8*%
X128200000Y-112787500D03*
X128200000Y-114612500D03*
%TD*%
%TO.C,R15*%
X127700000Y-136687500D03*
X127700000Y-138512500D03*
%TD*%
D25*
%TO.C,U2*%
X144537500Y-148650000D03*
X144537500Y-147700000D03*
X144537500Y-146750000D03*
X142262500Y-146750000D03*
X142262500Y-147700000D03*
X142262500Y-148650000D03*
%TD*%
D18*
%TO.C,FB4*%
X173625000Y-105500000D03*
X175375000Y-105500000D03*
%TD*%
D14*
%TO.C,C29*%
X178712500Y-131500000D03*
X176887500Y-131500000D03*
%TD*%
D13*
%TO.C,C28*%
X169587500Y-147600000D03*
X171412500Y-147600000D03*
%TD*%
D15*
%TO.C,D5*%
X130500000Y-111150000D03*
X130500000Y-108650000D03*
%TD*%
D14*
%TO.C,R12*%
X124712500Y-119900000D03*
X122887500Y-119900000D03*
%TD*%
%TO.C,C31*%
X173712500Y-134700000D03*
X171887500Y-134700000D03*
%TD*%
%TO.C,C21*%
X175412500Y-108800000D03*
X173587500Y-108800000D03*
%TD*%
D21*
%TO.C,R1*%
X109450000Y-136500000D03*
X112550000Y-136500000D03*
%TD*%
D13*
%TO.C,R16*%
X161787500Y-112300000D03*
X163612500Y-112300000D03*
%TD*%
D10*
%TO.C,C23*%
X129800000Y-112787500D03*
X129800000Y-114612500D03*
%TD*%
D21*
%TO.C,R2*%
X114650000Y-136500000D03*
X117750000Y-136500000D03*
%TD*%
D12*
%TO.C,R33*%
X178700000Y-134912500D03*
X178700000Y-133087500D03*
%TD*%
D14*
%TO.C,C45*%
X138712500Y-145000000D03*
X136887500Y-145000000D03*
%TD*%
D13*
%TO.C,R20*%
X161787500Y-113900000D03*
X163612500Y-113900000D03*
%TD*%
D26*
%TO.C,D7*%
X134862500Y-121050000D03*
X134862500Y-122950000D03*
X136737500Y-122000000D03*
%TD*%
D14*
%TO.C,R17*%
X175412500Y-112200000D03*
X173587500Y-112200000D03*
%TD*%
%TO.C,R29*%
X144212500Y-145000000D03*
X142387500Y-145000000D03*
%TD*%
%TO.C,R6*%
X163512500Y-108723750D03*
X161687500Y-108723750D03*
%TD*%
D27*
%TO.C,U1*%
X134595000Y-119075000D03*
X135865000Y-119075000D03*
X137135000Y-119075000D03*
X138405000Y-119075000D03*
X138405000Y-114125000D03*
X137135000Y-114125000D03*
X135865000Y-114125000D03*
X134595000Y-114125000D03*
%TD*%
D28*
%TO.C,FB3*%
X170600000Y-115325000D03*
X170600000Y-117075000D03*
%TD*%
D14*
%TO.C,R36*%
X135312500Y-145000000D03*
X133487500Y-145000000D03*
%TD*%
D10*
%TO.C,R52*%
X133000000Y-112787500D03*
X133000000Y-114612500D03*
%TD*%
%TO.C,R28*%
X160400000Y-149287500D03*
X160400000Y-151112500D03*
%TD*%
D12*
%TO.C,R14*%
X126700000Y-111162500D03*
X126700000Y-109337500D03*
%TD*%
%TO.C,C25*%
X169100000Y-117112500D03*
X169100000Y-115287500D03*
%TD*%
D16*
%TO.C,C14*%
X117750000Y-118000000D03*
X114650000Y-118000000D03*
%TD*%
D10*
%TO.C,C5*%
X131400000Y-112787500D03*
X131400000Y-114612500D03*
%TD*%
D21*
%TO.C,R3*%
X119850000Y-136500000D03*
X122950000Y-136500000D03*
%TD*%
D10*
%TO.C,R7*%
X132500000Y-133087500D03*
X132500000Y-134912500D03*
%TD*%
%TO.C,R34*%
X177000000Y-133087500D03*
X177000000Y-134912500D03*
%TD*%
D14*
%TO.C,C35*%
X140312500Y-121100000D03*
X138487500Y-121100000D03*
%TD*%
D21*
%TO.C,R4*%
X104100000Y-136500000D03*
X107200000Y-136500000D03*
%TD*%
D13*
%TO.C,C30*%
X186887500Y-134600000D03*
X188712500Y-134600000D03*
%TD*%
D12*
%TO.C,C22*%
X167500000Y-117112500D03*
X167500000Y-115287500D03*
%TD*%
D14*
%TO.C,C27*%
X140312500Y-124200000D03*
X138487500Y-124200000D03*
%TD*%
D21*
%TO.C,R10*%
X114650000Y-115300000D03*
X117750000Y-115300000D03*
%TD*%
D10*
%TO.C,R22*%
X161773750Y-115661250D03*
X161773750Y-117486250D03*
%TD*%
%TO.C,R5*%
X125600000Y-131987500D03*
X125600000Y-133812500D03*
%TD*%
D12*
%TO.C,C32*%
X133300000Y-138512500D03*
X133300000Y-136687500D03*
%TD*%
%TO.C,C38*%
X165900000Y-117112500D03*
X165900000Y-115287500D03*
%TD*%
D29*
%TO.C,C43*%
X164200000Y-142650000D03*
X164200000Y-139550000D03*
%TD*%
D16*
%TO.C,C9*%
X112550000Y-134000000D03*
X109450000Y-134000000D03*
%TD*%
D13*
%TO.C,C34*%
X131087500Y-116200000D03*
X132912500Y-116200000D03*
%TD*%
M02*
