%TF.GenerationSoftware,KiCad,Pcbnew,9.0.0*%
%TF.CreationDate,2025-05-24T18:36:10+02:00*%
%TF.ProjectId,DS100M08KV,44533130-304d-4303-984b-562e6b696361,rev?*%
%TF.SameCoordinates,Original*%
%TF.FileFunction,Legend,Top*%
%TF.FilePolarity,Positive*%
%FSLAX46Y46*%
G04 Gerber Fmt 4.6, Leading zero omitted, Abs format (unit mm)*
G04 Created by KiCad (PCBNEW 9.0.0) date 2025-05-24 18:36:10*
%MOMM*%
%LPD*%
G01*
G04 APERTURE LIST*
%ADD10C,0.120000*%
%ADD11C,0.150000*%
G04 APERTURE END LIST*
D10*
%TO.C,R25*%
X139477500Y-139745276D02*
X139477500Y-140254724D01*
X140522500Y-139745276D02*
X140522500Y-140254724D01*
%TO.C,L3*%
X156300000Y-138600000D02*
X156300000Y-139050000D01*
X156300000Y-138600000D02*
X162500000Y-138600000D01*
X156300000Y-144800000D02*
X156300000Y-144350000D01*
X162500000Y-138600000D02*
X162500000Y-139050000D01*
X162500000Y-144800000D02*
X156300000Y-144800000D01*
X162500000Y-144800000D02*
X162500000Y-144350000D01*
%TO.C,R30*%
X138277500Y-149354724D02*
X138277500Y-148845276D01*
X139322500Y-149354724D02*
X139322500Y-148845276D01*
%TO.C,C33*%
X131745276Y-117177500D02*
X132254724Y-117177500D01*
X131745276Y-118222500D02*
X132254724Y-118222500D01*
%TO.C,R51*%
X135777500Y-125345276D02*
X135777500Y-125854724D01*
X136822500Y-125345276D02*
X136822500Y-125854724D01*
%TO.C,R13*%
X162854724Y-109877500D02*
X162345276Y-109877500D01*
X162854724Y-110922500D02*
X162345276Y-110922500D01*
%TO.C,D4*%
X127650000Y-111910000D02*
X127650000Y-108650000D01*
X127650000Y-111910000D02*
X129350000Y-111910000D01*
X129350000Y-111910000D02*
X129350000Y-108650000D01*
%TO.C,C39*%
X106377064Y-133090000D02*
X104922936Y-133090000D01*
X106377064Y-134910000D02*
X104922936Y-134910000D01*
%TO.C,U4*%
X168900000Y-108940000D02*
X166950000Y-108940000D01*
X168900000Y-108940000D02*
X170850000Y-108940000D01*
X168900000Y-114060000D02*
X166950000Y-114060000D01*
X168900000Y-114060000D02*
X170850000Y-114060000D01*
X166200000Y-109035000D02*
X165960000Y-108705000D01*
X166440000Y-108705000D01*
X166200000Y-109035000D01*
G36*
X166200000Y-109035000D02*
G01*
X165960000Y-108705000D01*
X166440000Y-108705000D01*
X166200000Y-109035000D01*
G37*
%TO.C,Q1*%
X166859000Y-135880000D02*
X166859000Y-139370000D01*
X166859000Y-135880000D02*
X175100000Y-135880000D01*
X166859000Y-139370000D02*
X175100000Y-139370000D01*
X169380000Y-135880000D02*
X169380000Y-136950000D01*
X169380000Y-139050000D02*
X169380000Y-139370000D01*
X172580000Y-135880000D02*
X172580000Y-136950000D01*
X172580000Y-139050000D02*
X172580000Y-139370000D01*
X175100000Y-135880000D02*
X175100000Y-139370000D01*
%TO.C,C41*%
X164527064Y-149090000D02*
X163072936Y-149090000D01*
X164527064Y-150910000D02*
X163072936Y-150910000D01*
%TO.C,FB2*%
X133628733Y-123990000D02*
X133971267Y-123990000D01*
X133628733Y-125010000D02*
X133971267Y-125010000D01*
%TO.C,C17*%
X163954724Y-145277500D02*
X163445276Y-145277500D01*
X163954724Y-146322500D02*
X163445276Y-146322500D01*
%TO.C,C10*%
X116927064Y-133090000D02*
X115472936Y-133090000D01*
X116927064Y-134910000D02*
X115472936Y-134910000D01*
%TO.C,R23*%
X126077500Y-113954724D02*
X126077500Y-113445276D01*
X127122500Y-113954724D02*
X127122500Y-113445276D01*
%TO.C,R35*%
X174245276Y-113377500D02*
X174754724Y-113377500D01*
X174245276Y-114422500D02*
X174754724Y-114422500D01*
%TO.C,C13*%
X111727064Y-117090000D02*
X110272936Y-117090000D01*
X111727064Y-118910000D02*
X110272936Y-118910000D01*
%TO.C,R32*%
X169554724Y-132577500D02*
X169045276Y-132577500D01*
X169554724Y-133622500D02*
X169045276Y-133622500D01*
%TO.C,C24*%
X128777500Y-134254724D02*
X128777500Y-133745276D01*
X129822500Y-134254724D02*
X129822500Y-133745276D01*
%TO.C,C1*%
X146245276Y-138677500D02*
X146754724Y-138677500D01*
X146245276Y-139722500D02*
X146754724Y-139722500D01*
%TO.C,TP2*%
X124200000Y-112400000D02*
G75*
G02*
X121800000Y-112400000I-1200000J0D01*
G01*
X121800000Y-112400000D02*
G75*
G02*
X124200000Y-112400000I1200000J0D01*
G01*
%TO.C,D2*%
X131740000Y-109900000D02*
X131740000Y-109250000D01*
X131740000Y-109900000D02*
X131740000Y-110550000D01*
X134860000Y-109900000D02*
X134860000Y-109250000D01*
X134860000Y-109900000D02*
X134860000Y-110550000D01*
X135140000Y-108977500D02*
X134810000Y-108737500D01*
X135140000Y-108497500D01*
X135140000Y-108977500D01*
G36*
X135140000Y-108977500D02*
G01*
X134810000Y-108737500D01*
X135140000Y-108497500D01*
X135140000Y-108977500D01*
G37*
%TO.C,U7*%
X159050000Y-145215000D02*
X158250000Y-145215000D01*
X159050000Y-145215000D02*
X159850000Y-145215000D01*
X159050000Y-148335000D02*
X158250000Y-148335000D01*
X159050000Y-148335000D02*
X159850000Y-148335000D01*
X157750000Y-145265000D02*
X157510000Y-144935000D01*
X157990000Y-144935000D01*
X157750000Y-145265000D01*
G36*
X157750000Y-145265000D02*
G01*
X157510000Y-144935000D01*
X157990000Y-144935000D01*
X157750000Y-145265000D01*
G37*
%TO.C,C18*%
X139654724Y-122177500D02*
X139145276Y-122177500D01*
X139654724Y-123222500D02*
X139145276Y-123222500D01*
%TO.C,C37*%
X174754724Y-109977500D02*
X174245276Y-109977500D01*
X174754724Y-111022500D02*
X174245276Y-111022500D01*
%TO.C,R11*%
X120672936Y-114390000D02*
X122127064Y-114390000D01*
X120672936Y-116210000D02*
X122127064Y-116210000D01*
%TO.C,D1*%
X130650000Y-135890000D02*
X130650000Y-139150000D01*
X132350000Y-135890000D02*
X130650000Y-135890000D01*
X132350000Y-135890000D02*
X132350000Y-139150000D01*
%TO.C,R24*%
X162951250Y-116828474D02*
X162951250Y-116319026D01*
X163996250Y-116828474D02*
X163996250Y-116319026D01*
%TO.C,R8*%
X105072936Y-114390000D02*
X106527064Y-114390000D01*
X105072936Y-116210000D02*
X106527064Y-116210000D01*
%TO.C,U6*%
X135640000Y-142100000D02*
X135640000Y-141300000D01*
X135640000Y-142100000D02*
X135640000Y-142900000D01*
X138760000Y-142100000D02*
X138760000Y-141300000D01*
X138760000Y-142100000D02*
X138760000Y-142900000D01*
X139040000Y-141040000D02*
X138710000Y-140800000D01*
X139040000Y-140560000D01*
X139040000Y-141040000D01*
G36*
X139040000Y-141040000D02*
G01*
X138710000Y-140800000D01*
X139040000Y-140560000D01*
X139040000Y-141040000D01*
G37*
%TO.C,C26*%
X174754724Y-106577500D02*
X174245276Y-106577500D01*
X174754724Y-107622500D02*
X174245276Y-107622500D01*
%TO.C,C19*%
X131745276Y-118677500D02*
X132254724Y-118677500D01*
X131745276Y-119722500D02*
X132254724Y-119722500D01*
%TO.C,R27*%
X157645276Y-148777500D02*
X158154724Y-148777500D01*
X157645276Y-149822500D02*
X158154724Y-149822500D01*
%TO.C,C6*%
X130377500Y-134254724D02*
X130377500Y-133745276D01*
X131422500Y-134254724D02*
X131422500Y-133745276D01*
%TO.C,FB1*%
X139228733Y-125190000D02*
X139571267Y-125190000D01*
X139228733Y-126210000D02*
X139571267Y-126210000D01*
%TO.C,C11*%
X122127064Y-133090000D02*
X120672936Y-133090000D01*
X122127064Y-134910000D02*
X120672936Y-134910000D01*
%TO.C,C2*%
X139877500Y-148845276D02*
X139877500Y-149354724D01*
X140922500Y-148845276D02*
X140922500Y-149354724D01*
%TO.C,C7*%
X127177500Y-134254724D02*
X127177500Y-133745276D01*
X128222500Y-134254724D02*
X128222500Y-133745276D01*
%TO.C,C3*%
X180545276Y-146877500D02*
X181054724Y-146877500D01*
X180545276Y-147922500D02*
X181054724Y-147922500D01*
%TO.C,R26*%
X139877500Y-144354724D02*
X139877500Y-143845276D01*
X140922500Y-144354724D02*
X140922500Y-143845276D01*
%TO.C,C12*%
X106527064Y-117090000D02*
X105072936Y-117090000D01*
X106527064Y-118910000D02*
X105072936Y-118910000D01*
%TO.C,D3*%
X128650000Y-135890000D02*
X128650000Y-139150000D01*
X130350000Y-135890000D02*
X128650000Y-135890000D01*
X130350000Y-135890000D02*
X130350000Y-139150000D01*
%TO.C,Q3*%
X146240000Y-149300000D02*
X146240000Y-148650000D01*
X146240000Y-149300000D02*
X146240000Y-149950000D01*
X149360000Y-149300000D02*
X149360000Y-148650000D01*
X149360000Y-149300000D02*
X149360000Y-149950000D01*
X146290000Y-150462500D02*
X145960000Y-150702500D01*
X145960000Y-150222500D01*
X146290000Y-150462500D01*
G36*
X146290000Y-150462500D02*
G01*
X145960000Y-150702500D01*
X145960000Y-150222500D01*
X146290000Y-150462500D01*
G37*
D11*
%TO.C,SW2*%
X140800000Y-134800000D02*
X140800000Y-132800000D01*
X141800000Y-133800000D02*
X139800000Y-133800000D01*
D10*
X142300000Y-130000000D02*
X143500000Y-130000000D01*
X142300000Y-137600000D02*
X142300000Y-130000000D01*
X143500000Y-137600000D02*
X142300000Y-137600000D01*
X157950000Y-137600000D02*
X158300000Y-137600000D01*
X158300000Y-130000000D02*
X157100000Y-130000000D01*
X158300000Y-137600000D02*
X158300000Y-130000000D01*
D11*
X159800000Y-134800000D02*
X159800000Y-132800000D01*
X160800000Y-133800000D02*
X158800000Y-133800000D01*
X141800000Y-133800000D02*
G75*
G02*
X139800000Y-133800000I-1000000J0D01*
G01*
X139800000Y-133800000D02*
G75*
G02*
X141800000Y-133800000I1000000J0D01*
G01*
X160800000Y-133800000D02*
G75*
G02*
X158800000Y-133800000I-1000000J0D01*
G01*
X158800000Y-133800000D02*
G75*
G02*
X160800000Y-133800000I1000000J0D01*
G01*
D10*
X158650000Y-137650000D02*
X158650000Y-137170000D01*
X159130000Y-137170000D01*
X158650000Y-137650000D01*
G36*
X158650000Y-137650000D02*
G01*
X158650000Y-137170000D01*
X159130000Y-137170000D01*
X158650000Y-137650000D01*
G37*
%TO.C,R18*%
X168545276Y-107477500D02*
X169054724Y-107477500D01*
X168545276Y-108522500D02*
X169054724Y-108522500D01*
%TO.C,Q5*%
X146240000Y-145400000D02*
X146240000Y-144750000D01*
X146240000Y-145400000D02*
X146240000Y-146050000D01*
X149360000Y-145400000D02*
X149360000Y-144750000D01*
X149360000Y-145400000D02*
X149360000Y-146050000D01*
X146290000Y-146562500D02*
X145960000Y-146802500D01*
X145960000Y-146322500D01*
X146290000Y-146562500D01*
G36*
X146290000Y-146562500D02*
G01*
X145960000Y-146802500D01*
X145960000Y-146322500D01*
X146290000Y-146562500D01*
G37*
%TO.C,C42*%
X164527064Y-146790000D02*
X163072936Y-146790000D01*
X164527064Y-148610000D02*
X163072936Y-148610000D01*
%TO.C,R31*%
X169045276Y-134177500D02*
X169554724Y-134177500D01*
X169045276Y-135222500D02*
X169554724Y-135222500D01*
%TO.C,C4*%
X162345276Y-119077500D02*
X162854724Y-119077500D01*
X162345276Y-120122500D02*
X162854724Y-120122500D01*
%TO.C,C15*%
X122127064Y-117090000D02*
X120672936Y-117090000D01*
X122127064Y-118910000D02*
X120672936Y-118910000D01*
%TO.C,R9*%
X110272936Y-114390000D02*
X111727064Y-114390000D01*
X110272936Y-116210000D02*
X111727064Y-116210000D01*
%TO.C,C8*%
X127677500Y-113445276D02*
X127677500Y-113954724D01*
X128722500Y-113445276D02*
X128722500Y-113954724D01*
%TO.C,Q4*%
X179659000Y-135880000D02*
X179659000Y-139370000D01*
X179659000Y-135880000D02*
X187900000Y-135880000D01*
X179659000Y-139370000D02*
X187900000Y-139370000D01*
X182180000Y-135880000D02*
X182180000Y-136950000D01*
X182180000Y-139050000D02*
X182180000Y-139370000D01*
X185380000Y-135880000D02*
X185380000Y-136950000D01*
X185380000Y-139050000D02*
X185380000Y-139370000D01*
X187900000Y-135880000D02*
X187900000Y-139370000D01*
%TO.C,R15*%
X127177500Y-137345276D02*
X127177500Y-137854724D01*
X128222500Y-137345276D02*
X128222500Y-137854724D01*
%TO.C,U2*%
X143400000Y-146140000D02*
X142600000Y-146140000D01*
X143400000Y-146140000D02*
X144200000Y-146140000D01*
X143400000Y-149260000D02*
X142600000Y-149260000D01*
X143400000Y-149260000D02*
X144200000Y-149260000D01*
X144940000Y-149540000D02*
X144460000Y-149540000D01*
X144700000Y-149210000D01*
X144940000Y-149540000D01*
G36*
X144940000Y-149540000D02*
G01*
X144460000Y-149540000D01*
X144700000Y-149210000D01*
X144940000Y-149540000D01*
G37*
%TO.C,FB4*%
X174328733Y-104990000D02*
X174671267Y-104990000D01*
X174328733Y-106010000D02*
X174671267Y-106010000D01*
%TO.C,C29*%
X177545276Y-130977500D02*
X178054724Y-130977500D01*
X177545276Y-132022500D02*
X178054724Y-132022500D01*
%TO.C,C28*%
X170245276Y-147077500D02*
X170754724Y-147077500D01*
X170245276Y-148122500D02*
X170754724Y-148122500D01*
%TO.C,D5*%
X129650000Y-111910000D02*
X129650000Y-108650000D01*
X129650000Y-111910000D02*
X131350000Y-111910000D01*
X131350000Y-111910000D02*
X131350000Y-108650000D01*
%TO.C,R12*%
X124054724Y-119377500D02*
X123545276Y-119377500D01*
X124054724Y-120422500D02*
X123545276Y-120422500D01*
%TO.C,C31*%
X173054724Y-134177500D02*
X172545276Y-134177500D01*
X173054724Y-135222500D02*
X172545276Y-135222500D01*
%TO.C,C21*%
X174754724Y-108277500D02*
X174245276Y-108277500D01*
X174754724Y-109322500D02*
X174245276Y-109322500D01*
%TO.C,R1*%
X110272936Y-135590000D02*
X111727064Y-135590000D01*
X110272936Y-137410000D02*
X111727064Y-137410000D01*
%TO.C,R16*%
X162445276Y-111777500D02*
X162954724Y-111777500D01*
X162445276Y-112822500D02*
X162954724Y-112822500D01*
%TO.C,C23*%
X129277500Y-113445276D02*
X129277500Y-113954724D01*
X130322500Y-113445276D02*
X130322500Y-113954724D01*
%TO.C,R2*%
X115472936Y-135590000D02*
X116927064Y-135590000D01*
X115472936Y-137410000D02*
X116927064Y-137410000D01*
%TO.C,TP3*%
X178600000Y-138000000D02*
G75*
G02*
X176200000Y-138000000I-1200000J0D01*
G01*
X176200000Y-138000000D02*
G75*
G02*
X178600000Y-138000000I1200000J0D01*
G01*
%TO.C,TP1*%
X124100000Y-139400000D02*
G75*
G02*
X121700000Y-139400000I-1200000J0D01*
G01*
X121700000Y-139400000D02*
G75*
G02*
X124100000Y-139400000I1200000J0D01*
G01*
%TO.C,R33*%
X178177500Y-134254724D02*
X178177500Y-133745276D01*
X179222500Y-134254724D02*
X179222500Y-133745276D01*
%TO.C,C45*%
X138054724Y-144477500D02*
X137545276Y-144477500D01*
X138054724Y-145522500D02*
X137545276Y-145522500D01*
%TO.C,RV2*%
X125070000Y-121215000D02*
X130140000Y-121215000D01*
X125070000Y-130985000D02*
X125070000Y-121215000D01*
X125070000Y-130985000D02*
X130140000Y-130985000D01*
X130140000Y-130985000D02*
X130140000Y-121215000D01*
%TO.C,R20*%
X162445276Y-113377500D02*
X162954724Y-113377500D01*
X162445276Y-114422500D02*
X162954724Y-114422500D01*
%TO.C,D7*%
X135800000Y-120440000D02*
X135150000Y-120440000D01*
X135800000Y-120440000D02*
X136450000Y-120440000D01*
X135800000Y-123560000D02*
X135150000Y-123560000D01*
X135800000Y-123560000D02*
X136450000Y-123560000D01*
X134637500Y-120490000D02*
X134397500Y-120160000D01*
X134877500Y-120160000D01*
X134637500Y-120490000D01*
G36*
X134637500Y-120490000D02*
G01*
X134397500Y-120160000D01*
X134877500Y-120160000D01*
X134637500Y-120490000D01*
G37*
%TO.C,D6*%
X133540000Y-147364000D02*
X133540000Y-147520000D01*
X133540000Y-149680000D02*
X133540000Y-149836000D01*
X133540000Y-147364484D02*
G75*
G02*
X136771397Y-147519939I1560000J-1235516D01*
G01*
X134059039Y-147520000D02*
G75*
G02*
X136140910Y-147519951I1040961J-1080000D01*
G01*
X136140910Y-149680049D02*
G75*
G02*
X134059039Y-149680000I-1040910J1080049D01*
G01*
X136771397Y-149680061D02*
G75*
G02*
X133540000Y-149835516I-1671397J1080061D01*
G01*
%TO.C,R17*%
X174754724Y-111677500D02*
X174245276Y-111677500D01*
X174754724Y-112722500D02*
X174245276Y-112722500D01*
%TO.C,R29*%
X143554724Y-144477500D02*
X143045276Y-144477500D01*
X143554724Y-145522500D02*
X143045276Y-145522500D01*
%TO.C,R6*%
X162854724Y-108201250D02*
X162345276Y-108201250D01*
X162854724Y-109246250D02*
X162345276Y-109246250D01*
%TO.C,U1*%
X133940000Y-116600000D02*
X133940000Y-114650000D01*
X133940000Y-116600000D02*
X133940000Y-118550000D01*
X139060000Y-116600000D02*
X139060000Y-114650000D01*
X139060000Y-116600000D02*
X139060000Y-118550000D01*
X134035000Y-119300000D02*
X133705000Y-119540000D01*
X133705000Y-119060000D01*
X134035000Y-119300000D01*
G36*
X134035000Y-119300000D02*
G01*
X133705000Y-119540000D01*
X133705000Y-119060000D01*
X134035000Y-119300000D01*
G37*
%TO.C,FB3*%
X170090000Y-116028733D02*
X170090000Y-116371267D01*
X171110000Y-116028733D02*
X171110000Y-116371267D01*
D11*
%TO.C,SW1*%
X140800000Y-119200000D02*
X140800000Y-117200000D01*
X141800000Y-118200000D02*
X139800000Y-118200000D01*
D10*
X142300000Y-114400000D02*
X143500000Y-114400000D01*
X142300000Y-122000000D02*
X142300000Y-114400000D01*
X143500000Y-122000000D02*
X142300000Y-122000000D01*
X157950000Y-122000000D02*
X158300000Y-122000000D01*
X158300000Y-114400000D02*
X157100000Y-114400000D01*
X158300000Y-122000000D02*
X158300000Y-114400000D01*
D11*
X159800000Y-119200000D02*
X159800000Y-117200000D01*
X160800000Y-118200000D02*
X158800000Y-118200000D01*
X141800000Y-118200000D02*
G75*
G02*
X139800000Y-118200000I-1000000J0D01*
G01*
X139800000Y-118200000D02*
G75*
G02*
X141800000Y-118200000I1000000J0D01*
G01*
X160800000Y-118200000D02*
G75*
G02*
X158800000Y-118200000I-1000000J0D01*
G01*
X158800000Y-118200000D02*
G75*
G02*
X160800000Y-118200000I1000000J0D01*
G01*
D10*
X158650000Y-122050000D02*
X158650000Y-121570000D01*
X159130000Y-121570000D01*
X158650000Y-122050000D01*
G36*
X158650000Y-122050000D02*
G01*
X158650000Y-121570000D01*
X159130000Y-121570000D01*
X158650000Y-122050000D01*
G37*
%TO.C,R36*%
X134654724Y-144477500D02*
X134145276Y-144477500D01*
X134654724Y-145522500D02*
X134145276Y-145522500D01*
%TO.C,R52*%
X132477500Y-113445276D02*
X132477500Y-113954724D01*
X133522500Y-113445276D02*
X133522500Y-113954724D01*
%TO.C,R28*%
X159877500Y-149945276D02*
X159877500Y-150454724D01*
X160922500Y-149945276D02*
X160922500Y-150454724D01*
%TO.C,R14*%
X126177500Y-110504724D02*
X126177500Y-109995276D01*
X127222500Y-110504724D02*
X127222500Y-109995276D01*
%TO.C,C25*%
X168577500Y-116454724D02*
X168577500Y-115945276D01*
X169622500Y-116454724D02*
X169622500Y-115945276D01*
%TO.C,C14*%
X116927064Y-117090000D02*
X115472936Y-117090000D01*
X116927064Y-118910000D02*
X115472936Y-118910000D01*
%TO.C,C5*%
X130877500Y-113445276D02*
X130877500Y-113954724D01*
X131922500Y-113445276D02*
X131922500Y-113954724D01*
%TO.C,R3*%
X120672936Y-135590000D02*
X122127064Y-135590000D01*
X120672936Y-137410000D02*
X122127064Y-137410000D01*
%TO.C,R7*%
X131977500Y-133745276D02*
X131977500Y-134254724D01*
X133022500Y-133745276D02*
X133022500Y-134254724D01*
%TO.C,R34*%
X176477500Y-133745276D02*
X176477500Y-134254724D01*
X177522500Y-133745276D02*
X177522500Y-134254724D01*
%TO.C,C35*%
X139654724Y-120577500D02*
X139145276Y-120577500D01*
X139654724Y-121622500D02*
X139145276Y-121622500D01*
%TO.C,R4*%
X104922936Y-135590000D02*
X106377064Y-135590000D01*
X104922936Y-137410000D02*
X106377064Y-137410000D01*
%TO.C,C30*%
X187545276Y-134077500D02*
X188054724Y-134077500D01*
X187545276Y-135122500D02*
X188054724Y-135122500D01*
%TO.C,C22*%
X166977500Y-116454724D02*
X166977500Y-115945276D01*
X168022500Y-116454724D02*
X168022500Y-115945276D01*
%TO.C,C27*%
X139654724Y-123677500D02*
X139145276Y-123677500D01*
X139654724Y-124722500D02*
X139145276Y-124722500D01*
%TO.C,R10*%
X115472936Y-114390000D02*
X116927064Y-114390000D01*
X115472936Y-116210000D02*
X116927064Y-116210000D01*
%TO.C,R22*%
X161251250Y-116319026D02*
X161251250Y-116828474D01*
X162296250Y-116319026D02*
X162296250Y-116828474D01*
%TO.C,R5*%
X125077500Y-132645276D02*
X125077500Y-133154724D01*
X126122500Y-132645276D02*
X126122500Y-133154724D01*
%TO.C,C32*%
X132777500Y-137854724D02*
X132777500Y-137345276D01*
X133822500Y-137854724D02*
X133822500Y-137345276D01*
%TO.C,C38*%
X165377500Y-116454724D02*
X165377500Y-115945276D01*
X166422500Y-116454724D02*
X166422500Y-115945276D01*
%TO.C,C43*%
X163290000Y-141827064D02*
X163290000Y-140372936D01*
X165110000Y-141827064D02*
X165110000Y-140372936D01*
%TO.C,TP4*%
X191300000Y-137900000D02*
G75*
G02*
X188900000Y-137900000I-1200000J0D01*
G01*
X188900000Y-137900000D02*
G75*
G02*
X191300000Y-137900000I1200000J0D01*
G01*
%TO.C,C9*%
X111727064Y-133090000D02*
X110272936Y-133090000D01*
X111727064Y-134910000D02*
X110272936Y-134910000D01*
%TO.C,C34*%
X131745276Y-115677500D02*
X132254724Y-115677500D01*
X131745276Y-116722500D02*
X132254724Y-116722500D01*
%TD*%
M02*
