%TF.GenerationSoftware,KiCad,Pcbnew,9.0.0*%
%TF.CreationDate,2025-05-24T18:36:09+02:00*%
%TF.ProjectId,DS100M08KV,44533130-304d-4303-984b-562e6b696361,rev?*%
%TF.SameCoordinates,Original*%
%TF.FileFunction,Copper,L3,Inr*%
%TF.FilePolarity,Positive*%
%FSLAX46Y46*%
G04 Gerber Fmt 4.6, Leading zero omitted, Abs format (unit mm)*
G04 Created by KiCad (PCBNEW 9.0.0) date 2025-05-24 18:36:09*
%MOMM*%
%LPD*%
G01*
G04 APERTURE LIST*
G04 Aperture macros list*
%AMRoundRect*
0 Rectangle with rounded corners*
0 $1 Rounding radius*
0 $2 $3 $4 $5 $6 $7 $8 $9 X,Y pos of 4 corners*
0 Add a 4 corners polygon primitive as box body*
4,1,4,$2,$3,$4,$5,$6,$7,$8,$9,$2,$3,0*
0 Add four circle primitives for the rounded corners*
1,1,$1+$1,$2,$3*
1,1,$1+$1,$4,$5*
1,1,$1+$1,$6,$7*
1,1,$1+$1,$8,$9*
0 Add four rect primitives between the rounded corners*
20,1,$1+$1,$2,$3,$4,$5,0*
20,1,$1+$1,$4,$5,$6,$7,0*
20,1,$1+$1,$6,$7,$8,$9,0*
20,1,$1+$1,$8,$9,$2,$3,0*%
G04 Aperture macros list end*
%TA.AperFunction,ComponentPad*%
%ADD10R,1.710000X1.800000*%
%TD*%
%TA.AperFunction,ComponentPad*%
%ADD11O,1.710000X1.800000*%
%TD*%
%TA.AperFunction,ComponentPad*%
%ADD12RoundRect,0.250000X-0.675000X-0.675000X0.675000X-0.675000X0.675000X0.675000X-0.675000X0.675000X0*%
%TD*%
%TA.AperFunction,ComponentPad*%
%ADD13RoundRect,0.250000X0.675000X-0.675000X0.675000X0.675000X-0.675000X0.675000X-0.675000X-0.675000X0*%
%TD*%
%TA.AperFunction,ComponentPad*%
%ADD14O,3.000000X1.500000*%
%TD*%
%TA.AperFunction,ComponentPad*%
%ADD15C,1.440000*%
%TD*%
%TA.AperFunction,ComponentPad*%
%ADD16R,1.800000X1.800000*%
%TD*%
%TA.AperFunction,ComponentPad*%
%ADD17C,1.800000*%
%TD*%
%TA.AperFunction,ComponentPad*%
%ADD18RoundRect,0.250000X-0.350000X-0.625000X0.350000X-0.625000X0.350000X0.625000X-0.350000X0.625000X0*%
%TD*%
%TA.AperFunction,ComponentPad*%
%ADD19O,1.200000X1.750000*%
%TD*%
%TA.AperFunction,ComponentPad*%
%ADD20R,1.600000X1.600000*%
%TD*%
%TA.AperFunction,ComponentPad*%
%ADD21C,1.600000*%
%TD*%
%TA.AperFunction,ComponentPad*%
%ADD22R,1.850000X1.850000*%
%TD*%
%TA.AperFunction,ComponentPad*%
%ADD23C,1.850000*%
%TD*%
%TA.AperFunction,ComponentPad*%
%ADD24C,2.600000*%
%TD*%
%TA.AperFunction,ViaPad*%
%ADD25C,0.800000*%
%TD*%
%TA.AperFunction,Conductor*%
%ADD26C,1.000000*%
%TD*%
%TA.AperFunction,Conductor*%
%ADD27C,0.500000*%
%TD*%
G04 APERTURE END LIST*
D10*
%TO.N,Net-(Q1-B)*%
%TO.C,Q1*%
X168700000Y-138000000D03*
D11*
%TO.N,Net-(PS1-+Vout)*%
X170980000Y-138000000D03*
%TO.N,+5V*%
X173260000Y-138000000D03*
%TD*%
D12*
%TO.N,IN+*%
%TO.C,J3*%
X101450000Y-134100000D03*
%TD*%
D13*
%TO.N,0*%
%TO.C,J11*%
X178300000Y-109900000D03*
%TD*%
D14*
%TO.N,unconnected-(SW2A-A-Pad1)*%
%TO.C,SW2*%
X154300000Y-135100000D03*
%TO.N,Net-(SW2A-B)*%
X150300000Y-135100000D03*
%TO.N,+BAT*%
X146300000Y-135100000D03*
%TO.N,unconnected-(SW2B-A-Pad4)*%
X146300000Y-132500000D03*
%TO.N,unconnected-(SW2B-B-Pad5)*%
X150300000Y-132500000D03*
%TO.N,unconnected-(SW2B-C-Pad6)*%
X154300000Y-132500000D03*
%TD*%
D12*
%TO.N,IN-*%
%TO.C,J4*%
X101600000Y-118300000D03*
%TD*%
D10*
%TO.N,Net-(Q4-B)*%
%TO.C,Q4*%
X181500000Y-138000000D03*
D11*
%TO.N,Net-(PS1--Vout)*%
X183780000Y-138000000D03*
%TO.N,-5V*%
X186060000Y-138000000D03*
%TD*%
D13*
%TO.N,Net-(J1-Pin_1)*%
%TO.C,J1*%
X178300000Y-113100000D03*
%TD*%
D15*
%TO.N,Net-(R12-Pad1)*%
%TO.C,RV2*%
X127600000Y-123560000D03*
%TO.N,0*%
X127600000Y-126100000D03*
%TO.N,Net-(R5-Pad1)*%
X127600000Y-128640000D03*
%TD*%
D16*
%TO.N,Net-(D6-K)*%
%TO.C,D6*%
X133830000Y-148600000D03*
D17*
%TO.N,Net-(D6-A)*%
X136370000Y-148600000D03*
%TD*%
D14*
%TO.N,Net-(SW1A-A)*%
%TO.C,SW1*%
X154300000Y-119500000D03*
%TO.N,Net-(SW1A-B)*%
X150300000Y-119500000D03*
%TO.N,Net-(SW1A-C)*%
X146300000Y-119500000D03*
%TO.N,Net-(SW1B-A)*%
X146300000Y-116900000D03*
%TO.N,Net-(SW1B-B)*%
X150300000Y-116900000D03*
%TO.N,Net-(SW1B-C)*%
X154300000Y-116900000D03*
%TD*%
D18*
%TO.N,+VBUS*%
%TO.C,J2*%
X143500000Y-141300000D03*
D19*
%TO.N,unconnected-(J2-Pin_2-Pad2)*%
X145500000Y-141300000D03*
%TO.N,unconnected-(J2-Pin_3-Pad3)*%
X147500000Y-141300000D03*
%TO.N,Earth*%
X149500000Y-141300000D03*
%TD*%
D20*
%TO.N,Net-(Q1-B)*%
%TO.C,C16*%
X167000000Y-142200000D03*
D21*
%TO.N,0*%
X169000000Y-142200000D03*
%TD*%
D22*
%TO.N,Net-(PS1-+Vin)*%
%TO.C,PS1*%
X169330000Y-150095000D03*
D23*
%TO.N,Earth*%
X171870000Y-150095000D03*
%TO.N,Net-(PS1--Vout)*%
X176950000Y-150095000D03*
%TO.N,0*%
X179490000Y-150095000D03*
%TO.N,Net-(PS1-+Vout)*%
X182030000Y-150095000D03*
%TD*%
D20*
%TO.N,Net-(PS1-+Vin)*%
%TO.C,C40*%
X155000000Y-150100000D03*
D21*
%TO.N,Earth*%
X155000000Y-148100000D03*
%TD*%
D15*
%TO.N,0*%
%TO.C,RV6*%
X130500000Y-105000000D03*
%TO.N,Net-(R14-Pad2)*%
X127960000Y-105000000D03*
%TO.N,+5V*%
X125420000Y-105000000D03*
%TD*%
D24*
%TO.N,Net-(SW2A-B)*%
%TO.C,L2*%
X161150000Y-141700000D03*
%TO.N,Net-(U7-SW)*%
X157650000Y-141700000D03*
%TD*%
D15*
%TO.N,0*%
%TO.C,RV5*%
X121800000Y-148850000D03*
%TO.N,Net-(R15-Pad2)*%
X121800000Y-146310000D03*
%TO.N,+5V*%
X121800000Y-143770000D03*
%TD*%
D20*
%TO.N,+5V*%
%TO.C,C44*%
X174900000Y-142200000D03*
D21*
%TO.N,0*%
X172900000Y-142200000D03*
%TD*%
D15*
%TO.N,-5V*%
%TO.C,RV4*%
X162200000Y-105000000D03*
%TO.N,Net-(C4-Pad2)*%
X159660000Y-105000000D03*
%TO.N,+5V*%
X157120000Y-105000000D03*
%TD*%
D20*
%TO.N,0*%
%TO.C,C20*%
X181900000Y-142200000D03*
D21*
%TO.N,Net-(Q4-B)*%
X179900000Y-142200000D03*
%TD*%
D15*
%TO.N,-5V*%
%TO.C,RV1*%
X127700000Y-148850000D03*
%TO.N,Net-(C32-Pad2)*%
X127700000Y-146310000D03*
%TO.N,+5V*%
X127700000Y-143770000D03*
%TD*%
D20*
%TO.N,0*%
%TO.C,C36*%
X185700000Y-142200000D03*
D21*
%TO.N,-5V*%
X187700000Y-142200000D03*
%TD*%
D25*
%TO.N,0*%
X170212500Y-132100000D03*
X141400000Y-124200000D03*
X160500000Y-117500000D03*
X130500000Y-107600000D03*
X176000000Y-131500000D03*
X130100000Y-120200000D03*
X128500000Y-107600000D03*
X176000000Y-133100000D03*
X171900000Y-133700000D03*
X131500000Y-140000000D03*
X169100000Y-118000000D03*
X176400000Y-107100000D03*
X176300000Y-110500000D03*
X165900000Y-118100000D03*
X125600000Y-112800000D03*
X133300000Y-139600000D03*
X176300000Y-108800000D03*
X167500000Y-118100000D03*
X131900000Y-111700000D03*
X129700000Y-135500000D03*
X189700000Y-134600000D03*
X160800000Y-119600000D03*
X131308118Y-135550000D03*
X129500000Y-140000000D03*
%TO.N,+5V*%
X134000000Y-122950000D03*
X132350000Y-107650000D03*
%TO.N,-5V*%
X141300000Y-125800000D03*
X134250000Y-107700000D03*
X134000000Y-121100000D03*
X170600000Y-118000000D03*
%TO.N,Net-(C32-Pad2)*%
X133200000Y-135600000D03*
%TO.N,Earth*%
X136900000Y-145900000D03*
X135300000Y-145900000D03*
X165300000Y-148800000D03*
X140700000Y-139800000D03*
X141400000Y-150000000D03*
X142200000Y-149400000D03*
X156600000Y-146800000D03*
X165350000Y-146600000D03*
X147800000Y-150200000D03*
%TO.N,+BAT*%
X137800000Y-150000000D03*
X139800000Y-137800000D03*
%TO.N,-BAT*%
X148750000Y-145000000D03*
%TO.N,Net-(PS1-+Vin)*%
X162200000Y-150800000D03*
%TO.N,Net-(PS1--Vout)*%
X178100000Y-140400000D03*
%TO.N,Net-(C4-Pad2)*%
X163512500Y-118600000D03*
%TD*%
D26*
%TO.N,+5V*%
X130386827Y-106500000D02*
X127980660Y-106500000D01*
X133900000Y-123825000D02*
X133900000Y-123120710D01*
D27*
X127700000Y-143770000D02*
X121800000Y-143770000D01*
D26*
X126170000Y-105750000D02*
X125420000Y-105000000D01*
X130500000Y-111910050D02*
X130500000Y-110808147D01*
X129293792Y-129206207D02*
X133351992Y-125148007D01*
X131900000Y-119365075D02*
X131900000Y-115289949D01*
X131425000Y-108575000D02*
X132350000Y-107650000D01*
X127700000Y-143770000D02*
X127700000Y-133053963D01*
X131980565Y-107280565D02*
X131928562Y-107280565D01*
X132350000Y-107650000D02*
X131980565Y-107280565D01*
X133950000Y-122900000D02*
X132950000Y-121900000D01*
X131928562Y-107280565D02*
G75*
G03*
X131774993Y-107075007I-803362J-440035D01*
G01*
X130500000Y-110808147D02*
G75*
G02*
X131424986Y-108574986I3158100J47D01*
G01*
X133900000Y-123120710D02*
G75*
G02*
X133949997Y-122999997I170700J10D01*
G01*
X131775000Y-107075000D02*
G75*
G03*
X130386827Y-106499989I-1388200J-1388200D01*
G01*
X132950000Y-121900000D02*
G75*
G02*
X131900010Y-119365075I2534900J2534900D01*
G01*
X133351992Y-125148007D02*
G75*
G03*
X133900004Y-123825000I-1322992J1323007D01*
G01*
X131200000Y-113600000D02*
G75*
G02*
X130499979Y-111910050I1690000J1690000D01*
G01*
X133950000Y-123000000D02*
G75*
G03*
X133950000Y-122900000I-50000J50000D01*
G01*
X127700000Y-133053963D02*
G75*
G02*
X129293821Y-129206236I5441500J-37D01*
G01*
X131900000Y-115289949D02*
G75*
G03*
X131199985Y-113600015I-2390000J-51D01*
G01*
X127980660Y-106500000D02*
G75*
G02*
X126170012Y-105749988I40J2560700D01*
G01*
D27*
%TO.N,-5V*%
X128750000Y-147800000D02*
X127700000Y-148850000D01*
X129800000Y-145265075D02*
X129800000Y-143321116D01*
D26*
X170600000Y-117942950D02*
X170600000Y-117850000D01*
D27*
X131973008Y-141200000D02*
X131921116Y-141200000D01*
D26*
X186100000Y-137960000D02*
X186060000Y-138000000D01*
X170600000Y-118028525D02*
X170600000Y-118000000D01*
D27*
X135350000Y-121100000D02*
X134000000Y-121100000D01*
X134001747Y-140101747D02*
X133561450Y-140542045D01*
X134275000Y-107725000D02*
X134250000Y-107700000D01*
D26*
X170493933Y-117593933D02*
X169700000Y-116800000D01*
X161300000Y-111973654D02*
X161300000Y-106536396D01*
D27*
X134000000Y-121100000D02*
X134000000Y-117412132D01*
D26*
X162250000Y-105000000D02*
X162300000Y-105000000D01*
X164450842Y-124206207D02*
X170579829Y-118077220D01*
D27*
X141264644Y-125835355D02*
X136693792Y-130406207D01*
X135100000Y-137450333D02*
X135100000Y-134253963D01*
X134300000Y-107785355D02*
X134300000Y-116687867D01*
D26*
X160603086Y-125800000D02*
X141350000Y-125800000D01*
X167527207Y-115900000D02*
X165226345Y-115900000D01*
X170600000Y-117942950D02*
X170600000Y-118000000D01*
X161749999Y-105449999D02*
X162164644Y-105035355D01*
D27*
X137654594Y-122054594D02*
X141264644Y-125664644D01*
D26*
X161749999Y-105449999D02*
G75*
G03*
X161299997Y-106536396I1086401J-1086401D01*
G01*
X167527207Y-115900000D02*
G75*
G02*
X169699998Y-116800002I-7J-3072800D01*
G01*
D27*
X134001747Y-140101747D02*
G75*
G03*
X135100012Y-137450333I-2651447J2651447D01*
G01*
X141300000Y-125750000D02*
G75*
G03*
X141264642Y-125664646I-120700J0D01*
G01*
X134150000Y-117050000D02*
G75*
G03*
X134000013Y-117412132I362100J-362100D01*
G01*
D26*
X161300000Y-111973654D02*
G75*
G03*
X162449987Y-114750013I3926300J-46D01*
G01*
D27*
X129800000Y-145265075D02*
G75*
G02*
X128750007Y-147800007I-3584900J-25D01*
G01*
X131973008Y-141200000D02*
G75*
G03*
X133561447Y-140542042I-8J2246400D01*
G01*
D26*
X141264644Y-125835355D02*
G75*
G02*
X141350000Y-125799996I85356J-85345D01*
G01*
D27*
X141300000Y-125750000D02*
G75*
G02*
X141264642Y-125835353I-120700J0D01*
G01*
X134150000Y-117050000D02*
G75*
G03*
X134299987Y-116687867I-362100J362100D01*
G01*
X130421260Y-141821260D02*
G75*
G03*
X129800006Y-143321116I1499840J-1499840D01*
G01*
D26*
X164450842Y-124206207D02*
G75*
G02*
X160603086Y-125799975I-3847742J3847807D01*
G01*
X162164644Y-105035355D02*
G75*
G02*
X162250000Y-104999996I85356J-85345D01*
G01*
D27*
X141300000Y-125750000D02*
G75*
G03*
X141350000Y-125800000I50000J0D01*
G01*
X134300000Y-107785355D02*
G75*
G03*
X134274987Y-107725013I-85400J-45D01*
G01*
D26*
X165226345Y-115900000D02*
G75*
G02*
X162449966Y-114750034I-45J3926400D01*
G01*
D27*
X130421260Y-141821260D02*
G75*
G02*
X131921116Y-141200006I1499840J-1499840D01*
G01*
D26*
X170600000Y-118028525D02*
G75*
G02*
X170579824Y-118077215I-68900J25D01*
G01*
D27*
X137654594Y-122054594D02*
G75*
G03*
X135350000Y-121100003I-2304594J-2304606D01*
G01*
X136693792Y-130406207D02*
G75*
G03*
X135099959Y-134253963I3847708J-3847793D01*
G01*
D26*
X170493933Y-117593933D02*
G75*
G02*
X170600009Y-117850000I-256033J-256067D01*
G01*
D27*
%TO.N,Net-(C32-Pad2)*%
X129000000Y-144090761D02*
X129000000Y-142789949D01*
X131107106Y-137692893D02*
X133200000Y-135600000D01*
X130400000Y-139410050D02*
X130400000Y-139400000D01*
X128350000Y-145660000D02*
X127700000Y-146310000D01*
X128350000Y-145660000D02*
G75*
G03*
X128999984Y-144090761I-1569200J1569200D01*
G01*
X129700000Y-141100000D02*
G75*
G03*
X129000021Y-142789949I1689900J-1689900D01*
G01*
X130400000Y-139410050D02*
G75*
G02*
X129699985Y-141099985I-2390000J50D01*
G01*
X130400000Y-139400000D02*
G75*
G02*
X131107109Y-137692896I2414200J0D01*
G01*
D26*
%TO.N,Net-(PS1-+Vout)*%
X177755521Y-145820521D02*
X182030000Y-150095000D01*
X170980000Y-141563776D02*
X170980000Y-138000000D01*
X174567500Y-144500000D02*
X173916223Y-144500000D01*
X174567500Y-144500000D02*
G75*
G02*
X177755512Y-145820530I0J-4508500D01*
G01*
X170980000Y-141563776D02*
G75*
G03*
X171839993Y-143640007I2936200J-24D01*
G01*
X171840000Y-143640000D02*
G75*
G03*
X173916223Y-144499990I2076200J2076200D01*
G01*
D27*
%TO.N,+BAT*%
X138800000Y-138800000D02*
X139800000Y-137800000D01*
X137800000Y-141214213D02*
X137800000Y-150000000D01*
X138800000Y-138800000D02*
G75*
G03*
X137800006Y-141214213I2414200J-2414200D01*
G01*
D26*
%TO.N,Net-(PS1--Vout)*%
X178300000Y-140200000D02*
X178100000Y-140400000D01*
X183780000Y-138335000D02*
X183780000Y-138000000D01*
X183543119Y-138906880D02*
X183114999Y-139334999D01*
X181509547Y-140000000D02*
X178782842Y-140000000D01*
X178300000Y-140200000D02*
G75*
G02*
X178782842Y-140000018I482800J-482800D01*
G01*
X181509547Y-140000000D02*
G75*
G03*
X183114986Y-139334986I-47J2270500D01*
G01*
X183543119Y-138906880D02*
G75*
G03*
X183779988Y-138335000I-571919J571880D01*
G01*
%TO.N,Net-(C4-Pad2)*%
X159700000Y-112546036D02*
X159700000Y-105600000D01*
X161293792Y-116393792D02*
X163495580Y-118595580D01*
X163506250Y-118600000D02*
X163512500Y-118600000D01*
X161293792Y-116393792D02*
G75*
G02*
X159699989Y-112546036I3847808J3847792D01*
G01*
X163506250Y-118600000D02*
G75*
G02*
X163495603Y-118595557I50J15100D01*
G01*
%TD*%
M02*
