%TF.GenerationSoftware,KiCad,Pcbnew,7.0.10*%
%TF.CreationDate,2024-07-07T01:33:31+02:00*%
%TF.ProjectId,DS100M06V_linear,44533130-304d-4303-9656-5f6c696e6561,rev?*%
%TF.SameCoordinates,Original*%
%TF.FileFunction,Soldermask,Top*%
%TF.FilePolarity,Negative*%
%FSLAX46Y46*%
G04 Gerber Fmt 4.6, Leading zero omitted, Abs format (unit mm)*
G04 Created by KiCad (PCBNEW 7.0.10) date 2024-07-07 01:33:31*
%MOMM*%
%LPD*%
G01*
G04 APERTURE LIST*
G04 Aperture macros list*
%AMRoundRect*
0 Rectangle with rounded corners*
0 $1 Rounding radius*
0 $2 $3 $4 $5 $6 $7 $8 $9 X,Y pos of 4 corners*
0 Add a 4 corners polygon primitive as box body*
4,1,4,$2,$3,$4,$5,$6,$7,$8,$9,$2,$3,0*
0 Add four circle primitives for the rounded corners*
1,1,$1+$1,$2,$3*
1,1,$1+$1,$4,$5*
1,1,$1+$1,$6,$7*
1,1,$1+$1,$8,$9*
0 Add four rect primitives between the rounded corners*
20,1,$1+$1,$2,$3,$4,$5,0*
20,1,$1+$1,$4,$5,$6,$7,0*
20,1,$1+$1,$6,$7,$8,$9,0*
20,1,$1+$1,$8,$9,$2,$3,0*%
G04 Aperture macros list end*
%ADD10RoundRect,0.237500X0.250000X0.237500X-0.250000X0.237500X-0.250000X-0.237500X0.250000X-0.237500X0*%
%ADD11RoundRect,0.237500X-0.237500X0.250000X-0.237500X-0.250000X0.237500X-0.250000X0.237500X0.250000X0*%
%ADD12RoundRect,0.250000X0.262500X0.450000X-0.262500X0.450000X-0.262500X-0.450000X0.262500X-0.450000X0*%
%ADD13R,1.600000X2.300000*%
%ADD14RoundRect,0.150000X-0.825000X-0.150000X0.825000X-0.150000X0.825000X0.150000X-0.825000X0.150000X0*%
%ADD15O,3.500000X3.500000*%
%ADD16R,2.000000X1.905000*%
%ADD17O,2.000000X1.905000*%
%ADD18RoundRect,0.237500X0.237500X-0.250000X0.237500X0.250000X-0.237500X0.250000X-0.237500X-0.250000X0*%
%ADD19C,1.440000*%
%ADD20RoundRect,0.237500X-0.250000X-0.237500X0.250000X-0.237500X0.250000X0.237500X-0.250000X0.237500X0*%
%ADD21RoundRect,0.250000X0.600000X-0.600000X0.600000X0.600000X-0.600000X0.600000X-0.600000X-0.600000X0*%
%ADD22RoundRect,0.250000X-0.675000X-0.675000X0.675000X-0.675000X0.675000X0.675000X-0.675000X0.675000X0*%
%ADD23R,1.850000X1.850000*%
%ADD24C,1.850000*%
%ADD25C,2.000000*%
%ADD26RoundRect,0.250000X-0.400000X-0.625000X0.400000X-0.625000X0.400000X0.625000X-0.400000X0.625000X0*%
%ADD27RoundRect,0.150000X0.150000X-0.587500X0.150000X0.587500X-0.150000X0.587500X-0.150000X-0.587500X0*%
%ADD28RoundRect,0.150000X-0.150000X0.587500X-0.150000X-0.587500X0.150000X-0.587500X0.150000X0.587500X0*%
%ADD29R,1.400000X1.400000*%
%ADD30C,1.400000*%
%ADD31RoundRect,0.462500X-0.462500X-0.462500X0.462500X-0.462500X0.462500X0.462500X-0.462500X0.462500X0*%
%ADD32RoundRect,0.150000X0.150000X-0.825000X0.150000X0.825000X-0.150000X0.825000X-0.150000X-0.825000X0*%
G04 APERTURE END LIST*
D10*
%TO.C,R14*%
X149212500Y-124600000D03*
X147387500Y-124600000D03*
%TD*%
D11*
%TO.C,R51*%
X127100000Y-131087500D03*
X127100000Y-132912500D03*
%TD*%
D10*
%TO.C,R13*%
X149112500Y-119100000D03*
X147287500Y-119100000D03*
%TD*%
D12*
%TO.C,C39*%
X94812500Y-131900000D03*
X92987500Y-131900000D03*
%TD*%
D13*
%TO.C,C16*%
X114300000Y-118350000D03*
X114300000Y-113650000D03*
%TD*%
D14*
%TO.C,U4*%
X152025000Y-120295000D03*
X152025000Y-121565000D03*
X152025000Y-122835000D03*
X152025000Y-124105000D03*
X156975000Y-124105000D03*
X156975000Y-122835000D03*
X156975000Y-121565000D03*
X156975000Y-120295000D03*
%TD*%
D15*
%TO.C,U3*%
X189380000Y-115400000D03*
D16*
X172720000Y-117940000D03*
D17*
X172720000Y-115400000D03*
X172720000Y-112860000D03*
%TD*%
D18*
%TO.C,C34*%
X127900000Y-122412500D03*
X127900000Y-120587500D03*
%TD*%
D19*
%TO.C,RV2*%
X119650000Y-126900000D03*
X122190000Y-126900000D03*
X124730000Y-126900000D03*
%TD*%
D20*
%TO.C,R35*%
X159187500Y-124600000D03*
X161012500Y-124600000D03*
%TD*%
D11*
%TO.C,C5*%
X123500000Y-131087500D03*
X123500000Y-132912500D03*
%TD*%
D21*
%TO.C,J5*%
X191100000Y-126450000D03*
%TD*%
D10*
%TO.C,R19*%
X149112500Y-117100000D03*
X147287500Y-117100000D03*
%TD*%
D22*
%TO.C,J3*%
X89700000Y-132000000D03*
%TD*%
D11*
%TO.C,C24*%
X121700000Y-131087500D03*
X121700000Y-132912500D03*
%TD*%
D23*
%TO.C,PS1*%
X185610000Y-126340000D03*
D24*
X183070000Y-126340000D03*
X177990000Y-126340000D03*
X175450000Y-126340000D03*
X172910000Y-126340000D03*
%TD*%
D25*
%TO.C,TP4*%
X129000000Y-118750000D03*
%TD*%
%TO.C,TP2*%
X118100000Y-111700000D03*
%TD*%
D21*
%TO.C,J2*%
X191100000Y-122700000D03*
%TD*%
D10*
%TO.C,C18*%
X136912500Y-129750000D03*
X135087500Y-129750000D03*
%TD*%
%TO.C,C37*%
X161012500Y-121200000D03*
X159187500Y-121200000D03*
%TD*%
D26*
%TO.C,R11*%
X107850000Y-111800000D03*
X110950000Y-111800000D03*
%TD*%
D18*
%TO.C,C4*%
X169300000Y-118112500D03*
X169300000Y-116287500D03*
%TD*%
D26*
%TO.C,R8*%
X92250000Y-111800000D03*
X95350000Y-111800000D03*
%TD*%
D11*
%TO.C,C6*%
X119900000Y-131087500D03*
X119900000Y-132912500D03*
%TD*%
D27*
%TO.C,D2*%
X129550000Y-133137500D03*
X131450000Y-133137500D03*
X130500000Y-131262500D03*
%TD*%
D20*
%TO.C,R21*%
X147387500Y-126300000D03*
X149212500Y-126300000D03*
%TD*%
D28*
%TO.C,D3*%
X132550000Y-114262500D03*
X130650000Y-114262500D03*
X131600000Y-116137500D03*
%TD*%
D18*
%TO.C,C15*%
X118100000Y-115812500D03*
X118100000Y-113987500D03*
%TD*%
%TO.C,C2*%
X169700000Y-130825000D03*
X169700000Y-129000000D03*
%TD*%
D22*
%TO.C,J7*%
X164000000Y-125900000D03*
%TD*%
D20*
%TO.C,R18*%
X153587500Y-118700000D03*
X155412500Y-118700000D03*
%TD*%
D12*
%TO.C,C42*%
X110512500Y-131900000D03*
X108687500Y-131900000D03*
%TD*%
D22*
%TO.C,J4*%
X89600000Y-114200000D03*
%TD*%
D25*
%TO.C,TP3*%
X129500000Y-137000000D03*
%TD*%
D26*
%TO.C,R9*%
X97450000Y-111800000D03*
X100550000Y-111800000D03*
%TD*%
D25*
%TO.C,*%
X129000000Y-111500000D03*
%TD*%
D11*
%TO.C,C3*%
X169800000Y-134337500D03*
X169800000Y-136162500D03*
%TD*%
D18*
%TO.C,R12*%
X126400000Y-115812500D03*
X126400000Y-113987500D03*
%TD*%
D10*
%TO.C,C21*%
X161012500Y-119500000D03*
X159187500Y-119500000D03*
%TD*%
D26*
%TO.C,R1*%
X97650000Y-134400000D03*
X100750000Y-134400000D03*
%TD*%
D20*
%TO.C,R16*%
X147387500Y-123000000D03*
X149212500Y-123000000D03*
%TD*%
D12*
%TO.C,C10*%
X99912500Y-114300000D03*
X98087500Y-114300000D03*
%TD*%
D29*
%TO.C,SW1*%
X144007500Y-124750000D03*
D30*
X141507500Y-124750000D03*
X139007500Y-124750000D03*
X144007500Y-121450000D03*
X141507500Y-121450000D03*
X139007500Y-121450000D03*
%TD*%
D18*
%TO.C,C23*%
X124300000Y-115812500D03*
X124300000Y-113987500D03*
%TD*%
D26*
%TO.C,R2*%
X102850000Y-134400000D03*
X105950000Y-134400000D03*
%TD*%
D19*
%TO.C,RV3*%
X119350000Y-119900000D03*
X121890000Y-119900000D03*
X124430000Y-119900000D03*
%TD*%
D25*
%TO.C,TP1*%
X118200000Y-135200000D03*
%TD*%
D18*
%TO.C,C14*%
X120200000Y-115812500D03*
X120200000Y-113987500D03*
%TD*%
D31*
%TO.C,J6*%
X164000000Y-123000000D03*
%TD*%
D18*
%TO.C,C1*%
X188550000Y-125312500D03*
X188550000Y-123487500D03*
%TD*%
D20*
%TO.C,R20*%
X147387500Y-128100000D03*
X149212500Y-128100000D03*
%TD*%
D13*
%TO.C,C8*%
X114400000Y-132250000D03*
X114400000Y-127550000D03*
%TD*%
D10*
%TO.C,R17*%
X161012500Y-122900000D03*
X159187500Y-122900000D03*
%TD*%
%TO.C,R6*%
X149112500Y-115400000D03*
X147287500Y-115400000D03*
%TD*%
D32*
%TO.C,U1*%
X131095000Y-125975000D03*
X132365000Y-125975000D03*
X133635000Y-125975000D03*
X134905000Y-125975000D03*
X134905000Y-121025000D03*
X133635000Y-121025000D03*
X132365000Y-121025000D03*
X131095000Y-121025000D03*
%TD*%
D18*
%TO.C,C17*%
X129500000Y-122412500D03*
X129500000Y-120587500D03*
%TD*%
D11*
%TO.C,C7*%
X118100000Y-131087500D03*
X118100000Y-132912500D03*
%TD*%
D12*
%TO.C,C41*%
X105312500Y-131900000D03*
X103487500Y-131900000D03*
%TD*%
D18*
%TO.C,R52*%
X128400000Y-115812500D03*
X128400000Y-113987500D03*
%TD*%
D19*
%TO.C,RV1*%
X109200000Y-123000000D03*
X111740000Y-123000000D03*
X114280000Y-123000000D03*
%TD*%
D26*
%TO.C,R3*%
X108050000Y-134400000D03*
X111150000Y-134400000D03*
%TD*%
D18*
%TO.C,R7*%
X108600000Y-128712500D03*
X108600000Y-126887500D03*
%TD*%
D10*
%TO.C,C35*%
X136912500Y-128250000D03*
X135087500Y-128250000D03*
%TD*%
D12*
%TO.C,C11*%
X94712500Y-114300000D03*
X92887500Y-114300000D03*
%TD*%
D10*
%TO.C,R15*%
X149112500Y-120900000D03*
X147287500Y-120900000D03*
%TD*%
D26*
%TO.C,R4*%
X92350000Y-134400000D03*
X95450000Y-134400000D03*
%TD*%
D12*
%TO.C,C12*%
X110312500Y-114300000D03*
X108487500Y-114300000D03*
%TD*%
D18*
%TO.C,C22*%
X153100000Y-127812500D03*
X153100000Y-125987500D03*
%TD*%
D25*
%TO.C,*%
X104500000Y-122750000D03*
%TD*%
D26*
%TO.C,R10*%
X102650000Y-111800000D03*
X105750000Y-111800000D03*
%TD*%
D18*
%TO.C,C13*%
X122200000Y-115812500D03*
X122200000Y-113987500D03*
%TD*%
D10*
%TO.C,R22*%
X149212500Y-129900000D03*
X147387500Y-129900000D03*
%TD*%
D11*
%TO.C,R5*%
X125300000Y-131087500D03*
X125300000Y-132912500D03*
%TD*%
D18*
%TO.C,C32*%
X111200000Y-128712500D03*
X111200000Y-126887500D03*
%TD*%
%TO.C,C38*%
X151500000Y-127812500D03*
X151500000Y-125987500D03*
%TD*%
D12*
%TO.C,C9*%
X105112500Y-114300000D03*
X103287500Y-114300000D03*
%TD*%
D25*
%TO.C,TP4*%
X138500000Y-115000000D03*
%TD*%
D15*
%TO.C,U5*%
X189400000Y-133840000D03*
D16*
X172740000Y-136380000D03*
D17*
X172740000Y-133840000D03*
X172740000Y-131300000D03*
%TD*%
D12*
%TO.C,C40*%
X100112500Y-131900000D03*
X98287500Y-131900000D03*
%TD*%
D11*
%TO.C,C19*%
X169300000Y-112887500D03*
X169300000Y-114712500D03*
%TD*%
M02*
