%TF.GenerationSoftware,KiCad,Pcbnew,9.0.0*%
%TF.CreationDate,2025-05-24T18:36:10+02:00*%
%TF.ProjectId,DS100M08KV,44533130-304d-4303-984b-562e6b696361,rev?*%
%TF.SameCoordinates,Original*%
%TF.FileFunction,Copper,L4,Bot*%
%TF.FilePolarity,Positive*%
%FSLAX46Y46*%
G04 Gerber Fmt 4.6, Leading zero omitted, Abs format (unit mm)*
G04 Created by KiCad (PCBNEW 9.0.0) date 2025-05-24 18:36:10*
%MOMM*%
%LPD*%
G01*
G04 APERTURE LIST*
G04 Aperture macros list*
%AMRoundRect*
0 Rectangle with rounded corners*
0 $1 Rounding radius*
0 $2 $3 $4 $5 $6 $7 $8 $9 X,Y pos of 4 corners*
0 Add a 4 corners polygon primitive as box body*
4,1,4,$2,$3,$4,$5,$6,$7,$8,$9,$2,$3,0*
0 Add four circle primitives for the rounded corners*
1,1,$1+$1,$2,$3*
1,1,$1+$1,$4,$5*
1,1,$1+$1,$6,$7*
1,1,$1+$1,$8,$9*
0 Add four rect primitives between the rounded corners*
20,1,$1+$1,$2,$3,$4,$5,0*
20,1,$1+$1,$4,$5,$6,$7,0*
20,1,$1+$1,$6,$7,$8,$9,0*
20,1,$1+$1,$8,$9,$2,$3,0*%
G04 Aperture macros list end*
%TA.AperFunction,ComponentPad*%
%ADD10R,1.710000X1.800000*%
%TD*%
%TA.AperFunction,ComponentPad*%
%ADD11O,1.710000X1.800000*%
%TD*%
%TA.AperFunction,ComponentPad*%
%ADD12RoundRect,0.250000X-0.675000X-0.675000X0.675000X-0.675000X0.675000X0.675000X-0.675000X0.675000X0*%
%TD*%
%TA.AperFunction,ComponentPad*%
%ADD13RoundRect,0.250000X0.675000X-0.675000X0.675000X0.675000X-0.675000X0.675000X-0.675000X-0.675000X0*%
%TD*%
%TA.AperFunction,ComponentPad*%
%ADD14O,3.000000X1.500000*%
%TD*%
%TA.AperFunction,ComponentPad*%
%ADD15C,1.440000*%
%TD*%
%TA.AperFunction,ComponentPad*%
%ADD16R,1.800000X1.800000*%
%TD*%
%TA.AperFunction,ComponentPad*%
%ADD17C,1.800000*%
%TD*%
%TA.AperFunction,ComponentPad*%
%ADD18RoundRect,0.250000X-0.350000X-0.625000X0.350000X-0.625000X0.350000X0.625000X-0.350000X0.625000X0*%
%TD*%
%TA.AperFunction,ComponentPad*%
%ADD19O,1.200000X1.750000*%
%TD*%
%TA.AperFunction,ComponentPad*%
%ADD20R,1.600000X1.600000*%
%TD*%
%TA.AperFunction,ComponentPad*%
%ADD21C,1.600000*%
%TD*%
%TA.AperFunction,ComponentPad*%
%ADD22R,1.850000X1.850000*%
%TD*%
%TA.AperFunction,ComponentPad*%
%ADD23C,1.850000*%
%TD*%
%TA.AperFunction,ComponentPad*%
%ADD24C,2.600000*%
%TD*%
%TA.AperFunction,SMDPad,CuDef*%
%ADD25RoundRect,1.600000X-2.050000X-1.600000X2.050000X-1.600000X2.050000X1.600000X-2.050000X1.600000X0*%
%TD*%
%TA.AperFunction,ViaPad*%
%ADD26C,0.800000*%
%TD*%
%TA.AperFunction,Conductor*%
%ADD27C,2.000000*%
%TD*%
G04 APERTURE END LIST*
D10*
%TO.P,Q1,1,B*%
%TO.N,Net-(Q1-B)*%
X168700000Y-138000000D03*
D11*
%TO.P,Q1,2,C*%
%TO.N,Net-(PS1-+Vout)*%
X170980000Y-138000000D03*
%TO.P,Q1,3,E*%
%TO.N,+5V*%
X173260000Y-138000000D03*
%TD*%
D12*
%TO.P,J3,1,Pin_1*%
%TO.N,IN+*%
X101450000Y-134100000D03*
%TD*%
D13*
%TO.P,J11,1,Pin_1*%
%TO.N,0*%
X178300000Y-109900000D03*
%TD*%
D14*
%TO.P,SW2,1,A*%
%TO.N,unconnected-(SW2A-A-Pad1)*%
X154300000Y-135100000D03*
%TO.P,SW2,2,B*%
%TO.N,Net-(SW2A-B)*%
X150300000Y-135100000D03*
%TO.P,SW2,3,C*%
%TO.N,+BAT*%
X146300000Y-135100000D03*
%TO.P,SW2,4,A*%
%TO.N,unconnected-(SW2B-A-Pad4)*%
X146300000Y-132500000D03*
%TO.P,SW2,5,B*%
%TO.N,unconnected-(SW2B-B-Pad5)*%
X150300000Y-132500000D03*
%TO.P,SW2,6,C*%
%TO.N,unconnected-(SW2B-C-Pad6)*%
X154300000Y-132500000D03*
%TD*%
D12*
%TO.P,J4,1,Pin_1*%
%TO.N,IN-*%
X101600000Y-118300000D03*
%TD*%
D10*
%TO.P,Q4,1,B*%
%TO.N,Net-(Q4-B)*%
X181500000Y-138000000D03*
D11*
%TO.P,Q4,2,C*%
%TO.N,Net-(PS1--Vout)*%
X183780000Y-138000000D03*
%TO.P,Q4,3,E*%
%TO.N,-5V*%
X186060000Y-138000000D03*
%TD*%
D13*
%TO.P,J1,1,Pin_1*%
%TO.N,Net-(J1-Pin_1)*%
X178300000Y-113100000D03*
%TD*%
D15*
%TO.P,RV2,1,1*%
%TO.N,Net-(R12-Pad1)*%
X127600000Y-123560000D03*
%TO.P,RV2,2,2*%
%TO.N,0*%
X127600000Y-126100000D03*
%TO.P,RV2,3,3*%
%TO.N,Net-(R5-Pad1)*%
X127600000Y-128640000D03*
%TD*%
D16*
%TO.P,D6,1,K*%
%TO.N,Net-(D6-K)*%
X133830000Y-148600000D03*
D17*
%TO.P,D6,2,A*%
%TO.N,Net-(D6-A)*%
X136370000Y-148600000D03*
%TD*%
D14*
%TO.P,SW1,1,A*%
%TO.N,Net-(SW1A-A)*%
X154300000Y-119500000D03*
%TO.P,SW1,2,B*%
%TO.N,Net-(SW1A-B)*%
X150300000Y-119500000D03*
%TO.P,SW1,3,C*%
%TO.N,Net-(SW1A-C)*%
X146300000Y-119500000D03*
%TO.P,SW1,4,A*%
%TO.N,Net-(SW1B-A)*%
X146300000Y-116900000D03*
%TO.P,SW1,5,B*%
%TO.N,Net-(SW1B-B)*%
X150300000Y-116900000D03*
%TO.P,SW1,6,C*%
%TO.N,Net-(SW1B-C)*%
X154300000Y-116900000D03*
%TD*%
D18*
%TO.P,J2,1,Pin_1*%
%TO.N,+VBUS*%
X143500000Y-141300000D03*
D19*
%TO.P,J2,2,Pin_2*%
%TO.N,unconnected-(J2-Pin_2-Pad2)*%
X145500000Y-141300000D03*
%TO.P,J2,3,Pin_3*%
%TO.N,unconnected-(J2-Pin_3-Pad3)*%
X147500000Y-141300000D03*
%TO.P,J2,4,Pin_4*%
%TO.N,Earth*%
X149500000Y-141300000D03*
%TD*%
D20*
%TO.P,C16,1*%
%TO.N,Net-(Q1-B)*%
X167000000Y-142200000D03*
D21*
%TO.P,C16,2*%
%TO.N,0*%
X169000000Y-142200000D03*
%TD*%
D22*
%TO.P,PS1,1,+Vin*%
%TO.N,Net-(PS1-+Vin)*%
X169330000Y-150095000D03*
D23*
%TO.P,PS1,2,-Vin*%
%TO.N,Earth*%
X171870000Y-150095000D03*
%TO.P,PS1,4,-Vout*%
%TO.N,Net-(PS1--Vout)*%
X176950000Y-150095000D03*
%TO.P,PS1,5,0V*%
%TO.N,0*%
X179490000Y-150095000D03*
%TO.P,PS1,6,+Vout*%
%TO.N,Net-(PS1-+Vout)*%
X182030000Y-150095000D03*
%TD*%
D20*
%TO.P,C40,1*%
%TO.N,Net-(PS1-+Vin)*%
X155000000Y-150100000D03*
D21*
%TO.P,C40,2*%
%TO.N,Earth*%
X155000000Y-148100000D03*
%TD*%
D15*
%TO.P,RV6,1,1*%
%TO.N,0*%
X130500000Y-105000000D03*
%TO.P,RV6,2,2*%
%TO.N,Net-(R14-Pad2)*%
X127960000Y-105000000D03*
%TO.P,RV6,3,3*%
%TO.N,+5V*%
X125420000Y-105000000D03*
%TD*%
D24*
%TO.P,L2,1,1*%
%TO.N,Net-(SW2A-B)*%
X161150000Y-141700000D03*
%TO.P,L2,2,2*%
%TO.N,Net-(U7-SW)*%
X157650000Y-141700000D03*
%TD*%
D15*
%TO.P,RV5,1,1*%
%TO.N,0*%
X121800000Y-148850000D03*
%TO.P,RV5,2,2*%
%TO.N,Net-(R15-Pad2)*%
X121800000Y-146310000D03*
%TO.P,RV5,3,3*%
%TO.N,+5V*%
X121800000Y-143770000D03*
%TD*%
D20*
%TO.P,C44,1*%
%TO.N,+5V*%
X174900000Y-142200000D03*
D21*
%TO.P,C44,2*%
%TO.N,0*%
X172900000Y-142200000D03*
%TD*%
D25*
%TO.P,BT1,1,+*%
%TO.N,+BAT*%
X116500000Y-125800000D03*
%TO.P,BT1,2,-*%
%TO.N,-BAT*%
X195500000Y-125700000D03*
%TD*%
D15*
%TO.P,RV4,1,1*%
%TO.N,-5V*%
X162200000Y-105000000D03*
%TO.P,RV4,2,2*%
%TO.N,Net-(C4-Pad2)*%
X159660000Y-105000000D03*
%TO.P,RV4,3,3*%
%TO.N,+5V*%
X157120000Y-105000000D03*
%TD*%
D20*
%TO.P,C20,1*%
%TO.N,0*%
X181900000Y-142200000D03*
D21*
%TO.P,C20,2*%
%TO.N,Net-(Q4-B)*%
X179900000Y-142200000D03*
%TD*%
D15*
%TO.P,RV1,1,1*%
%TO.N,-5V*%
X127700000Y-148850000D03*
%TO.P,RV1,2,2*%
%TO.N,Net-(C32-Pad2)*%
X127700000Y-146310000D03*
%TO.P,RV1,3,3*%
%TO.N,+5V*%
X127700000Y-143770000D03*
%TD*%
D20*
%TO.P,C36,1*%
%TO.N,0*%
X185700000Y-142200000D03*
D21*
%TO.P,C36,2*%
%TO.N,-5V*%
X187700000Y-142200000D03*
%TD*%
D26*
%TO.N,0*%
X170212500Y-132100000D03*
X141400000Y-124200000D03*
X160500000Y-117500000D03*
X130500000Y-107600000D03*
X176000000Y-131500000D03*
X130100000Y-120200000D03*
X128500000Y-107600000D03*
X176000000Y-133100000D03*
X171900000Y-133700000D03*
X131500000Y-140000000D03*
X169100000Y-118000000D03*
X176400000Y-107100000D03*
X176300000Y-110500000D03*
X165900000Y-118100000D03*
X125600000Y-112800000D03*
X133300000Y-139600000D03*
X176300000Y-108800000D03*
X167500000Y-118100000D03*
X131900000Y-111700000D03*
X129700000Y-135500000D03*
X189700000Y-134600000D03*
X160800000Y-119600000D03*
X131308118Y-135550000D03*
X129500000Y-140000000D03*
%TO.N,+5V*%
X134000000Y-122950000D03*
X132350000Y-107650000D03*
%TO.N,-5V*%
X141300000Y-125800000D03*
X134250000Y-107700000D03*
X134000000Y-121100000D03*
X170600000Y-118000000D03*
%TO.N,Net-(C32-Pad2)*%
X133200000Y-135600000D03*
%TO.N,Earth*%
X136900000Y-145900000D03*
X135300000Y-145900000D03*
X165300000Y-148800000D03*
X140700000Y-139800000D03*
X141400000Y-150000000D03*
X142200000Y-149400000D03*
X156600000Y-146800000D03*
X165350000Y-146600000D03*
X147800000Y-150200000D03*
%TO.N,+BAT*%
X137800000Y-150000000D03*
X139800000Y-137800000D03*
%TO.N,-BAT*%
X148750000Y-145000000D03*
%TO.N,Net-(PS1-+Vin)*%
X162200000Y-150800000D03*
%TO.N,Net-(PS1--Vout)*%
X178100000Y-140400000D03*
%TO.N,Net-(C4-Pad2)*%
X163512500Y-118600000D03*
%TD*%
D27*
%TO.N,+BAT*%
X142550000Y-137800000D02*
X141800000Y-137800000D01*
X127306207Y-136206207D02*
X116900000Y-125800000D01*
X146150000Y-135100000D02*
X146300000Y-135100000D01*
X141800000Y-137800000D02*
X140300000Y-137800000D01*
X145893933Y-135206066D02*
X143830329Y-137269669D01*
X131153963Y-137800000D02*
X140300000Y-137800000D01*
X146150000Y-135100000D02*
G75*
G03*
X145893940Y-135206073I0J-362100D01*
G01*
X142550000Y-137800000D02*
G75*
G03*
X143830338Y-137269678I0J1810700D01*
G01*
X127306207Y-136206207D02*
G75*
G03*
X131153963Y-137800011I3847793J3847807D01*
G01*
%TO.N,-BAT*%
X174553963Y-125700000D02*
X195500000Y-125700000D01*
X170706207Y-127293792D02*
X165793792Y-132206207D01*
X161980761Y-145000000D02*
X148750000Y-145000000D01*
X164200000Y-142780761D02*
X164200000Y-136053963D01*
X164200000Y-142780761D02*
G75*
G02*
X163550011Y-144350011I-2219200J-39D01*
G01*
X174553963Y-125700000D02*
G75*
G03*
X170706236Y-127293821I37J-5441500D01*
G01*
X165793792Y-132206207D02*
G75*
G03*
X164199959Y-136053963I3847708J-3847793D01*
G01*
X163550000Y-144350000D02*
G75*
G02*
X161980761Y-144999984I-1569200J1569200D01*
G01*
%TO.N,Net-(PS1-+Vin)*%
X168977500Y-150447500D02*
X169330000Y-150095000D01*
X168126489Y-150800000D02*
X162200000Y-150800000D01*
X168126489Y-150800000D02*
G75*
G03*
X168977503Y-150447503I11J1203500D01*
G01*
%TO.N,Net-(SW2A-B)*%
X151650000Y-136450000D02*
X150300000Y-135100000D01*
X161150000Y-141425000D02*
X161150000Y-141700000D01*
X160955545Y-140955545D02*
X159393792Y-139393792D01*
X154909188Y-137800000D02*
X155546036Y-137800000D01*
X159393792Y-139393792D02*
G75*
G03*
X155546036Y-137799989I-3847792J-3847808D01*
G01*
X154909188Y-137800000D02*
G75*
G02*
X151650003Y-136449997I12J4609200D01*
G01*
X161150000Y-141425000D02*
G75*
G03*
X160955543Y-140955547I-663900J0D01*
G01*
%TD*%
M02*
