M48
; DRILL file {KiCad 9.0.0} date 2025-05-24T18:36:11+0200
; FORMAT={-:-/ absolute / inch / decimal}
; #@! TF.CreationDate,2025-05-24T18:36:11+02:00
; #@! TF.GenerationSoftware,Kicad,Pcbnew,9.0.0
; #@! TF.FileFunction,Plated,1,4,PTH
FMAT,2
INCH
; #@! TA.AperFunction,Plated,PTH,ViaDrill
T1C0.0157
; #@! TA.AperFunction,Plated,PTH,ComponentDrill
T2C0.0295
; #@! TA.AperFunction,Plated,PTH,ComponentDrill
T3C0.0315
; #@! TA.AperFunction,Plated,PTH,ComponentDrill
T4C0.0335
; #@! TA.AperFunction,Plated,PTH,ComponentDrill
T5C0.0354
; #@! TA.AperFunction,Plated,PTH,ComponentDrill
T6C0.0394
; #@! TA.AperFunction,Plated,PTH,ComponentDrill
T7C0.0512
%
G90
G05
T1
X4.9449Y-4.4409
X5.0591Y-4.2362
X5.0984Y-5.5118
X5.1063Y-5.3346
X5.122Y-4.7323
X5.1378Y-4.2362
X5.1696Y-5.3366
X5.1772Y-5.5118
X5.1929Y-4.3976
X5.2106Y-4.2382
X5.2441Y-5.3386
X5.248Y-5.4961
X5.2756Y-4.7677
X5.2756Y-4.8406
X5.2854Y-4.2402
X5.3268Y-5.7441
X5.3898Y-5.7441
X5.4252Y-5.9055
X5.5039Y-5.4252
X5.5394Y-5.5039
X5.563Y-4.9528
X5.5669Y-4.8898
X5.5669Y-5.9055
X5.5984Y-5.8819
X5.8189Y-5.9134
X5.8563Y-5.7087
X6.1654Y-5.7795
X6.3189Y-4.626
X6.3307Y-4.7087
X6.3858Y-5.937
X6.4375Y-4.6693
X6.5079Y-5.8583
X6.5098Y-5.7717
X6.5315Y-4.6496
X6.5945Y-4.6496
X6.6575Y-4.6457
X6.7013Y-5.2008
X6.7165Y-4.6457
X6.7677Y-5.2638
X6.9291Y-5.1772
X6.9291Y-5.2402
X6.9409Y-4.2835
X6.9409Y-4.3504
X6.9449Y-4.2165
X7.0118Y-5.5276
X7.4685Y-5.2992
T2
X5.6496Y-5.563
X5.7283Y-5.563
X5.8071Y-5.563
X5.8858Y-5.563
T3
X4.7953Y-5.6602
X4.7953Y-5.7602
X4.7953Y-5.8602
X4.9378Y-4.1339
X5.0236Y-4.8646
X5.0236Y-4.9646
X5.0236Y-5.0646
X5.0276Y-5.6602
X5.0276Y-5.7602
X5.0276Y-5.8602
X5.0378Y-4.1339
X5.1378Y-4.1339
X6.1024Y-5.8307
X6.1024Y-5.9094
X6.1858Y-4.1339
X6.2858Y-4.1339
X6.3858Y-4.1339
X6.5748Y-5.5984
X6.6535Y-5.5984
X6.8071Y-5.5984
X6.8858Y-5.5984
X7.0827Y-5.5984
X7.1614Y-5.5984
X7.311Y-5.5984
X7.3898Y-5.5984
T4
X3.9941Y-5.2795
X4.0Y-4.6575
X6.6665Y-5.9093
X6.7665Y-5.9093
X6.9665Y-5.9093
X7.0197Y-4.3268
X7.0197Y-4.4528
X7.0665Y-5.9093
X7.1665Y-5.9093
T5
X5.2689Y-5.8504
X5.3689Y-5.8504
T6
X6.6417Y-5.4331
X6.7315Y-5.4331
X6.8213Y-5.4331
X7.1457Y-5.4331
X7.2354Y-5.4331
X7.3252Y-5.4331
T7
X6.2067Y-5.5787
X6.3445Y-5.5787
T6
G00X5.7894Y-4.6024
M15
G01X5.7303Y-4.6024
M16
G05
G00X5.7894Y-4.7047
M15
G01X5.7303Y-4.7047
M16
G05
G00X5.7894Y-5.2165
M15
G01X5.7303Y-5.2165
M16
G05
G00X5.7894Y-5.3189
M15
G01X5.7303Y-5.3189
M16
G05
G00X5.9469Y-4.6024
M15
G01X5.8878Y-4.6024
M16
G05
G00X5.9469Y-4.7047
M15
G01X5.8878Y-4.7047
M16
G05
G00X5.9469Y-5.2165
M15
G01X5.8878Y-5.2165
M16
G05
G00X5.9469Y-5.3189
M15
G01X5.8878Y-5.3189
M16
G05
G00X6.1043Y-4.6024
M15
G01X6.0453Y-4.6024
M16
G05
G00X6.1043Y-4.7047
M15
G01X6.0453Y-4.7047
M16
G05
G00X6.1043Y-5.2165
M15
G01X6.0453Y-5.2165
M16
G05
G00X6.1043Y-5.3189
M15
G01X6.0453Y-5.3189
M16
G05
M30
